%TF.GenerationSoftware,KiCad,Pcbnew,7.0.2-6a45011f42~172~ubuntu22.04.1*%
%TF.CreationDate,2023-08-24T18:49:15+02:00*%
%TF.ProjectId,CH582,43483538-322e-46b6-9963-61645f706362,rev?*%
%TF.SameCoordinates,Original*%
%TF.FileFunction,Plated,1,2,PTH,Drill*%
%TF.FilePolarity,Positive*%
%FSLAX46Y46*%
G04 Gerber Fmt 4.6, Leading zero omitted, Abs format (unit mm)*
G04 Created by KiCad (PCBNEW 7.0.2-6a45011f42~172~ubuntu22.04.1) date 2023-08-24 18:49:15*
%MOMM*%
%LPD*%
G01*
G04 APERTURE LIST*
%TA.AperFunction,ComponentDrill*%
%ADD10C,0.200000*%
%TD*%
%TA.AperFunction,ComponentDrill*%
%ADD11C,0.300000*%
%TD*%
%TA.AperFunction,ViaDrill*%
%ADD12C,0.400000*%
%TD*%
%TA.AperFunction,ComponentDrill*%
%ADD13C,0.800000*%
%TD*%
%TA.AperFunction,ComponentDrill*%
%ADD14C,1.000000*%
%TD*%
%TA.AperFunction,ComponentDrill*%
%ADD15C,2.200000*%
%TD*%
G04 APERTURE END LIST*
D10*
%TO.C,U3*%
X20405482Y-26987800D03*
X20405482Y-28054467D03*
X20405482Y-29121133D03*
X20405482Y-30187800D03*
X21472149Y-26987800D03*
X21472149Y-28054467D03*
X21472149Y-29121133D03*
X21472149Y-30187800D03*
X22538815Y-26987800D03*
X22538815Y-28054467D03*
X22538815Y-29121133D03*
X22538815Y-30187800D03*
X23605482Y-26987800D03*
X23605482Y-28054467D03*
X23605482Y-29121133D03*
X23605482Y-30187800D03*
D11*
%TO.C,AE1*%
X19000000Y-20550000D03*
%TD*%
D12*
X15494000Y-46355000D03*
X15800000Y-31600000D03*
X15875000Y-43000000D03*
X16002000Y-21082000D03*
X16357798Y-27134299D03*
X17222200Y-25377800D03*
X17517709Y-40754353D03*
X17653000Y-31200000D03*
X18034000Y-38100000D03*
X18496356Y-26289000D03*
X20955000Y-36449000D03*
X20955000Y-46355000D03*
X21800000Y-43200000D03*
X22225000Y-33050500D03*
X23622000Y-34925000D03*
X23749000Y-37719000D03*
X24683071Y-40696081D03*
X25273000Y-21082000D03*
X25273000Y-43170500D03*
X25654000Y-25982961D03*
X27590750Y-36417250D03*
X27686000Y-24003000D03*
X27698000Y-45200000D03*
X29083000Y-38481000D03*
X29718000Y-21082000D03*
X30480000Y-34433500D03*
X30734000Y-40767000D03*
X32893000Y-40767000D03*
X33020000Y-24003000D03*
X33655000Y-35560000D03*
X34290000Y-21082000D03*
X34798000Y-43688000D03*
X34800000Y-37400000D03*
X35941000Y-45466000D03*
X36957000Y-27559000D03*
X37800000Y-38400000D03*
X37846000Y-40132000D03*
X38578812Y-28223188D03*
X39014266Y-20014266D03*
X39370000Y-44831000D03*
X40005000Y-43815000D03*
X41275000Y-41529000D03*
X41275000Y-46101000D03*
X41550500Y-30929361D03*
X42418000Y-32131000D03*
X42672000Y-39878000D03*
X43000000Y-43800000D03*
X43434000Y-39116000D03*
X44049500Y-40200000D03*
X46101000Y-26670000D03*
X46101000Y-32258000D03*
X46101000Y-38481000D03*
X46101000Y-42418000D03*
X46101000Y-46101000D03*
D13*
%TO.C,J1*%
X30000000Y-44200000D03*
X32000000Y-44200000D03*
D14*
%TO.C,J5*%
X17000000Y-44800000D03*
X19540000Y-44800000D03*
%TO.C,J3*%
X39811846Y-16811846D03*
X41607898Y-18607898D03*
X43403949Y-20403949D03*
X45200000Y-22200000D03*
D15*
%TO.C,GND1*%
X40767000Y-24257000D03*
M02*
