G04 #@! TF.GenerationSoftware,KiCad,Pcbnew,7.0.2-6a45011f42~172~ubuntu22.04.1*
G04 #@! TF.CreationDate,2023-08-24T18:49:15+02:00*
G04 #@! TF.ProjectId,CH582,43483538-322e-46b6-9963-61645f706362,rev?*
G04 #@! TF.SameCoordinates,Original*
G04 #@! TF.FileFunction,Profile,NP*
%FSLAX46Y46*%
G04 Gerber Fmt 4.6, Leading zero omitted, Abs format (unit mm)*
G04 Created by KiCad (PCBNEW 7.0.2-6a45011f42~172~ubuntu22.04.1) date 2023-08-24 18:49:15*
%MOMM*%
%LPD*%
G01*
G04 APERTURE LIST*
G04 Aperture macros list*
%AMHorizOval*
0 Thick line with rounded ends*
0 $1 width*
0 $2 $3 position (X,Y) of the first rounded end (center of the circle)*
0 $4 $5 position (X,Y) of the second rounded end (center of the circle)*
0 Add line between two ends*
20,1,$1,$2,$3,$4,$5,0*
0 Add two circle primitives to create the rounded ends*
1,1,$1,$2,$3*
1,1,$1,$4,$5*%
%AMRotRect*
0 Rectangle, with rotation*
0 The origin of the aperture is its center*
0 $1 length*
0 $2 width*
0 $3 Rotation angle, in degrees counterclockwise*
0 Add horizontal line*
21,1,$1,$2,0,0,$3*%
G04 Aperture macros list end*
G04 #@! TA.AperFunction,Profile*
%ADD10C,0.200000*%
G04 #@! TD*
G04 #@! TA.AperFunction,SMDPad,CuDef*
%ADD11C,1.000000*%
G04 #@! TD*
G04 #@! TA.AperFunction,ConnectorPad*
%ADD12C,3.800000*%
G04 #@! TD*
G04 #@! TA.AperFunction,ComponentPad*
%ADD13C,2.600000*%
G04 #@! TD*
G04 #@! TA.AperFunction,ComponentPad*
%ADD14R,0.900000X0.500000*%
G04 #@! TD*
G04 #@! TA.AperFunction,ComponentPad*
%ADD15R,1.700000X1.700000*%
G04 #@! TD*
G04 #@! TA.AperFunction,ComponentPad*
%ADD16O,1.700000X1.700000*%
G04 #@! TD*
G04 #@! TA.AperFunction,ComponentPad*
%ADD17C,0.500000*%
G04 #@! TD*
G04 #@! TA.AperFunction,SMDPad,CuDef*
%ADD18R,3.700000X3.700000*%
G04 #@! TD*
G04 #@! TA.AperFunction,ComponentPad*
%ADD19R,1.350000X1.350000*%
G04 #@! TD*
G04 #@! TA.AperFunction,ComponentPad*
%ADD20O,1.350000X1.350000*%
G04 #@! TD*
G04 #@! TA.AperFunction,ComponentPad*
%ADD21RotRect,1.700000X1.700000X225.000000*%
G04 #@! TD*
G04 #@! TA.AperFunction,ComponentPad*
%ADD22HorizOval,1.700000X0.000000X0.000000X0.000000X0.000000X0*%
G04 #@! TD*
G04 #@! TA.AperFunction,ViaPad*
%ADD23C,0.800000*%
G04 #@! TD*
G04 #@! TA.AperFunction,Conductor*
%ADD24C,0.500000*%
G04 #@! TD*
G04 #@! TA.AperFunction,Conductor*
%ADD25C,0.170000*%
G04 #@! TD*
G04 #@! TA.AperFunction,Conductor*
%ADD26C,0.320000*%
G04 #@! TD*
%ADD27C,0.350000*%
%ADD28C,0.300000*%
%ADD29C,0.200000*%
G04 APERTURE END LIST*
D10*
X47000000Y-21750000D02*
X47000000Y-47000000D01*
X15000000Y-47000000D01*
X15000000Y-15000000D01*
X40250000Y-15000000D01*
X47000000Y-21750000D01*
D11*
X39751000Y-42672000D03*
D12*
X40767000Y-24257000D03*
D13*
X40767000Y-24257000D03*
D11*
X17780000Y-28956000D03*
X37084000Y-42672000D03*
X35433000Y-22987000D03*
D14*
X19000000Y-20550000D03*
D15*
X17000000Y-44800000D03*
D16*
X19540000Y-44800000D03*
D17*
X23605482Y-26987800D03*
X22538815Y-26987800D03*
X21472149Y-26987800D03*
X20405482Y-26987800D03*
X23605482Y-28054467D03*
X22538815Y-28054467D03*
X21472149Y-28054467D03*
X20405482Y-28054467D03*
D18*
X22005482Y-28587800D03*
D17*
X23605482Y-29121133D03*
X22538815Y-29121133D03*
X21472149Y-29121133D03*
X20405482Y-29121133D03*
X23605482Y-30187800D03*
X22538815Y-30187800D03*
X21472149Y-30187800D03*
X20405482Y-30187800D03*
D19*
X30000000Y-44200000D03*
D20*
X32000000Y-44200000D03*
D21*
X45200000Y-22200000D03*
D22*
X43403949Y-20403949D03*
X41607898Y-18607898D03*
X39811846Y-16811846D03*
D23*
X27590750Y-36417250D03*
X17222200Y-25377800D03*
X40005000Y-43815000D03*
X15494000Y-46355000D03*
X33020000Y-24003000D03*
X46101000Y-32258000D03*
X46101000Y-26670000D03*
X23749000Y-37719000D03*
X20955000Y-36449000D03*
X20955000Y-46355000D03*
X34798000Y-43688000D03*
X39370000Y-44831000D03*
X41275000Y-46101000D03*
X46101000Y-38481000D03*
X46101000Y-42418000D03*
X46101000Y-46101000D03*
X16002000Y-21082000D03*
X34290000Y-21082000D03*
X29718000Y-21082000D03*
X27686000Y-24003000D03*
X41550500Y-30929361D03*
X32893000Y-40767000D03*
X29083000Y-38481000D03*
X22225000Y-33050500D03*
X30734000Y-40767000D03*
X24683071Y-40696081D03*
X18034000Y-38100000D03*
X30480000Y-34433500D03*
X33655000Y-35560000D03*
X37846000Y-40132000D03*
X42672000Y-39878000D03*
X25273000Y-21082000D03*
X17517709Y-40754353D03*
X21800000Y-43200000D03*
X35941000Y-45466000D03*
X42418000Y-32131000D03*
X37800000Y-38400000D03*
X34800000Y-37400000D03*
X25654000Y-25982961D03*
X38578812Y-28223188D03*
X36957000Y-27559000D03*
X18496356Y-26289000D03*
X15800000Y-31600000D03*
X16357798Y-27134299D03*
X27698000Y-45200000D03*
X44049500Y-40200000D03*
X43000000Y-43800000D03*
X43434000Y-39116000D03*
X41275000Y-41529000D03*
X15875000Y-43000000D03*
X23622000Y-34925000D03*
X25273000Y-43170500D03*
X39014266Y-20014266D03*
X17653000Y-31200000D03*
D24*
X27590750Y-36417250D02*
X29083000Y-37909500D01*
X22225000Y-33050500D02*
X24224000Y-33050500D01*
X24224000Y-33050500D02*
X27590750Y-36417250D01*
X29083000Y-37909500D02*
X29083000Y-38481000D01*
D25*
X25654000Y-25982961D02*
X25671039Y-26000000D01*
X25671039Y-26000000D02*
X35433000Y-26000000D01*
D24*
X39014266Y-20014266D02*
X39014266Y-20040734D01*
X37465000Y-25508396D02*
X41840604Y-29884000D01*
X39014266Y-20040734D02*
X37465000Y-21590000D01*
X37465000Y-21590000D02*
X37465000Y-25508396D01*
X41840604Y-29884000D02*
X41881082Y-29884000D01*
X41881082Y-29884000D02*
X42418000Y-30420918D01*
X42418000Y-30420918D02*
X42418000Y-32131000D01*
D25*
X41550500Y-30929361D02*
X41355139Y-30734000D01*
X41355139Y-30734000D02*
X28351682Y-30734000D01*
X28351682Y-30734000D02*
X23817682Y-26200000D01*
X23817682Y-26200000D02*
X18585356Y-26200000D01*
X18585356Y-26200000D02*
X18496356Y-26289000D01*
D24*
X23622000Y-34925000D02*
X23622000Y-35052000D01*
X23622000Y-35052000D02*
X25894550Y-37324550D01*
X25894550Y-42548950D02*
X25273000Y-43170500D01*
X25894550Y-37324550D02*
X25894550Y-42548950D01*
D25*
X38399766Y-28044142D02*
X38399766Y-27213500D01*
X37200000Y-26000000D02*
X35433000Y-26000000D01*
X38364266Y-27178000D02*
X38364266Y-27164266D01*
X38578812Y-28223188D02*
X38399766Y-28044142D01*
X38364266Y-27164266D02*
X37200000Y-26000000D01*
X38399766Y-27213500D02*
X38364266Y-27178000D01*
D24*
X35941000Y-45466000D02*
X35052000Y-46355000D01*
X35052000Y-46355000D02*
X27355000Y-46355000D01*
X27355000Y-46355000D02*
X25273000Y-44273000D01*
X25273000Y-44273000D02*
X25273000Y-43170500D01*
D25*
X35433000Y-26000000D02*
X35433000Y-22987000D01*
X43434000Y-39116000D02*
X41021000Y-36703000D01*
X24680000Y-32131000D02*
X18584000Y-32131000D01*
X41021000Y-36703000D02*
X29252000Y-36703000D01*
X29252000Y-36703000D02*
X24680000Y-32131000D01*
X18584000Y-32131000D02*
X17653000Y-31200000D01*
D26*
X17222200Y-25377800D02*
X17222200Y-28398200D01*
X17222200Y-28398200D02*
X17780000Y-28956000D01*
X16357798Y-27134299D02*
X16299701Y-27134299D01*
X16299701Y-27134299D02*
X15800000Y-27634000D01*
X15800000Y-27634000D02*
X15800000Y-31600000D01*
D24*
X40005000Y-43815000D02*
X39751000Y-43561000D01*
X39751000Y-43561000D02*
X39751000Y-42672000D01*
X34124000Y-41910000D02*
X34124000Y-40302345D01*
X34124000Y-43092000D02*
X34124000Y-41910000D01*
X34124000Y-41910000D02*
X36322000Y-41910000D01*
X36322000Y-41910000D02*
X37084000Y-42672000D01*
X32000000Y-44200000D02*
X33016000Y-44200000D01*
X33016000Y-44200000D02*
X34124000Y-43092000D01*
X37797828Y-38402172D02*
X37800000Y-38400000D01*
X34124000Y-40302345D02*
X36024173Y-38402172D01*
X36024173Y-38402172D02*
X37797828Y-38402172D01*
X17517709Y-40754353D02*
X19354353Y-40754353D01*
X19354353Y-40754353D02*
X21800000Y-43200000D01*
D25*
X42672000Y-39878000D02*
X42418000Y-40132000D01*
D24*
X30000000Y-44200000D02*
X30000000Y-44986000D01*
X30000000Y-44986000D02*
X30669000Y-45655000D01*
X30669000Y-45655000D02*
X34267918Y-45655000D01*
X34267918Y-45655000D02*
X35599918Y-44323000D01*
X35599918Y-44323000D02*
X38862000Y-44323000D01*
X38862000Y-44323000D02*
X39370000Y-44831000D01*
X32528500Y-34433500D02*
X30480000Y-34433500D01*
X33655000Y-35560000D02*
X32528500Y-34433500D01*
D25*
X37846000Y-40132000D02*
X42418000Y-40132000D01*
D27*
X27590750Y-36417250D03*
X17222200Y-25377800D03*
X40005000Y-43815000D03*
X15494000Y-46355000D03*
X33020000Y-24003000D03*
X46101000Y-32258000D03*
X46101000Y-26670000D03*
X23749000Y-37719000D03*
X20955000Y-36449000D03*
X20955000Y-46355000D03*
X34798000Y-43688000D03*
X39370000Y-44831000D03*
X41275000Y-46101000D03*
X46101000Y-38481000D03*
X46101000Y-42418000D03*
X46101000Y-46101000D03*
X16002000Y-21082000D03*
X34290000Y-21082000D03*
X29718000Y-21082000D03*
X27686000Y-24003000D03*
X41550500Y-30929361D03*
X32893000Y-40767000D03*
X29083000Y-38481000D03*
X22225000Y-33050500D03*
X30734000Y-40767000D03*
X24683071Y-40696081D03*
X18034000Y-38100000D03*
X30480000Y-34433500D03*
X33655000Y-35560000D03*
X37846000Y-40132000D03*
X42672000Y-39878000D03*
X25273000Y-21082000D03*
X17517709Y-40754353D03*
X21800000Y-43200000D03*
X35941000Y-45466000D03*
X42418000Y-32131000D03*
X37800000Y-38400000D03*
X34800000Y-37400000D03*
X25654000Y-25982961D03*
X38578812Y-28223188D03*
X36957000Y-27559000D03*
X18496356Y-26289000D03*
X15800000Y-31600000D03*
X16357798Y-27134299D03*
X27698000Y-45200000D03*
X44049500Y-40200000D03*
X43000000Y-43800000D03*
X43434000Y-39116000D03*
X41275000Y-41529000D03*
X15875000Y-43000000D03*
X23622000Y-34925000D03*
X25273000Y-43170500D03*
X39014266Y-20014266D03*
X17653000Y-31200000D03*
X40767000Y-24257000D03*
D28*
X19000000Y-20550000D03*
D27*
X17000000Y-44800000D03*
X19540000Y-44800000D03*
D29*
X23605482Y-26987800D03*
X22538815Y-26987800D03*
X21472149Y-26987800D03*
X20405482Y-26987800D03*
X23605482Y-28054467D03*
X22538815Y-28054467D03*
X21472149Y-28054467D03*
X20405482Y-28054467D03*
X23605482Y-29121133D03*
X22538815Y-29121133D03*
X21472149Y-29121133D03*
X20405482Y-29121133D03*
X23605482Y-30187800D03*
X22538815Y-30187800D03*
X21472149Y-30187800D03*
X20405482Y-30187800D03*
D27*
X30000000Y-44200000D03*
X32000000Y-44200000D03*
X45200000Y-22200000D03*
X43403949Y-20403949D03*
X41607898Y-18607898D03*
X39811846Y-16811846D03*
M02*
