G04 #@! TF.GenerationSoftware,KiCad,Pcbnew,7.0.2-6a45011f42~172~ubuntu22.04.1*
G04 #@! TF.CreationDate,2023-08-24T18:49:15+02:00*
G04 #@! TF.ProjectId,CH582,43483538-322e-46b6-9963-61645f706362,rev?*
G04 #@! TF.SameCoordinates,Original*
G04 #@! TF.FileFunction,Copper,L1,Top*
G04 #@! TF.FilePolarity,Positive*
%FSLAX46Y46*%
G04 Gerber Fmt 4.6, Leading zero omitted, Abs format (unit mm)*
G04 Created by KiCad (PCBNEW 7.0.2-6a45011f42~172~ubuntu22.04.1) date 2023-08-24 18:49:15*
%MOMM*%
%LPD*%
G01*
G04 APERTURE LIST*
G04 Aperture macros list*
%AMRoundRect*
0 Rectangle with rounded corners*
0 $1 Rounding radius*
0 $2 $3 $4 $5 $6 $7 $8 $9 X,Y pos of 4 corners*
0 Add a 4 corners polygon primitive as box body*
4,1,4,$2,$3,$4,$5,$6,$7,$8,$9,$2,$3,0*
0 Add four circle primitives for the rounded corners*
1,1,$1+$1,$2,$3*
1,1,$1+$1,$4,$5*
1,1,$1+$1,$6,$7*
1,1,$1+$1,$8,$9*
0 Add four rect primitives between the rounded corners*
20,1,$1+$1,$2,$3,$4,$5,0*
20,1,$1+$1,$4,$5,$6,$7,0*
20,1,$1+$1,$6,$7,$8,$9,0*
20,1,$1+$1,$8,$9,$2,$3,0*%
%AMHorizOval*
0 Thick line with rounded ends*
0 $1 width*
0 $2 $3 position (X,Y) of the first rounded end (center of the circle)*
0 $4 $5 position (X,Y) of the second rounded end (center of the circle)*
0 Add line between two ends*
20,1,$1,$2,$3,$4,$5,0*
0 Add two circle primitives to create the rounded ends*
1,1,$1,$2,$3*
1,1,$1,$4,$5*%
%AMRotRect*
0 Rectangle, with rotation*
0 The origin of the aperture is its center*
0 $1 length*
0 $2 width*
0 $3 Rotation angle, in degrees counterclockwise*
0 Add horizontal line*
21,1,$1,$2,0,0,$3*%
G04 Aperture macros list end*
G04 #@! TA.AperFunction,NonConductor*
%ADD10C,0.200000*%
G04 #@! TD*
G04 #@! TA.AperFunction,NonConductor*
%ADD11C,0.000000*%
G04 #@! TD*
G04 #@! TA.AperFunction,SMDPad,CuDef*
%ADD12R,0.900000X0.800000*%
G04 #@! TD*
G04 #@! TA.AperFunction,SMDPad,CuDef*
%ADD13R,1.100000X0.600000*%
G04 #@! TD*
G04 #@! TA.AperFunction,SMDPad,CuDef*
%ADD14R,3.700000X1.100000*%
G04 #@! TD*
G04 #@! TA.AperFunction,SMDPad,CuDef*
%ADD15R,2.000000X0.850000*%
G04 #@! TD*
G04 #@! TA.AperFunction,ConnectorPad*
%ADD16C,3.800000*%
G04 #@! TD*
G04 #@! TA.AperFunction,ComponentPad*
%ADD17C,2.600000*%
G04 #@! TD*
G04 #@! TA.AperFunction,SMDPad,CuDef*
%ADD18R,0.675000X0.250000*%
G04 #@! TD*
G04 #@! TA.AperFunction,SMDPad,CuDef*
%ADD19R,0.250000X0.675000*%
G04 #@! TD*
G04 #@! TA.AperFunction,SMDPad,CuDef*
%ADD20R,2.200000X1.800000*%
G04 #@! TD*
G04 #@! TA.AperFunction,SMDPad,CuDef*
%ADD21R,1.300000X0.300000*%
G04 #@! TD*
G04 #@! TA.AperFunction,ConnectorPad*
%ADD22R,0.500000X0.500000*%
G04 #@! TD*
G04 #@! TA.AperFunction,ComponentPad*
%ADD23R,0.900000X0.500000*%
G04 #@! TD*
G04 #@! TA.AperFunction,SMDPad,CuDef*
%ADD24RoundRect,0.135000X0.135000X0.185000X-0.135000X0.185000X-0.135000X-0.185000X0.135000X-0.185000X0*%
G04 #@! TD*
G04 #@! TA.AperFunction,SMDPad,CuDef*
%ADD25RoundRect,0.150000X-0.150000X0.587500X-0.150000X-0.587500X0.150000X-0.587500X0.150000X0.587500X0*%
G04 #@! TD*
G04 #@! TA.AperFunction,ComponentPad*
%ADD26R,1.700000X1.700000*%
G04 #@! TD*
G04 #@! TA.AperFunction,ComponentPad*
%ADD27O,1.700000X1.700000*%
G04 #@! TD*
G04 #@! TA.AperFunction,SMDPad,CuDef*
%ADD28RoundRect,0.140000X-0.170000X0.140000X-0.170000X-0.140000X0.170000X-0.140000X0.170000X0.140000X0*%
G04 #@! TD*
G04 #@! TA.AperFunction,SMDPad,CuDef*
%ADD29RoundRect,0.225000X0.250000X-0.225000X0.250000X0.225000X-0.250000X0.225000X-0.250000X-0.225000X0*%
G04 #@! TD*
G04 #@! TA.AperFunction,SMDPad,CuDef*
%ADD30RoundRect,0.135000X-0.135000X-0.185000X0.135000X-0.185000X0.135000X0.185000X-0.135000X0.185000X0*%
G04 #@! TD*
G04 #@! TA.AperFunction,SMDPad,CuDef*
%ADD31RoundRect,0.225000X0.225000X0.250000X-0.225000X0.250000X-0.225000X-0.250000X0.225000X-0.250000X0*%
G04 #@! TD*
G04 #@! TA.AperFunction,SMDPad,CuDef*
%ADD32RoundRect,0.250000X0.650000X-0.350000X0.650000X0.350000X-0.650000X0.350000X-0.650000X-0.350000X0*%
G04 #@! TD*
G04 #@! TA.AperFunction,SMDPad,CuDef*
%ADD33RoundRect,0.140000X0.140000X0.170000X-0.140000X0.170000X-0.140000X-0.170000X0.140000X-0.170000X0*%
G04 #@! TD*
G04 #@! TA.AperFunction,ComponentPad*
%ADD34C,0.500000*%
G04 #@! TD*
G04 #@! TA.AperFunction,SMDPad,CuDef*
%ADD35R,3.700000X3.700000*%
G04 #@! TD*
G04 #@! TA.AperFunction,SMDPad,CuDef*
%ADD36RoundRect,0.050000X0.350000X-0.050000X0.350000X0.050000X-0.350000X0.050000X-0.350000X-0.050000X0*%
G04 #@! TD*
G04 #@! TA.AperFunction,SMDPad,CuDef*
%ADD37RoundRect,0.050000X0.050000X-0.350000X0.050000X0.350000X-0.050000X0.350000X-0.050000X-0.350000X0*%
G04 #@! TD*
G04 #@! TA.AperFunction,ComponentPad*
%ADD38R,1.350000X1.350000*%
G04 #@! TD*
G04 #@! TA.AperFunction,ComponentPad*
%ADD39O,1.350000X1.350000*%
G04 #@! TD*
G04 #@! TA.AperFunction,SMDPad,CuDef*
%ADD40R,2.000000X1.100000*%
G04 #@! TD*
G04 #@! TA.AperFunction,SMDPad,CuDef*
%ADD41RoundRect,0.218750X0.218750X0.256250X-0.218750X0.256250X-0.218750X-0.256250X0.218750X-0.256250X0*%
G04 #@! TD*
G04 #@! TA.AperFunction,SMDPad,CuDef*
%ADD42RoundRect,0.135000X0.226274X0.035355X0.035355X0.226274X-0.226274X-0.035355X-0.035355X-0.226274X0*%
G04 #@! TD*
G04 #@! TA.AperFunction,SMDPad,CuDef*
%ADD43RoundRect,0.150000X-0.512500X-0.150000X0.512500X-0.150000X0.512500X0.150000X-0.512500X0.150000X0*%
G04 #@! TD*
G04 #@! TA.AperFunction,SMDPad,CuDef*
%ADD44RoundRect,0.135000X0.185000X-0.135000X0.185000X0.135000X-0.185000X0.135000X-0.185000X-0.135000X0*%
G04 #@! TD*
G04 #@! TA.AperFunction,ComponentPad*
%ADD45RotRect,1.700000X1.700000X225.000000*%
G04 #@! TD*
G04 #@! TA.AperFunction,ComponentPad*
%ADD46HorizOval,1.700000X0.000000X0.000000X0.000000X0.000000X0*%
G04 #@! TD*
G04 #@! TA.AperFunction,SMDPad,CuDef*
%ADD47RoundRect,0.225000X-0.225000X-0.250000X0.225000X-0.250000X0.225000X0.250000X-0.225000X0.250000X0*%
G04 #@! TD*
G04 #@! TA.AperFunction,SMDPad,CuDef*
%ADD48RoundRect,0.218750X-0.256250X0.218750X-0.256250X-0.218750X0.256250X-0.218750X0.256250X0.218750X0*%
G04 #@! TD*
G04 #@! TA.AperFunction,SMDPad,CuDef*
%ADD49RoundRect,0.225000X-0.250000X0.225000X-0.250000X-0.225000X0.250000X-0.225000X0.250000X0.225000X0*%
G04 #@! TD*
G04 #@! TA.AperFunction,SMDPad,CuDef*
%ADD50RoundRect,0.150000X0.512500X0.150000X-0.512500X0.150000X-0.512500X-0.150000X0.512500X-0.150000X0*%
G04 #@! TD*
G04 #@! TA.AperFunction,SMDPad,CuDef*
%ADD51RoundRect,0.135000X-0.185000X0.135000X-0.185000X-0.135000X0.185000X-0.135000X0.185000X0.135000X0*%
G04 #@! TD*
G04 #@! TA.AperFunction,ViaPad*
%ADD52C,0.800000*%
G04 #@! TD*
G04 #@! TA.AperFunction,Conductor*
%ADD53C,0.170000*%
G04 #@! TD*
G04 #@! TA.AperFunction,Conductor*
%ADD54C,0.100000*%
G04 #@! TD*
G04 #@! TA.AperFunction,Conductor*
%ADD55C,0.320000*%
G04 #@! TD*
G04 #@! TA.AperFunction,Conductor*
%ADD56C,0.500000*%
G04 #@! TD*
%ADD57C,0.350000*%
%ADD58C,0.300000*%
%ADD59C,0.200000*%
G04 APERTURE END LIST*
D10*
X24938500Y-23135500D02*
X26289000Y-24384000D01*
G04 #@! TA.AperFunction,NonConductor*
G36*
X35814000Y-19354800D02*
G01*
X32461200Y-19354800D01*
X32461200Y-19837400D01*
X35814000Y-19837400D01*
X35814000Y-19354800D01*
G37*
G04 #@! TD.AperFunction*
D11*
G04 #@! TA.AperFunction,NonConductor*
G36*
X21180000Y-25470000D02*
G01*
X21090000Y-25470000D01*
X20880000Y-24730000D01*
X21370000Y-24730000D01*
X21180000Y-25470000D01*
G37*
G04 #@! TD.AperFunction*
G04 #@! TA.AperFunction,EtchedComponent*
G04 #@! TO.C,AE1*
G36*
X23550000Y-18040000D02*
G01*
X25550000Y-18040000D01*
X25550000Y-15400000D01*
X28250000Y-15400000D01*
X28250000Y-18040000D01*
X30250000Y-18040000D01*
X30250000Y-15400000D01*
X32950000Y-15400000D01*
X32950000Y-19840000D01*
X32450000Y-19840000D01*
X32450000Y-15900000D01*
X30750000Y-15900000D01*
X30750000Y-18540000D01*
X27750000Y-18540000D01*
X27750000Y-15900000D01*
X26050000Y-15900000D01*
X26050000Y-18540000D01*
X23050000Y-18540000D01*
X23050000Y-15900000D01*
X21350000Y-15900000D01*
X21350000Y-20800000D01*
X20850000Y-20800000D01*
X20850000Y-15900000D01*
X19450000Y-15900000D01*
X19450000Y-20800000D01*
X18550000Y-20800000D01*
X18550000Y-20556785D01*
X18852417Y-20556785D01*
X18862258Y-20604395D01*
X18886326Y-20646797D01*
X18924269Y-20679581D01*
X18932181Y-20683935D01*
X18974844Y-20696043D01*
X19023363Y-20695300D01*
X19068878Y-20682400D01*
X19087489Y-20671787D01*
X19121132Y-20636553D01*
X19141691Y-20591368D01*
X19148222Y-20541842D01*
X19139782Y-20493583D01*
X19122888Y-20461357D01*
X19087628Y-20428687D01*
X19042318Y-20408592D01*
X18992733Y-20402018D01*
X18944647Y-20409908D01*
X18911755Y-20426814D01*
X18876815Y-20463584D01*
X18857153Y-20508378D01*
X18852417Y-20556785D01*
X18550000Y-20556785D01*
X18550000Y-15400000D01*
X23550000Y-15400000D01*
X23550000Y-18040000D01*
G37*
G04 #@! TD.AperFunction*
G04 #@! TD*
D12*
G04 #@! TO.P,Y1,4,4*
G04 #@! TO.N,GND*
X26337000Y-24257000D03*
G04 #@! TO.P,Y1,3,3*
G04 #@! TO.N,X32MO*
X24937000Y-24257000D03*
G04 #@! TO.P,Y1,2,2*
G04 #@! TO.N,GND*
X24937000Y-23157000D03*
G04 #@! TO.P,Y1,1,1*
G04 #@! TO.N,X32MI*
X26337000Y-23157000D03*
G04 #@! TD*
D13*
G04 #@! TO.P,Y2,1,1*
G04 #@! TO.N,X32KI*
X17600000Y-29700000D03*
G04 #@! TO.P,Y2,2,2*
G04 #@! TO.N,X32KO*
X17600000Y-28300000D03*
G04 #@! TD*
D14*
G04 #@! TO.P,L1,1*
G04 #@! TO.N,VSW*
X21000000Y-34900000D03*
G04 #@! TO.P,L1,2*
G04 #@! TO.N,VDCIA*
X21000000Y-37900000D03*
G04 #@! TD*
D15*
G04 #@! TO.P,L2,2*
G04 #@! TO.N,+3V3*
X25400000Y-34862000D03*
G04 #@! TO.P,L2,1*
G04 #@! TO.N,Net-(U4-SW)*
X25400000Y-36512000D03*
G04 #@! TD*
D16*
G04 #@! TO.P,GND1,1,1*
G04 #@! TO.N,GND*
X40767000Y-24257000D03*
D17*
X40767000Y-24257000D03*
G04 #@! TD*
D18*
G04 #@! TO.P,U1,1,SDO/SA0*
G04 #@! TO.N,GND*
X39999200Y-40787800D03*
G04 #@! TO.P,U1,2,SDx/AH1/Qvar1*
X39999200Y-41287800D03*
G04 #@! TO.P,U1,3,SCx/AH2/Qvar2*
X39999200Y-41787800D03*
G04 #@! TO.P,U1,4,INT1*
G04 #@! TO.N,INT1*
X39999200Y-42287800D03*
D19*
G04 #@! TO.P,U1,5,Vdd_IO*
G04 #@! TO.N,+3V3*
X40761700Y-42550300D03*
G04 #@! TO.P,U1,6,GND*
G04 #@! TO.N,GND*
X41261700Y-42550300D03*
G04 #@! TO.P,U1,7,GND*
X41761700Y-42550300D03*
D18*
G04 #@! TO.P,U1,8,Vdd*
G04 #@! TO.N,+3V3*
X42524200Y-42287800D03*
G04 #@! TO.P,U1,9,INT2*
G04 #@! TO.N,ICM_CLK*
X42524200Y-41787800D03*
G04 #@! TO.P,U1,10,OCS_Aux*
G04 #@! TO.N,unconnected-(U1-OCS_Aux-Pad10)*
X42524200Y-41287800D03*
G04 #@! TO.P,U1,11,SDO_Aux*
G04 #@! TO.N,unconnected-(U1-SDO_Aux-Pad11)*
X42524200Y-40787800D03*
D19*
G04 #@! TO.P,U1,12,CS*
G04 #@! TO.N,GND*
X41761700Y-40525300D03*
G04 #@! TO.P,U1,13,SCL*
G04 #@! TO.N,SCL*
X41261700Y-40525300D03*
G04 #@! TO.P,U1,14,SDA*
G04 #@! TO.N,SDA*
X40761700Y-40525300D03*
G04 #@! TD*
D20*
G04 #@! TO.P,J4,MP*
G04 #@! TO.N,N/C*
X43250000Y-28227000D03*
X43250000Y-35527000D03*
D21*
G04 #@! TO.P,J4,8,Pin_8*
G04 #@! TO.N,GND*
X40000000Y-30127000D03*
G04 #@! TO.P,J4,7,Pin_7*
G04 #@! TO.N,G_RST*
X40000000Y-30627000D03*
G04 #@! TO.P,J4,6,Pin_6*
G04 #@! TO.N,DCA1*
X40000000Y-31127000D03*
G04 #@! TO.P,J4,5,Pin_5*
G04 #@! TO.N,INT2{slash}DCA2*
X40000000Y-31627000D03*
G04 #@! TO.P,J4,4,Pin_4*
G04 #@! TO.N,SCL2*
X40000000Y-32127000D03*
G04 #@! TO.P,J4,3,Pin_3*
G04 #@! TO.N,/B+*
X40000000Y-32627000D03*
G04 #@! TO.P,J4,2,Pin_2*
G04 #@! TO.N,SDA2*
X40000000Y-33127000D03*
G04 #@! TO.P,J4,1,Pin_1*
G04 #@! TO.N,+3V3*
X40000000Y-33627000D03*
G04 #@! TD*
D22*
G04 #@! TO.P,AE1,1,A*
G04 #@! TO.N,Net-(AE1-A)*
X21100000Y-20550000D03*
D23*
G04 #@! TO.P,AE1,2,Shield*
G04 #@! TO.N,GND*
X19000000Y-20550000D03*
G04 #@! TD*
D24*
G04 #@! TO.P,R1,2*
G04 #@! TO.N,+5V*
X30097000Y-36830000D03*
G04 #@! TO.P,R1,1*
G04 #@! TO.N,Net-(Q1-B)*
X31117000Y-36830000D03*
G04 #@! TD*
D25*
G04 #@! TO.P,Q1,1,C*
G04 #@! TO.N,G_RST*
X36100000Y-33800000D03*
G04 #@! TO.P,Q1,2,B*
G04 #@! TO.N,Net-(Q1-B)*
X34200000Y-33800000D03*
G04 #@! TO.P,Q1,3,E*
G04 #@! TO.N,GND*
X35150000Y-35675000D03*
G04 #@! TD*
D26*
G04 #@! TO.P,J5,1,Pin_1*
G04 #@! TO.N,GND*
X17000000Y-44800000D03*
D27*
G04 #@! TO.P,J5,2,Pin_2*
G04 #@! TO.N,+5V*
X19540000Y-44800000D03*
G04 #@! TD*
D28*
G04 #@! TO.P,C3,1*
G04 #@! TO.N,GND*
X44000000Y-41239100D03*
G04 #@! TO.P,C3,2*
G04 #@! TO.N,+3V3*
X44000000Y-42199100D03*
G04 #@! TD*
D24*
G04 #@! TO.P,R13,1*
G04 #@! TO.N,GND*
X37721000Y-31500000D03*
G04 #@! TO.P,R13,2*
G04 #@! TO.N,Net-(D3-RK)*
X36701000Y-31500000D03*
G04 #@! TD*
D29*
G04 #@! TO.P,C8,1*
G04 #@! TO.N,GND*
X17849200Y-36716000D03*
G04 #@! TO.P,C8,2*
G04 #@! TO.N,VDCIA*
X17849200Y-35166000D03*
G04 #@! TD*
D30*
G04 #@! TO.P,R2,1*
G04 #@! TO.N,Net-(D1-A)*
X26240000Y-38250000D03*
G04 #@! TO.P,R2,2*
G04 #@! TO.N,+5V*
X27260000Y-38250000D03*
G04 #@! TD*
D31*
G04 #@! TO.P,C7,1*
G04 #@! TO.N,GND*
X21375000Y-32639000D03*
G04 #@! TO.P,C7,2*
G04 #@! TO.N,+3V3*
X19825000Y-32639000D03*
G04 #@! TD*
D24*
G04 #@! TO.P,R6,1*
G04 #@! TO.N,GND*
X37721000Y-28956000D03*
G04 #@! TO.P,R6,2*
G04 #@! TO.N,Net-(D3-BK)*
X36701000Y-28956000D03*
G04 #@! TD*
D32*
G04 #@! TO.P,AE2,2*
G04 #@! TO.N,N/C*
X16500000Y-16637800D03*
G04 #@! TO.P,AE2,1,Pin_1*
G04 #@! TO.N,/PANT*
X16500000Y-19537800D03*
G04 #@! TD*
D33*
G04 #@! TO.P,C4,1*
G04 #@! TO.N,GND*
X41764500Y-43776500D03*
G04 #@! TO.P,C4,2*
G04 #@! TO.N,+3V3*
X40804500Y-43776500D03*
G04 #@! TD*
D34*
G04 #@! TO.P,U3,49*
G04 #@! TO.N,N/C*
X23605482Y-26987800D03*
X22538815Y-26987800D03*
X21472149Y-26987800D03*
X20405482Y-26987800D03*
X23605482Y-28054467D03*
X22538815Y-28054467D03*
X21472149Y-28054467D03*
X20405482Y-28054467D03*
D35*
X22005482Y-28587800D03*
D34*
X23605482Y-29121133D03*
X22538815Y-29121133D03*
X21472149Y-29121133D03*
X20405482Y-29121133D03*
X23605482Y-30187800D03*
X22538815Y-30187800D03*
X21472149Y-30187800D03*
X20405482Y-30187800D03*
D36*
G04 #@! TO.P,U3,48,X32KI/TMR1*
G04 #@! TO.N,X32KI*
X19555482Y-30162800D03*
G04 #@! TO.P,U3,47,X32KO/TMR2*
G04 #@! TO.N,X32KO*
X19555482Y-29812800D03*
G04 #@! TO.P,U3,46,PA12/SCS*
G04 #@! TO.N,unconnected-(U3-PA12{slash}SCS-Pad46)*
X19555482Y-29462800D03*
G04 #@! TO.P,U3,45,PA13/SCKO*
G04 #@! TO.N,unconnected-(U3-PA13{slash}SCKO-Pad45)*
X19555482Y-29112800D03*
G04 #@! TO.P,U3,44,PA14/MOSI/TXD0_*
G04 #@! TO.N,unconnected-(U3-PA14{slash}MOSI{slash}TXD0_-Pad44)*
X19555482Y-28762800D03*
G04 #@! TO.P,U3,43,PA15/MISO/RXD0_*
G04 #@! TO.N,unconnected-(U3-PA15{slash}MISO{slash}RXD0_-Pad43)*
X19555482Y-28412800D03*
G04 #@! TO.P,U3,42,PA3*
G04 #@! TO.N,ADC*
X19555482Y-28062800D03*
G04 #@! TO.P,U3,41,PA2/TMR3_*
G04 #@! TO.N,unconnected-(U3-PA2{slash}TMR3_-Pad41)*
X19555482Y-27712800D03*
G04 #@! TO.P,U3,40,PA1*
G04 #@! TO.N,DCA1*
X19555482Y-27362800D03*
G04 #@! TO.P,U3,39,PA0*
G04 #@! TO.N,unconnected-(U3-PA0-Pad39)*
X19555482Y-27012800D03*
D37*
G04 #@! TO.P,U3,38,RXD2*
G04 #@! TO.N,unconnected-(U3-RXD2-Pad38)*
X19730482Y-26137800D03*
G04 #@! TO.P,U3,37,TXD3*
G04 #@! TO.N,unconnected-(U3-TXD3-Pad37)*
X20080482Y-26137800D03*
G04 #@! TO.P,U3,36,RXD3*
G04 #@! TO.N,unconnected-(U3-RXD3-Pad36)*
X20430482Y-26137800D03*
G04 #@! TO.P,U3,35,VDCIA*
G04 #@! TO.N,VDCIA*
X20780482Y-26137800D03*
G04 #@! TO.P,U3,34,ANT*
G04 #@! TO.N,ANT*
X21130482Y-26137800D03*
G04 #@! TO.P,U3,33,VINTA*
G04 #@! TO.N,Net-(U3-VINTA)*
X21480482Y-26137800D03*
G04 #@! TO.P,U3,32,X32MI*
G04 #@! TO.N,X32MI*
X21830482Y-26137800D03*
G04 #@! TO.P,U3,31,X32MO*
G04 #@! TO.N,X32MO*
X22180482Y-26137800D03*
G04 #@! TO.P,U3,30,PB18*
G04 #@! TO.N,unconnected-(U3-PB18-Pad30)*
X22530482Y-26137800D03*
G04 #@! TO.P,U3,29,PB19*
G04 #@! TO.N,unconnected-(U3-PB19-Pad29)*
X22880482Y-26137800D03*
G04 #@! TO.P,U3,28,SDA_/RXD3*
G04 #@! TO.N,unconnected-(U3-SDA_{slash}RXD3-Pad28)*
X23230482Y-26137800D03*
G04 #@! TO.P,U3,27,SCL_/TXD3*
G04 #@! TO.N,unconnected-(U3-SCL_{slash}TXD3-Pad27)*
X23580482Y-26137800D03*
G04 #@! TO.P,U3,26,TMR3/RXD2*
G04 #@! TO.N,unconnected-(U3-TMR3{slash}RXD2-Pad26)*
X23930482Y-26137800D03*
G04 #@! TO.P,U3,25,RST/TMRO_/TXD2*
G04 #@! TO.N,G_RST*
X24280482Y-26137800D03*
D36*
G04 #@! TO.P,U3,24,CTS/PB0*
G04 #@! TO.N,unconnected-(U3-CTS{slash}PB0-Pad24)*
X24455482Y-27012800D03*
G04 #@! TO.P,U3,23,DSR*
G04 #@! TO.N,unconnected-(U3-DSR-Pad23)*
X24455482Y-27362800D03*
G04 #@! TO.P,U3,22,RI*
G04 #@! TO.N,unconnected-(U3-RI-Pad22)*
X24455482Y-27712800D03*
G04 #@! TO.P,U3,21,DCD*
G04 #@! TO.N,unconnected-(U3-DCD-Pad21)*
X24455482Y-28062800D03*
G04 #@! TO.P,U3,20,RXD0*
G04 #@! TO.N,unconnected-(U3-RXD0-Pad20)*
X24455482Y-28412800D03*
G04 #@! TO.P,U3,19,DTR*
G04 #@! TO.N,unconnected-(U3-DTR-Pad19)*
X24455482Y-28762800D03*
G04 #@! TO.P,U3,18,RTS*
G04 #@! TO.N,unconnected-(U3-RTS-Pad18)*
X24455482Y-29112800D03*
G04 #@! TO.P,U3,17,TXD0*
G04 #@! TO.N,unconnected-(U3-TXD0-Pad17)*
X24455482Y-29462800D03*
G04 #@! TO.P,U3,16,UD-/TMR1*
G04 #@! TO.N,USB_D-*
X24455482Y-29812800D03*
G04 #@! TO.P,U3,15,UD+/TMR2*
G04 #@! TO.N,USB_D+*
X24455482Y-30162800D03*
D37*
G04 #@! TO.P,U3,14,U2D-/SDA/RXD1*
G04 #@! TO.N,SDA*
X24280482Y-31037800D03*
G04 #@! TO.P,U3,13,U2D+/SCL/TXD1*
G04 #@! TO.N,SCL*
X23930482Y-31037800D03*
G04 #@! TO.P,U3,12,MOSI_*
G04 #@! TO.N,INT1*
X23580482Y-31037800D03*
G04 #@! TO.P,U3,11,MISO_/DTR*
G04 #@! TO.N,unconnected-(U3-MISO_{slash}DTR-Pad11)*
X23230482Y-31037800D03*
G04 #@! TO.P,U3,10,PB16*
G04 #@! TO.N,Net-(D3-BA)*
X22880482Y-31037800D03*
G04 #@! TO.P,U3,9,PB17*
G04 #@! TO.N,Net-(D3-GA)*
X22530482Y-31037800D03*
G04 #@! TO.P,U3,8,PB8*
G04 #@! TO.N,Net-(D3-RA)*
X22180482Y-31037800D03*
G04 #@! TO.P,U3,7,PB9*
G04 #@! TO.N,unconnected-(U3-PB9-Pad7)*
X21830482Y-31037800D03*
G04 #@! TO.P,U3,6,TMR0/TXD1*
G04 #@! TO.N,unconnected-(U3-TMR0{slash}TXD1-Pad6)*
X21480482Y-31037800D03*
G04 #@! TO.P,U3,5,RXD1*
G04 #@! TO.N,unconnected-(U3-RXD1-Pad5)*
X21130482Y-31037800D03*
G04 #@! TO.P,U3,4,PA7/TXD2*
G04 #@! TO.N,unconnected-(U3-PA7{slash}TXD2-Pad4)*
X20780482Y-31037800D03*
G04 #@! TO.P,U3,3,VIO33/VDD33*
G04 #@! TO.N,+3V3*
X20430482Y-31037800D03*
G04 #@! TO.P,U3,2,VSW*
G04 #@! TO.N,VSW*
X20080482Y-31037800D03*
G04 #@! TO.P,U3,1,VDCID*
G04 #@! TO.N,VDCIA*
X19730482Y-31037800D03*
G04 #@! TD*
D38*
G04 #@! TO.P,J1,1,Pin_1*
G04 #@! TO.N,GND*
X30000000Y-44200000D03*
D39*
G04 #@! TO.P,J1,2,Pin_2*
G04 #@! TO.N,/B+*
X32000000Y-44200000D03*
G04 #@! TD*
D40*
G04 #@! TO.P,D3,1,RK*
G04 #@! TO.N,Net-(D3-RK)*
X34531000Y-31400000D03*
G04 #@! TO.P,D3,2,GK*
G04 #@! TO.N,Net-(D3-GK)*
X34531000Y-29700000D03*
G04 #@! TO.P,D3,3,BK*
G04 #@! TO.N,Net-(D3-BK)*
X34531000Y-28000000D03*
G04 #@! TO.P,D3,4,BA*
G04 #@! TO.N,Net-(D3-BA)*
X29731000Y-28000000D03*
G04 #@! TO.P,D3,5,GA*
G04 #@! TO.N,Net-(D3-GA)*
X29731000Y-29700000D03*
G04 #@! TO.P,D3,6,RA*
G04 #@! TO.N,Net-(D3-RA)*
X29731000Y-31400000D03*
G04 #@! TD*
D41*
G04 #@! TO.P,D1,1,K*
G04 #@! TO.N,Net-(D1-K)*
X27587500Y-39800000D03*
G04 #@! TO.P,D1,2,A*
G04 #@! TO.N,Net-(D1-A)*
X26012500Y-39800000D03*
G04 #@! TD*
D24*
G04 #@! TO.P,R8,1*
G04 #@! TO.N,GND*
X37721000Y-30226000D03*
G04 #@! TO.P,R8,2*
G04 #@! TO.N,Net-(D3-GK)*
X36701000Y-30226000D03*
G04 #@! TD*
D28*
G04 #@! TO.P,C2,1*
G04 #@! TO.N,GND*
X17780000Y-32794000D03*
G04 #@! TO.P,C2,2*
G04 #@! TO.N,VDCIA*
X17780000Y-33754000D03*
G04 #@! TD*
D30*
G04 #@! TO.P,R4,1*
G04 #@! TO.N,GND*
X30097000Y-38481000D03*
G04 #@! TO.P,R4,2*
G04 #@! TO.N,Net-(U2-PROG)*
X31117000Y-38481000D03*
G04 #@! TD*
D42*
G04 #@! TO.P,R10,1*
G04 #@! TO.N,ANT*
X20971248Y-24360624D03*
G04 #@! TO.P,R10,2*
G04 #@! TO.N,/PANT*
X20250000Y-23639376D03*
G04 #@! TD*
D43*
G04 #@! TO.P,U2,1,~{CHRG}*
G04 #@! TO.N,Net-(D1-K)*
X29424200Y-39837800D03*
G04 #@! TO.P,U2,2,GND*
G04 #@! TO.N,GND*
X29424200Y-40787800D03*
G04 #@! TO.P,U2,3,BAT*
G04 #@! TO.N,/B+*
X29424200Y-41737800D03*
G04 #@! TO.P,U2,4,VCC*
G04 #@! TO.N,+5V*
X31699200Y-41737800D03*
G04 #@! TO.P,U2,5,PROG*
G04 #@! TO.N,Net-(U2-PROG)*
X31699200Y-39837800D03*
G04 #@! TD*
D24*
G04 #@! TO.P,R12,1*
G04 #@! TO.N,Net-(U4-FB)*
X27260000Y-43250000D03*
G04 #@! TO.P,R12,2*
G04 #@! TO.N,+3V3*
X26240000Y-43250000D03*
G04 #@! TD*
D44*
G04 #@! TO.P,R16,1*
G04 #@! TO.N,ADC*
X16002000Y-33827800D03*
G04 #@! TO.P,R16,2*
G04 #@! TO.N,GND*
X16002000Y-32807800D03*
G04 #@! TD*
D45*
G04 #@! TO.P,J3,1,Pin_1*
G04 #@! TO.N,GND*
X45200000Y-22200000D03*
D46*
G04 #@! TO.P,J3,2,Pin_2*
G04 #@! TO.N,USB_D+*
X43403949Y-20403949D03*
G04 #@! TO.P,J3,3,Pin_3*
G04 #@! TO.N,USB_D-*
X41607898Y-18607898D03*
G04 #@! TO.P,J3,4,Pin_4*
G04 #@! TO.N,/B+*
X39811846Y-16811846D03*
G04 #@! TD*
D47*
G04 #@! TO.P,C9,1*
G04 #@! TO.N,GND*
X22725000Y-41750000D03*
G04 #@! TO.P,C9,2*
G04 #@! TO.N,+3V3*
X24275000Y-41750000D03*
G04 #@! TD*
D31*
G04 #@! TO.P,C6,1*
G04 #@! TO.N,GND*
X24275000Y-39800000D03*
G04 #@! TO.P,C6,2*
G04 #@! TO.N,Net-(D2-K)*
X22725000Y-39800000D03*
G04 #@! TD*
D48*
G04 #@! TO.P,D2,1,K*
G04 #@! TO.N,Net-(D2-K)*
X16256000Y-39852500D03*
G04 #@! TO.P,D2,2,A*
G04 #@! TO.N,/B+*
X16256000Y-41427500D03*
G04 #@! TD*
D49*
G04 #@! TO.P,C1,1*
G04 #@! TO.N,GND*
X23114000Y-21831000D03*
G04 #@! TO.P,C1,2*
G04 #@! TO.N,Net-(U3-VINTA)*
X23114000Y-23381000D03*
G04 #@! TD*
D50*
G04 #@! TO.P,U4,1,RUN*
G04 #@! TO.N,Net-(D2-K)*
X20441500Y-41717000D03*
G04 #@! TO.P,U4,2,GND*
G04 #@! TO.N,GND*
X20441500Y-40767000D03*
G04 #@! TO.P,U4,3,SW*
G04 #@! TO.N,Net-(U4-SW)*
X20441500Y-39817000D03*
G04 #@! TO.P,U4,4,VIN*
G04 #@! TO.N,Net-(D2-K)*
X18166500Y-39817000D03*
G04 #@! TO.P,U4,5,FB*
G04 #@! TO.N,Net-(U4-FB)*
X18166500Y-41717000D03*
G04 #@! TD*
D51*
G04 #@! TO.P,R5,1*
G04 #@! TO.N,+3V3*
X41767900Y-38251300D03*
G04 #@! TO.P,R5,2*
G04 #@! TO.N,SCL*
X41767900Y-39271300D03*
G04 #@! TD*
D47*
G04 #@! TO.P,C5,1*
G04 #@! TO.N,GND*
X26002100Y-41753000D03*
G04 #@! TO.P,C5,2*
G04 #@! TO.N,/B+*
X27552100Y-41753000D03*
G04 #@! TD*
D44*
G04 #@! TO.P,R14,1*
G04 #@! TO.N,/B+*
X16002000Y-38027800D03*
G04 #@! TO.P,R14,2*
G04 #@! TO.N,Net-(R14-Pad2)*
X16002000Y-37007800D03*
G04 #@! TD*
G04 #@! TO.P,R15,1*
G04 #@! TO.N,Net-(R14-Pad2)*
X16002000Y-35937800D03*
G04 #@! TO.P,R15,2*
G04 #@! TO.N,ADC*
X16002000Y-34917800D03*
G04 #@! TD*
G04 #@! TO.P,R9,1*
G04 #@! TO.N,ICM_CLK*
X16000000Y-29510000D03*
G04 #@! TO.P,R9,2*
G04 #@! TO.N,X32KO*
X16000000Y-28490000D03*
G04 #@! TD*
D51*
G04 #@! TO.P,R3,1*
G04 #@! TO.N,+3V3*
X40525100Y-38261300D03*
G04 #@! TO.P,R3,2*
G04 #@! TO.N,SDA*
X40525100Y-39281300D03*
G04 #@! TD*
D30*
G04 #@! TO.P,R11,1*
G04 #@! TO.N,GND*
X22990000Y-43250000D03*
G04 #@! TO.P,R11,2*
G04 #@! TO.N,Net-(U4-FB)*
X24010000Y-43250000D03*
G04 #@! TD*
D51*
G04 #@! TO.P,R7,1*
G04 #@! TO.N,Net-(AE1-A)*
X21125000Y-21740000D03*
G04 #@! TO.P,R7,2*
G04 #@! TO.N,ANT*
X21125000Y-22760000D03*
G04 #@! TD*
D52*
G04 #@! TO.N,GND*
X27590750Y-36417250D03*
G04 #@! TO.N,VDCIA*
X17222200Y-25377800D03*
G04 #@! TO.N,+3V3*
X40005000Y-43815000D03*
G04 #@! TO.N,GND*
X15494000Y-46355000D03*
X33020000Y-24003000D03*
X46101000Y-32258000D03*
X46101000Y-26670000D03*
X23749000Y-37719000D03*
X20955000Y-36449000D03*
X20955000Y-46355000D03*
X34798000Y-43688000D03*
X39370000Y-44831000D03*
X41275000Y-46101000D03*
X46101000Y-38481000D03*
X46101000Y-42418000D03*
X46101000Y-46101000D03*
X16002000Y-21082000D03*
X34290000Y-21082000D03*
X29718000Y-21082000D03*
X27686000Y-24003000D03*
G04 #@! TO.N,DCA1*
X41550500Y-30929361D03*
G04 #@! TO.N,GND*
X32893000Y-40767000D03*
X29083000Y-38481000D03*
X22225000Y-33050500D03*
X30734000Y-40767000D03*
X24683071Y-40696081D03*
X18034000Y-38100000D03*
G04 #@! TO.N,Net-(Q1-B)*
X30480000Y-34433500D03*
X33655000Y-35560000D03*
G04 #@! TO.N,SCL*
X37846000Y-40132000D03*
X42672000Y-39878000D03*
G04 #@! TO.N,GND*
X25273000Y-21082000D03*
G04 #@! TO.N,Net-(U4-FB)*
X17517709Y-40754353D03*
X21800000Y-43200000D03*
G04 #@! TO.N,+3V3*
X35941000Y-45466000D03*
G04 #@! TO.N,/B+*
X42418000Y-32131000D03*
X37800000Y-38400000D03*
G04 #@! TO.N,GND*
X34800000Y-37400000D03*
G04 #@! TO.N,G_RST*
X25654000Y-25982961D03*
X38578812Y-28223188D03*
G04 #@! TO.N,GND*
X36957000Y-27559000D03*
G04 #@! TO.N,DCA1*
X18496356Y-26289000D03*
G04 #@! TO.N,ADC*
X15800000Y-31600000D03*
X16357798Y-27134299D03*
G04 #@! TO.N,GND*
X27698000Y-45200000D03*
X44049500Y-40200000D03*
X43000000Y-43800000D03*
G04 #@! TO.N,ICM_CLK*
X43434000Y-39116000D03*
G04 #@! TO.N,GND*
X41275000Y-41529000D03*
X15875000Y-43000000D03*
G04 #@! TO.N,+3V3*
X23622000Y-34925000D03*
X25273000Y-43170500D03*
G04 #@! TO.N,/B+*
X39014266Y-20014266D03*
G04 #@! TO.N,ICM_CLK*
X17653000Y-31200000D03*
G04 #@! TD*
D53*
G04 #@! TO.N,USB_D+*
X43403949Y-20403949D02*
X40218315Y-20403949D01*
X28483221Y-25192000D02*
X26441498Y-27233723D01*
X40218315Y-20403949D02*
X35430264Y-25192000D01*
X35430264Y-25192000D02*
X28483221Y-25192000D01*
X26441498Y-27233723D02*
X26441498Y-29372632D01*
X26441498Y-29372632D02*
X25666330Y-30147800D01*
X25666330Y-30147800D02*
X25273000Y-30147800D01*
D54*
G04 #@! TO.N,VSW*
X20080482Y-31037800D02*
X20080482Y-31578036D01*
X20080482Y-31578036D02*
X19930673Y-31727845D01*
X19930673Y-31727845D02*
X19930673Y-31787664D01*
X19930673Y-31787664D02*
X19918337Y-31800000D01*
X19918337Y-31800000D02*
X19820673Y-31800000D01*
D55*
X21000000Y-34900000D02*
X20288893Y-34900000D01*
X20288893Y-34900000D02*
X18970000Y-33581107D01*
X18970000Y-33581107D02*
X18970000Y-32030000D01*
X18970000Y-32030000D02*
X19200000Y-31800000D01*
X19200000Y-31800000D02*
X19820673Y-31800000D01*
G04 #@! TO.N,+3V3*
X19825000Y-32639000D02*
X19939000Y-32639000D01*
X19939000Y-32639000D02*
X20340673Y-32237327D01*
X20340673Y-32237327D02*
X20340673Y-31897673D01*
D56*
G04 #@! TO.N,GND*
X21813500Y-32639000D02*
X21375000Y-32639000D01*
X22225000Y-33050500D02*
X21813500Y-32639000D01*
D53*
G04 #@! TO.N,Net-(D3-RA)*
X29731000Y-31400000D02*
X27685520Y-31400000D01*
X27685520Y-31400000D02*
X25776519Y-33309000D01*
X25776519Y-33309000D02*
X23523442Y-33309000D01*
X23523442Y-33309000D02*
X22577442Y-32363000D01*
X22577442Y-32363000D02*
X22573963Y-32363000D01*
X22573963Y-32363000D02*
X22160482Y-31949519D01*
X22160482Y-31949519D02*
X22160482Y-31667518D01*
D54*
X22180482Y-31037800D02*
X22180482Y-31667518D01*
D53*
G04 #@! TO.N,INT1*
X39999200Y-42287800D02*
X37441281Y-42287800D01*
X37441281Y-42287800D02*
X31761000Y-36607519D01*
X31388740Y-26324000D02*
X28921000Y-26324000D01*
X31761000Y-36607519D02*
X31761000Y-26696260D01*
X28921000Y-26324000D02*
X27652026Y-27592974D01*
X23580482Y-31796260D02*
X23580482Y-31780482D01*
X31761000Y-26696260D02*
X31388740Y-26324000D01*
X23919223Y-32135000D02*
X23580482Y-31796260D01*
X27652026Y-27592974D02*
X27652026Y-29767234D01*
X27652026Y-29767234D02*
X25284259Y-32135000D01*
X25284259Y-32135000D02*
X23919223Y-32135000D01*
G04 #@! TO.N,Net-(D3-GA)*
X29731000Y-29700000D02*
X28862260Y-29700000D01*
X28862260Y-29700000D02*
X25623260Y-32939000D01*
X25623260Y-32939000D02*
X23676702Y-32939000D01*
X23676702Y-32939000D02*
X22730702Y-31993000D01*
X22730702Y-31993000D02*
X22727223Y-31993000D01*
X22727223Y-31993000D02*
X22530482Y-31796259D01*
X22530482Y-31796259D02*
X22530482Y-31750000D01*
D54*
X22530482Y-31037800D02*
X22530482Y-31750000D01*
D53*
G04 #@! TO.N,Net-(D3-BA)*
X22883962Y-31623000D02*
X23765962Y-32505000D01*
X22880482Y-31623000D02*
X22883962Y-31623000D01*
X23765962Y-32505000D02*
X25534000Y-32505000D01*
X25534000Y-32505000D02*
X28022026Y-30016974D01*
X28022026Y-30016974D02*
X28022026Y-28492974D01*
X28022026Y-28492974D02*
X28515000Y-28000000D01*
X28515000Y-28000000D02*
X29731000Y-28000000D01*
D54*
X22880482Y-31037800D02*
X22880482Y-31623000D01*
G04 #@! TO.N,GND*
X24937000Y-23157000D02*
X25045000Y-23157000D01*
X26145000Y-24257000D02*
X26337000Y-24257000D01*
X25045000Y-23157000D02*
X26145000Y-24257000D01*
D53*
G04 #@! TO.N,USB_D-*
X26071498Y-28919502D02*
X25273000Y-29718000D01*
X26071498Y-26760502D02*
X26071498Y-28919502D01*
X28067000Y-24765000D02*
X26071498Y-26760502D01*
X41389371Y-18607898D02*
X35232269Y-24765000D01*
X35232269Y-24765000D02*
X28067000Y-24765000D01*
X41607898Y-18607898D02*
X41389371Y-18607898D01*
D54*
G04 #@! TO.N,USB_D+*
X24455482Y-30162800D02*
X25209200Y-30162800D01*
X25209200Y-30162800D02*
X25273000Y-30099000D01*
D53*
G04 #@! TO.N,SDA*
X40525100Y-39281300D02*
X35481300Y-39281300D01*
X32501000Y-26389740D02*
X31695258Y-25584000D01*
X28614480Y-25584000D02*
X26811498Y-27386982D01*
X35481300Y-39281300D02*
X32501000Y-36301000D01*
X32501000Y-36301000D02*
X32501000Y-26389740D01*
X26811498Y-27386982D02*
X26811498Y-29561242D01*
X26811498Y-29561242D02*
X25334940Y-31037800D01*
X31695258Y-25584000D02*
X28614480Y-25584000D01*
X25334940Y-31037800D02*
X24315482Y-31037800D01*
G04 #@! TO.N,SCL*
X37846000Y-40132000D02*
X35808740Y-40132000D01*
X35808740Y-40132000D02*
X32131000Y-36454260D01*
X32131000Y-36454260D02*
X32131000Y-26543000D01*
X27265000Y-27456740D02*
X27265000Y-29631000D01*
X32131000Y-26543000D02*
X31541999Y-25954000D01*
X31541999Y-25954000D02*
X28767740Y-25954000D01*
X27265000Y-29631000D02*
X25131000Y-31765000D01*
X28767740Y-25954000D02*
X27265000Y-27456740D01*
X24072482Y-31765000D02*
X23930482Y-31623000D01*
X25131000Y-31765000D02*
X24072482Y-31765000D01*
D54*
G04 #@! TO.N,USB_D-*
X24455482Y-29812800D02*
X25178200Y-29812800D01*
X25178200Y-29812800D02*
X25273000Y-29718000D01*
D53*
G04 #@! TO.N,G_RST*
X25654000Y-25982961D02*
X24435321Y-25982961D01*
X24315482Y-26102800D02*
X24315482Y-26137800D01*
X24435321Y-25982961D02*
X24315482Y-26102800D01*
D56*
G04 #@! TO.N,/B+*
X39014266Y-20014266D02*
X39811846Y-19216686D01*
X39811846Y-19216686D02*
X39811846Y-16811846D01*
G04 #@! TO.N,GND*
X36957000Y-27559000D02*
X37465000Y-27051000D01*
X40000000Y-28443000D02*
X40000000Y-30027000D01*
X37465000Y-27051000D02*
X38608000Y-27051000D01*
X38608000Y-27051000D02*
X40000000Y-28443000D01*
D55*
G04 #@! TO.N,+3V3*
X40000000Y-37736200D02*
X40000000Y-33637000D01*
D56*
G04 #@! TO.N,/B+*
X41910000Y-32639000D02*
X41275000Y-32639000D01*
X42418000Y-32131000D02*
X41910000Y-32639000D01*
D53*
G04 #@! TO.N,DCA1*
X41352861Y-31127000D02*
X40000000Y-31127000D01*
X41550500Y-30929361D02*
X41352861Y-31127000D01*
G04 #@! TO.N,/B+*
X40000000Y-32627000D02*
X41263000Y-32627000D01*
X41263000Y-32627000D02*
X41275000Y-32639000D01*
X38862000Y-33274000D02*
X38862000Y-32766000D01*
X38862000Y-32766000D02*
X39001000Y-32627000D01*
X39001000Y-32627000D02*
X40000000Y-32627000D01*
D56*
X38862000Y-33274000D02*
X38862000Y-37338000D01*
X38862000Y-37338000D02*
X37800000Y-38400000D01*
D53*
G04 #@! TO.N,G_RST*
X38327000Y-30607000D02*
X38327000Y-29432624D01*
X38327000Y-29432624D02*
X38578812Y-29180812D01*
X38578812Y-29180812D02*
X38578812Y-28223188D01*
X38347000Y-30627000D02*
X40000000Y-30627000D01*
X38327000Y-32666000D02*
X38327000Y-30607000D01*
X38327000Y-30607000D02*
X38347000Y-30627000D01*
D56*
G04 #@! TO.N,+3V3*
X25337000Y-34925000D02*
X25400000Y-34862000D01*
X23622000Y-34925000D02*
X25337000Y-34925000D01*
D55*
G04 #@! TO.N,Net-(U4-SW)*
X25400000Y-37794000D02*
X25400000Y-36512000D01*
X20441500Y-39817000D02*
X21448500Y-38810000D01*
X21448500Y-38810000D02*
X24384000Y-38810000D01*
X24384000Y-38810000D02*
X25400000Y-37794000D01*
D56*
G04 #@! TO.N,+3V3*
X22606000Y-33900000D02*
X20565000Y-33900000D01*
X23622000Y-34925000D02*
X23622000Y-34222000D01*
X23622000Y-34222000D02*
X23300000Y-33900000D01*
X23300000Y-33900000D02*
X22606000Y-33900000D01*
X20565000Y-33900000D02*
X19825000Y-33160000D01*
X19825000Y-33160000D02*
X19825000Y-32639000D01*
D55*
G04 #@! TO.N,VDCIA*
X17849200Y-35166000D02*
X17849200Y-35375200D01*
X17849200Y-35375200D02*
X20374000Y-37900000D01*
X20374000Y-37900000D02*
X21000000Y-37900000D01*
X17849200Y-35166000D02*
X17849200Y-33823200D01*
X17849200Y-33823200D02*
X17780000Y-33754000D01*
X17780000Y-33754000D02*
X17837107Y-33754000D01*
X17837107Y-33754000D02*
X18450000Y-33141107D01*
X18450000Y-33141107D02*
X18450000Y-32293000D01*
X18450000Y-32293000D02*
X18122400Y-31965400D01*
D54*
G04 #@! TO.N,Net-(D3-GK)*
X34531000Y-29700000D02*
X36175000Y-29700000D01*
X36175000Y-29700000D02*
X36701000Y-30226000D01*
G04 #@! TO.N,Net-(D3-BK)*
X34531000Y-28000000D02*
X35745000Y-28000000D01*
X35745000Y-28000000D02*
X36701000Y-28956000D01*
D56*
G04 #@! TO.N,GND*
X36957000Y-27559000D02*
X36957000Y-27940000D01*
X36957000Y-27940000D02*
X37721000Y-28704000D01*
X37721000Y-28704000D02*
X37721000Y-31500000D01*
D54*
G04 #@! TO.N,Net-(D3-RK)*
X36601000Y-31400000D02*
X36701000Y-31500000D01*
X34531000Y-31400000D02*
X36601000Y-31400000D01*
D53*
G04 #@! TO.N,G_RST*
X36100000Y-33800000D02*
X37193000Y-33800000D01*
X37193000Y-33800000D02*
X38327000Y-32666000D01*
D56*
G04 #@! TO.N,Net-(Q1-B)*
X30480000Y-34433500D02*
X30480000Y-35306000D01*
X30480000Y-35306000D02*
X31117000Y-35943000D01*
X31117000Y-35943000D02*
X31117000Y-36830000D01*
G04 #@! TO.N,+5V*
X30099000Y-37600000D02*
X31504000Y-37600000D01*
X28692000Y-37600000D02*
X30099000Y-37600000D01*
X30099000Y-36832000D02*
X30097000Y-36830000D01*
X30099000Y-37600000D02*
X30099000Y-36832000D01*
X27260000Y-38250000D02*
X28042000Y-38250000D01*
X31504000Y-37600000D02*
X34124000Y-40220000D01*
X28042000Y-38250000D02*
X28692000Y-37600000D01*
X33750000Y-46050000D02*
X27345918Y-46050000D01*
X34124000Y-40220000D02*
X34124000Y-45676000D01*
X34124000Y-45676000D02*
X33750000Y-46050000D01*
X27345918Y-46050000D02*
X26953918Y-45658000D01*
X26953918Y-45658000D02*
X21909000Y-45658000D01*
X21909000Y-45658000D02*
X21051000Y-44800000D01*
X21051000Y-44800000D02*
X19540000Y-44800000D01*
D55*
G04 #@! TO.N,GND*
X17780000Y-32794000D02*
X16764000Y-32794000D01*
X16764000Y-32794000D02*
X16015800Y-32794000D01*
X16764000Y-32794000D02*
X16764000Y-35560000D01*
X16764000Y-35560000D02*
X16891000Y-35687000D01*
X16015800Y-32794000D02*
X16002000Y-32807800D01*
G04 #@! TO.N,VDCIA*
X18006000Y-32081800D02*
X18566900Y-31520900D01*
X18566900Y-31520900D02*
X19050000Y-31037800D01*
D56*
G04 #@! TO.N,GND*
X17849200Y-36716000D02*
X17849200Y-36645200D01*
X17849200Y-36645200D02*
X16891000Y-35687000D01*
X18034000Y-38100000D02*
X18034000Y-36900800D01*
X18034000Y-36900800D02*
X17849200Y-36716000D01*
D55*
G04 #@! TO.N,ADC*
X16357798Y-27134299D02*
X16695097Y-26797000D01*
X16695097Y-26797000D02*
X17780000Y-26797000D01*
X17780000Y-26797000D02*
X18796000Y-27813000D01*
G04 #@! TO.N,VDCIA*
X18006000Y-32081800D02*
X17459997Y-32081800D01*
X17459997Y-32081800D02*
X15400000Y-30021803D01*
X15400000Y-30021803D02*
X15400000Y-30000000D01*
X15320000Y-29920000D02*
X15320000Y-27098000D01*
X15400000Y-30000000D02*
X15320000Y-29920000D01*
X17040200Y-25377800D02*
X17222200Y-25377800D01*
X15320000Y-27098000D02*
X17040200Y-25377800D01*
D53*
G04 #@! TO.N,DCA1*
X18496356Y-26289000D02*
X18496356Y-26884030D01*
X18496356Y-26884030D02*
X18856663Y-27244337D01*
D56*
G04 #@! TO.N,+3V3*
X40804500Y-43776500D02*
X40043500Y-43776500D01*
X40043500Y-43776500D02*
X40005000Y-43815000D01*
X25273000Y-43170500D02*
X25352500Y-43250000D01*
X25273000Y-43170500D02*
X25263500Y-43170500D01*
X25263500Y-43170500D02*
X24275000Y-42182000D01*
X24275000Y-42182000D02*
X24275000Y-41750000D01*
X25352500Y-43250000D02*
X26240000Y-43250000D01*
D55*
G04 #@! TO.N,Net-(R14-Pad2)*
X16002000Y-37007800D02*
X16002000Y-35937800D01*
G04 #@! TO.N,ADC*
X16002000Y-34917800D02*
X16002000Y-33827800D01*
G04 #@! TO.N,/B+*
X16002000Y-38027800D02*
X15421000Y-38608800D01*
X15421000Y-38608800D02*
X15421000Y-40592500D01*
X15421000Y-40592500D02*
X16256000Y-41427500D01*
D56*
X20441500Y-43200550D02*
X18029050Y-43200550D01*
X18029050Y-43200550D02*
X16256000Y-41427500D01*
G04 #@! TO.N,GND*
X15875000Y-43000000D02*
X17000000Y-44125000D01*
X17000000Y-44125000D02*
X17000000Y-44800000D01*
G04 #@! TO.N,Net-(U4-FB)*
X17517709Y-41068209D02*
X18166500Y-41717000D01*
X17517709Y-40754353D02*
X17517709Y-41068209D01*
G04 #@! TO.N,Net-(D2-K)*
X20441500Y-41717000D02*
X19677528Y-41717000D01*
X19677528Y-41717000D02*
X18166500Y-40205972D01*
X18166500Y-40205972D02*
X18166500Y-39817000D01*
X16256000Y-39852500D02*
X18131000Y-39852500D01*
X18131000Y-39852500D02*
X18166500Y-39817000D01*
D53*
G04 #@! TO.N,+3V3*
X40761700Y-42550300D02*
X40761700Y-43200000D01*
D56*
G04 #@! TO.N,Net-(AE1-A)*
X21100000Y-19825000D02*
X21100000Y-21605000D01*
D54*
G04 #@! TO.N,VDCIA*
X19050000Y-31037800D02*
X19730482Y-31037800D01*
D55*
G04 #@! TO.N,+3V3*
X44000000Y-42199100D02*
X44057107Y-42199100D01*
X44057107Y-42199100D02*
X44809500Y-41446707D01*
X44809500Y-41446707D02*
X44809500Y-39221500D01*
X43839300Y-38251300D02*
X40535100Y-38251300D01*
X40535100Y-38251300D02*
X40525100Y-38261300D01*
X44809500Y-39221500D02*
X43839300Y-38251300D01*
D53*
G04 #@! TO.N,SCL*
X41767900Y-39271300D02*
X42065300Y-39271300D01*
X42065300Y-39271300D02*
X42672000Y-39878000D01*
D54*
G04 #@! TO.N,Net-(U3-VINTA)*
X21530482Y-25174999D02*
X21629502Y-25075979D01*
D53*
X23114000Y-23591481D02*
X21765240Y-24940240D01*
X21765240Y-24940240D02*
X21629502Y-25075979D01*
D54*
X21480482Y-25587800D02*
X21530482Y-25537800D01*
X21530482Y-25537800D02*
X21530482Y-25174999D01*
D53*
X23114000Y-23381000D02*
X23114000Y-23591481D01*
G04 #@! TO.N,X32MI*
X26337000Y-23157000D02*
X26337000Y-22654000D01*
X24003000Y-22606000D02*
X24003000Y-23987740D01*
X26337000Y-22654000D02*
X26049000Y-22366000D01*
X26049000Y-22366000D02*
X24243000Y-22366000D01*
X24243000Y-22366000D02*
X24003000Y-22606000D01*
X24003000Y-23987740D02*
X22960740Y-25030000D01*
X22960740Y-25030000D02*
X22198740Y-25030000D01*
X22198740Y-25030000D02*
X21963370Y-25265371D01*
G04 #@! TO.N,X32MO*
X22225000Y-25527000D02*
X22352000Y-25400000D01*
X22352000Y-25400000D02*
X23113999Y-25400000D01*
X23113999Y-25400000D02*
X24257000Y-24257000D01*
X24257000Y-24257000D02*
X24937000Y-24257000D01*
D54*
X22225000Y-25527000D02*
X22180482Y-25571518D01*
X22180482Y-25571518D02*
X22180482Y-26137800D01*
G04 #@! TO.N,X32MI*
X21830482Y-25418782D02*
X21973632Y-25275632D01*
X21830482Y-26137800D02*
X21830482Y-25418782D01*
D53*
G04 #@! TO.N,X32KO*
X17600000Y-28300000D02*
X18013000Y-28300000D01*
X18013000Y-28300000D02*
X18669000Y-28956000D01*
X18669000Y-28956000D02*
X18669000Y-29591000D01*
X18669000Y-29591000D02*
X18796000Y-29718000D01*
G04 #@! TO.N,X32KI*
X17600000Y-29700000D02*
X18097800Y-30197800D01*
X18097800Y-30197800D02*
X19555482Y-30197800D01*
D54*
G04 #@! TO.N,X32KO*
X18796000Y-29718000D02*
X18890800Y-29812800D01*
X18890800Y-29812800D02*
X19555482Y-29812800D01*
D53*
X16000000Y-28490000D02*
X16169000Y-28321000D01*
X16169000Y-28321000D02*
X17579000Y-28321000D01*
X17579000Y-28321000D02*
X17600000Y-28300000D01*
G04 #@! TO.N,ICM_CLK*
X17653000Y-31200000D02*
X17611000Y-31200000D01*
X17611000Y-31200000D02*
X16000000Y-29589000D01*
X16000000Y-29589000D02*
X16000000Y-29510000D01*
X42524200Y-41787800D02*
X42921200Y-41787800D01*
X42921200Y-41787800D02*
X43364500Y-41344500D01*
X43364500Y-41344500D02*
X43364500Y-39185500D01*
X43364500Y-39185500D02*
X43434000Y-39116000D01*
G04 #@! TO.N,+3V3*
X43053000Y-42287800D02*
X42524200Y-42287800D01*
D55*
X43053000Y-42287800D02*
X43911300Y-42287800D01*
X43911300Y-42287800D02*
X44000000Y-42199100D01*
D56*
G04 #@! TO.N,GND*
X26002100Y-41753000D02*
X26967300Y-40787800D01*
X26967300Y-40787800D02*
X29424200Y-40787800D01*
G04 #@! TO.N,+3V3*
X35941000Y-45466000D02*
X38227000Y-45466000D01*
X38227000Y-45466000D02*
X38735000Y-45974000D01*
X38735000Y-45974000D02*
X40005000Y-45974000D01*
X40005000Y-45974000D02*
X40804500Y-45174500D01*
G04 #@! TO.N,GND*
X27686000Y-24003000D02*
X27432000Y-24257000D01*
X27432000Y-24257000D02*
X26337000Y-24257000D01*
X25273000Y-21082000D02*
X24524000Y-21831000D01*
X24524000Y-21831000D02*
X23114000Y-21831000D01*
D54*
G04 #@! TO.N,Net-(U3-VINTA)*
X21480482Y-26137800D02*
X21480482Y-25587800D01*
G04 #@! TO.N,DCA1*
X19555482Y-27362800D02*
X18975126Y-27362800D01*
X18975126Y-27362800D02*
X18856663Y-27244337D01*
G04 #@! TO.N,SCL*
X23930482Y-31623000D02*
X23930482Y-31037800D01*
G04 #@! TO.N,INT1*
X23580482Y-31037800D02*
X23580482Y-31780482D01*
D56*
G04 #@! TO.N,Net-(Q1-B)*
X33655000Y-35560000D02*
X34200000Y-35015000D01*
X34200000Y-35015000D02*
X34200000Y-33800000D01*
D53*
G04 #@! TO.N,SDA*
X40761700Y-40525300D02*
X40761700Y-39517900D01*
X40761700Y-39517900D02*
X40525100Y-39281300D01*
G04 #@! TO.N,SCL*
X41261700Y-39777500D02*
X41261700Y-40525300D01*
X41767900Y-39271300D02*
X41261700Y-39777500D01*
D56*
X42672000Y-39878000D02*
X42672000Y-39751000D01*
D55*
G04 #@! TO.N,+3V3*
X40525100Y-38261300D02*
X40000000Y-37736200D01*
D56*
X42963500Y-45174500D02*
X44069000Y-44069000D01*
X40804500Y-45174500D02*
X42963500Y-45174500D01*
X44069000Y-44069000D02*
X44069000Y-42268100D01*
X40804500Y-43776500D02*
X40804500Y-45174500D01*
D55*
G04 #@! TO.N,GND*
X41261700Y-42550300D02*
X41529000Y-42550300D01*
X41529000Y-42550300D02*
X41761700Y-42550300D01*
X41275000Y-41529000D02*
X41529000Y-41783000D01*
X41529000Y-41783000D02*
X41529000Y-42550300D01*
X41275000Y-41529000D02*
X41261700Y-41542300D01*
D56*
G04 #@! TO.N,Net-(U4-FB)*
X26409365Y-44258000D02*
X24003000Y-44258000D01*
X24003000Y-44258000D02*
X22850685Y-44258000D01*
X24010000Y-43250000D02*
X24010000Y-44251000D01*
X24010000Y-44251000D02*
X24003000Y-44258000D01*
X27260000Y-43250000D02*
X27260000Y-43407365D01*
X21800000Y-43207315D02*
X21800000Y-43200000D01*
X27260000Y-43407365D02*
X26409365Y-44258000D01*
X22850685Y-44258000D02*
X21800000Y-43207315D01*
G04 #@! TO.N,/B+*
X28321000Y-41737800D02*
X28321000Y-43336315D01*
X28321000Y-43336315D02*
X26699315Y-44958000D01*
X26699315Y-44958000D02*
X22198950Y-44958000D01*
X22198950Y-44958000D02*
X20441500Y-43200550D01*
G04 #@! TO.N,/PANT*
X20250000Y-23639376D02*
X20210376Y-23639376D01*
X20210376Y-23639376D02*
X16500000Y-19929000D01*
X16500000Y-19929000D02*
X16500000Y-19537800D01*
D54*
G04 #@! TO.N,VDCIA*
X20780482Y-26137800D02*
X20780482Y-25607972D01*
X20780482Y-25607972D02*
X20550310Y-25377800D01*
D55*
X17222200Y-25377800D02*
X20550310Y-25377800D01*
D54*
G04 #@! TO.N,+3V3*
X20430482Y-31793782D02*
X20333632Y-31890632D01*
X20430482Y-31793782D02*
X20430482Y-31037800D01*
D56*
X40761700Y-43733700D02*
X40761700Y-43200000D01*
G04 #@! TO.N,Net-(U2-PROG)*
X31699200Y-39837800D02*
X31699200Y-39063200D01*
X31699200Y-39063200D02*
X31117000Y-38481000D01*
G04 #@! TO.N,GND*
X30097000Y-38481000D02*
X29083000Y-38481000D01*
G04 #@! TO.N,Net-(D1-K)*
X27587500Y-39800000D02*
X29386400Y-39800000D01*
X29386400Y-39800000D02*
X29424200Y-39837800D01*
G04 #@! TO.N,Net-(D1-A)*
X26012500Y-39800000D02*
X26012500Y-38477500D01*
X26012500Y-38477500D02*
X26240000Y-38250000D01*
D54*
G04 #@! TO.N,ADC*
X19045800Y-28062800D02*
X18796000Y-27813000D01*
X19555482Y-28062800D02*
X19045800Y-28062800D01*
D55*
X15800000Y-31600000D02*
X15322000Y-32078000D01*
X15322000Y-32078000D02*
X15322000Y-33147800D01*
X15322000Y-33147800D02*
X16002000Y-33827800D01*
D56*
G04 #@! TO.N,Net-(D2-K)*
X20441500Y-41717000D02*
X21202264Y-41717000D01*
X21202264Y-41717000D02*
X21717000Y-41202264D01*
X21717000Y-41202264D02*
X21717000Y-40386000D01*
X21717000Y-40386000D02*
X22303000Y-39800000D01*
X22303000Y-39800000D02*
X22725000Y-39800000D01*
G04 #@! TO.N,GND*
X18034000Y-38173472D02*
X19279000Y-39418472D01*
X18034000Y-38100000D02*
X18034000Y-38173472D01*
X19279000Y-39418472D02*
X19279000Y-40165528D01*
X19279000Y-40165528D02*
X19880472Y-40767000D01*
X19880472Y-40767000D02*
X20441500Y-40767000D01*
X27698000Y-45200000D02*
X28698000Y-44200000D01*
X28698000Y-44200000D02*
X30000000Y-44200000D01*
G04 #@! TO.N,/B+*
X28321000Y-41737800D02*
X27567300Y-41737800D01*
X29424200Y-41737800D02*
X28321000Y-41737800D01*
X27567300Y-41737800D02*
X27552100Y-41753000D01*
X29424200Y-41737800D02*
X29537800Y-41737800D01*
X29537800Y-41737800D02*
X32000000Y-44200000D01*
G04 #@! TO.N,+5V*
X31699200Y-41737800D02*
X33918200Y-41737800D01*
D54*
X34000000Y-41656000D02*
X34000000Y-41737800D01*
D56*
G04 #@! TO.N,GND*
X34800000Y-37400000D02*
X35150000Y-37050000D01*
X35150000Y-37050000D02*
X35150000Y-35675000D01*
D55*
X39999200Y-41287800D02*
X41033800Y-41287800D01*
X41033800Y-41287800D02*
X41275000Y-41529000D01*
X39999200Y-40787800D02*
X39999200Y-41787800D01*
X41761700Y-40525300D02*
X41761700Y-41042300D01*
X41761700Y-41042300D02*
X41275000Y-41529000D01*
D56*
X44000000Y-41239100D02*
X44000000Y-40249500D01*
X44000000Y-40249500D02*
X44049500Y-40200000D01*
X41764500Y-43776500D02*
X42976500Y-43776500D01*
X42976500Y-43776500D02*
X43000000Y-43800000D01*
X30713200Y-40787800D02*
X30734000Y-40767000D01*
X29424200Y-40787800D02*
X30713200Y-40787800D01*
X24275000Y-39800000D02*
X24275000Y-40025900D01*
X24275000Y-40025900D02*
X26002100Y-41753000D01*
X22725000Y-41750000D02*
X22725000Y-41535000D01*
X22725000Y-41535000D02*
X24275000Y-39985000D01*
X24275000Y-39985000D02*
X24275000Y-39800000D01*
X22990000Y-43250000D02*
X22720000Y-42980000D01*
X22720000Y-42980000D02*
X22720000Y-41755000D01*
X22720000Y-41755000D02*
X22725000Y-41750000D01*
D54*
G04 #@! TO.N,ANT*
X21130482Y-26137800D02*
X21130482Y-24919518D01*
X21130482Y-24919518D02*
X21250000Y-24800000D01*
D56*
X21125000Y-22920000D02*
X21125000Y-24700000D01*
G04 #@! TD*
G04 #@! TA.AperFunction,Conductor*
G04 #@! TO.N,GND*
G36*
X15205703Y-41311737D02*
G01*
X15212181Y-41317769D01*
X15244181Y-41349769D01*
X15277666Y-41411092D01*
X15280500Y-41437449D01*
X15280500Y-41694174D01*
X15280818Y-41697287D01*
X15280819Y-41697306D01*
X15290563Y-41792685D01*
X15343450Y-41952285D01*
X15431720Y-42095393D01*
X15550606Y-42214279D01*
X15550608Y-42214280D01*
X15550609Y-42214281D01*
X15693713Y-42302549D01*
X15721320Y-42311697D01*
X15853314Y-42355436D01*
X15948693Y-42365180D01*
X15948694Y-42365180D01*
X15951826Y-42365500D01*
X16081270Y-42365500D01*
X16148309Y-42385185D01*
X16168951Y-42401819D01*
X16792877Y-43025745D01*
X17213681Y-43446548D01*
X17247166Y-43507871D01*
X17250000Y-43534229D01*
X17250000Y-44364498D01*
X17142315Y-44315320D01*
X17035763Y-44300000D01*
X16964237Y-44300000D01*
X16857685Y-44315320D01*
X16749999Y-44364498D01*
X16750000Y-43450000D01*
X16105482Y-43450000D01*
X16098867Y-43450354D01*
X16042628Y-43456400D01*
X15907910Y-43506647D01*
X15792811Y-43592811D01*
X15706647Y-43707910D01*
X15656400Y-43842628D01*
X15650354Y-43898867D01*
X15650000Y-43905481D01*
X15649999Y-44549999D01*
X15650000Y-44550000D01*
X16566314Y-44550000D01*
X16540507Y-44590156D01*
X16500000Y-44728111D01*
X16500000Y-44871889D01*
X16540507Y-45009844D01*
X16566314Y-45050000D01*
X15650000Y-45050000D01*
X15650000Y-45694518D01*
X15650354Y-45701132D01*
X15656400Y-45757371D01*
X15706647Y-45892089D01*
X15792811Y-46007188D01*
X15907910Y-46093352D01*
X16042628Y-46143599D01*
X16098867Y-46149645D01*
X16105482Y-46150000D01*
X16749999Y-46150000D01*
X16749999Y-45235501D01*
X16857685Y-45284680D01*
X16964237Y-45300000D01*
X17035763Y-45300000D01*
X17142315Y-45284680D01*
X17250000Y-45235501D01*
X17250000Y-46150000D01*
X17894518Y-46150000D01*
X17901132Y-46149645D01*
X17957371Y-46143599D01*
X18092089Y-46093352D01*
X18207188Y-46007188D01*
X18293352Y-45892089D01*
X18342422Y-45760528D01*
X18384294Y-45704595D01*
X18449758Y-45680178D01*
X18518031Y-45695030D01*
X18546285Y-45716181D01*
X18668599Y-45838495D01*
X18862170Y-45974035D01*
X19076337Y-46073903D01*
X19304592Y-46135062D01*
X19304592Y-46135063D01*
X19539999Y-46155659D01*
X19539999Y-46155658D01*
X19540000Y-46155659D01*
X19775408Y-46135063D01*
X20003663Y-46073903D01*
X20217830Y-45974035D01*
X20411401Y-45838495D01*
X20578495Y-45671401D01*
X20610094Y-45626272D01*
X20664668Y-45582649D01*
X20734166Y-45575455D01*
X20796521Y-45606977D01*
X20799348Y-45609716D01*
X21333269Y-46143637D01*
X21345049Y-46157268D01*
X21359389Y-46176529D01*
X21397339Y-46208373D01*
X21405314Y-46215681D01*
X21409223Y-46219590D01*
X21412055Y-46221829D01*
X21412065Y-46221838D01*
X21433542Y-46238819D01*
X21436298Y-46241063D01*
X21493786Y-46289302D01*
X21493788Y-46289303D01*
X21494757Y-46290116D01*
X21511177Y-46300576D01*
X21512321Y-46301109D01*
X21512323Y-46301111D01*
X21580357Y-46332835D01*
X21583456Y-46334335D01*
X21647501Y-46366500D01*
X21651704Y-46368611D01*
X21670084Y-46374998D01*
X21671321Y-46375253D01*
X21671327Y-46375256D01*
X21744862Y-46390439D01*
X21748209Y-46391181D01*
X21821279Y-46408500D01*
X21821281Y-46408500D01*
X21822505Y-46408790D01*
X21841876Y-46410769D01*
X21843140Y-46410732D01*
X21843144Y-46410733D01*
X21918110Y-46408552D01*
X21921716Y-46408500D01*
X26591688Y-46408500D01*
X26658727Y-46428185D01*
X26679369Y-46444819D01*
X26770187Y-46535637D01*
X26781969Y-46549270D01*
X26796308Y-46568531D01*
X26834256Y-46600373D01*
X26842231Y-46607681D01*
X26846141Y-46611591D01*
X26870474Y-46630830D01*
X26873253Y-46633095D01*
X26931670Y-46682113D01*
X26948095Y-46692576D01*
X26949239Y-46693109D01*
X26949241Y-46693111D01*
X26977394Y-46706239D01*
X27029833Y-46752409D01*
X27048986Y-46819602D01*
X27028772Y-46886484D01*
X26975607Y-46931820D01*
X26925482Y-46942620D01*
X15124992Y-46989447D01*
X15057875Y-46970029D01*
X15011911Y-46917407D01*
X15000500Y-46865448D01*
X15000500Y-41405450D01*
X15020185Y-41338411D01*
X15072989Y-41292656D01*
X15142147Y-41282712D01*
X15205703Y-41311737D01*
G37*
G04 #@! TD.AperFunction*
G04 #@! TA.AperFunction,Conductor*
G36*
X15236509Y-20339685D02*
G01*
X15257152Y-20356319D01*
X15257286Y-20356453D01*
X15257288Y-20356456D01*
X15344832Y-20444000D01*
X15381345Y-20480513D01*
X15421109Y-20505039D01*
X15530666Y-20572614D01*
X15642016Y-20609512D01*
X15697202Y-20627799D01*
X15796858Y-20637980D01*
X15796859Y-20637980D01*
X15799991Y-20638300D01*
X16096569Y-20638299D01*
X16163608Y-20657983D01*
X16184250Y-20674618D01*
X19425433Y-23915801D01*
X19446413Y-23943743D01*
X19505509Y-24051238D01*
X19528977Y-24078715D01*
X19810661Y-24360398D01*
X19812525Y-24361990D01*
X19812526Y-24361991D01*
X19838138Y-24383867D01*
X19978842Y-24461219D01*
X20025487Y-24473196D01*
X20085525Y-24508934D01*
X20116711Y-24571457D01*
X20109143Y-24640916D01*
X20065225Y-24695257D01*
X19998899Y-24717227D01*
X19994650Y-24717300D01*
X17885412Y-24717300D01*
X17818373Y-24697615D01*
X17812527Y-24693618D01*
X17674930Y-24593648D01*
X17502002Y-24516655D01*
X17316848Y-24477300D01*
X17316846Y-24477300D01*
X17127554Y-24477300D01*
X17127552Y-24477300D01*
X16942397Y-24516655D01*
X16769469Y-24593648D01*
X16616329Y-24704910D01*
X16489665Y-24845585D01*
X16395021Y-25009515D01*
X16366015Y-25098782D01*
X16335766Y-25148143D01*
X15212181Y-26271729D01*
X15150858Y-26305214D01*
X15081166Y-26300230D01*
X15025233Y-26258358D01*
X15000816Y-26192894D01*
X15000500Y-26184048D01*
X15000500Y-20444000D01*
X15020185Y-20376961D01*
X15072989Y-20331206D01*
X15124500Y-20320000D01*
X15169470Y-20320000D01*
X15236509Y-20339685D01*
G37*
G04 #@! TD.AperFunction*
G04 #@! TA.AperFunction,Conductor*
G36*
X32289635Y-20324432D02*
G01*
X32289895Y-20322627D01*
X32307541Y-20325164D01*
X32307543Y-20325165D01*
X32334570Y-20329051D01*
X32351849Y-20332810D01*
X32378039Y-20340500D01*
X33030561Y-20340500D01*
X33048644Y-20337900D01*
X35885960Y-20337900D01*
X35885961Y-20337900D01*
X35912156Y-20330208D01*
X35929429Y-20326450D01*
X35956457Y-20322565D01*
X35956457Y-20322564D01*
X35965520Y-20321262D01*
X35983164Y-20320000D01*
X38079382Y-20320000D01*
X38146421Y-20339685D01*
X38186769Y-20382000D01*
X38281732Y-20546482D01*
X38408393Y-20687153D01*
X38478553Y-20738127D01*
X38521218Y-20793457D01*
X38527197Y-20863071D01*
X38494591Y-20924865D01*
X38493348Y-20926126D01*
X35114294Y-24305181D01*
X35052971Y-24338666D01*
X35026613Y-24341500D01*
X28165976Y-24341500D01*
X28161743Y-24341428D01*
X28097627Y-24339237D01*
X28057709Y-24348965D01*
X28045238Y-24351335D01*
X28004532Y-24356930D01*
X27988066Y-24364082D01*
X27968032Y-24370818D01*
X27950604Y-24375065D01*
X27914787Y-24395203D01*
X27903424Y-24400847D01*
X27865731Y-24417220D01*
X27851812Y-24428545D01*
X27834337Y-24440439D01*
X27818693Y-24449235D01*
X27789639Y-24478288D01*
X27780218Y-24486791D01*
X27748345Y-24512722D01*
X27737993Y-24527387D01*
X27724373Y-24543554D01*
X27498681Y-24769247D01*
X27437358Y-24802732D01*
X27367667Y-24797748D01*
X27311733Y-24755877D01*
X27287316Y-24690412D01*
X27287000Y-24681566D01*
X27287000Y-24507000D01*
X26211000Y-24507000D01*
X26143961Y-24487315D01*
X26098206Y-24434511D01*
X26087000Y-24383000D01*
X26087000Y-24181499D01*
X26106685Y-24114460D01*
X26159489Y-24068705D01*
X26211000Y-24057499D01*
X26831561Y-24057499D01*
X26834872Y-24057499D01*
X26894483Y-24051091D01*
X26991736Y-24014817D01*
X27035069Y-24007000D01*
X27287000Y-24007000D01*
X27287000Y-23812481D01*
X27286646Y-23805885D01*
X27278933Y-23734138D01*
X27279912Y-23734032D01*
X27276142Y-23681362D01*
X27281086Y-23664526D01*
X27281091Y-23664483D01*
X27287500Y-23604873D01*
X27287499Y-22709128D01*
X27281091Y-22649517D01*
X27230796Y-22514669D01*
X27144546Y-22399454D01*
X27029331Y-22313204D01*
X26894483Y-22262909D01*
X26834873Y-22256500D01*
X26831551Y-22256500D01*
X26822847Y-22256500D01*
X26755808Y-22236815D01*
X26747373Y-22230884D01*
X26730318Y-22217797D01*
X26718131Y-22207109D01*
X26495891Y-21984869D01*
X26485196Y-21972674D01*
X26466584Y-21948418D01*
X26404323Y-21900643D01*
X26344276Y-21854567D01*
X26344275Y-21854566D01*
X26344273Y-21854565D01*
X26201847Y-21795571D01*
X26087373Y-21780500D01*
X26049000Y-21775447D01*
X26018686Y-21779439D01*
X26002500Y-21780500D01*
X24289493Y-21780500D01*
X24273308Y-21779439D01*
X24243000Y-21775448D01*
X24229181Y-21777268D01*
X24160146Y-21766500D01*
X24107892Y-21720119D01*
X24088999Y-21654328D01*
X24088999Y-21560834D01*
X24088678Y-21554552D01*
X24078856Y-21458394D01*
X24025546Y-21297513D01*
X23936573Y-21153267D01*
X23816732Y-21033426D01*
X23672486Y-20944453D01*
X23511606Y-20891143D01*
X23415445Y-20881319D01*
X23409168Y-20881000D01*
X23364000Y-20881000D01*
X23364000Y-21957000D01*
X23344315Y-22024039D01*
X23291511Y-22069794D01*
X23240000Y-22081000D01*
X22988000Y-22081000D01*
X22920961Y-22061315D01*
X22875206Y-22008511D01*
X22864000Y-21957000D01*
X22863999Y-20881000D01*
X22818835Y-20881000D01*
X22812551Y-20881321D01*
X22716394Y-20891143D01*
X22555513Y-20944453D01*
X22411267Y-21033426D01*
X22291426Y-21153267D01*
X22202453Y-21297513D01*
X22157424Y-21433403D01*
X22117651Y-21490848D01*
X22053135Y-21517671D01*
X21984359Y-21505356D01*
X21933160Y-21457813D01*
X21920644Y-21429001D01*
X21897869Y-21350607D01*
X21867768Y-21299708D01*
X21850500Y-21236587D01*
X21850500Y-20444000D01*
X21870185Y-20376961D01*
X21922989Y-20331206D01*
X21974500Y-20320000D01*
X32269258Y-20320000D01*
X32289635Y-20324432D01*
G37*
G04 #@! TD.AperFunction*
G04 #@! TA.AperFunction,Conductor*
G36*
X42158581Y-20974134D02*
G01*
X42203923Y-21026042D01*
X42229914Y-21081779D01*
X42365454Y-21275350D01*
X42532548Y-21442444D01*
X42726119Y-21577984D01*
X42940286Y-21677852D01*
X43168540Y-21739011D01*
X43168541Y-21739012D01*
X43403948Y-21759608D01*
X43403948Y-21759607D01*
X43403949Y-21759608D01*
X43415095Y-21758632D01*
X43447568Y-21755792D01*
X43516068Y-21769558D01*
X43566251Y-21818173D01*
X43582185Y-21886202D01*
X43571170Y-21930832D01*
X43513237Y-22057684D01*
X43492776Y-22200000D01*
X43513237Y-22342315D01*
X43572965Y-22473098D01*
X43608467Y-22517154D01*
X43612892Y-22522080D01*
X44068629Y-22977817D01*
X44716922Y-22329523D01*
X44740507Y-22409844D01*
X44818239Y-22530798D01*
X44926900Y-22624952D01*
X45057685Y-22684680D01*
X45067466Y-22686086D01*
X44422182Y-23331369D01*
X44877919Y-23787107D01*
X44882845Y-23791532D01*
X44926901Y-23827034D01*
X45057684Y-23886762D01*
X45200000Y-23907223D01*
X45342315Y-23886762D01*
X45473098Y-23827034D01*
X45517154Y-23791532D01*
X45522080Y-23787107D01*
X45977817Y-23331370D01*
X45977817Y-23331369D01*
X45332533Y-22686086D01*
X45342315Y-22684680D01*
X45473100Y-22624952D01*
X45581761Y-22530798D01*
X45659493Y-22409844D01*
X45683076Y-22329524D01*
X46331369Y-22977817D01*
X46331370Y-22977817D01*
X46778319Y-22530868D01*
X46839642Y-22497383D01*
X46909334Y-22502367D01*
X46965267Y-22544239D01*
X46989684Y-22609703D01*
X46990000Y-22618549D01*
X46990000Y-46739491D01*
X46970315Y-46806530D01*
X46917511Y-46852285D01*
X46866492Y-46863490D01*
X40388562Y-46889196D01*
X40321445Y-46869778D01*
X40275481Y-46817156D01*
X40265263Y-46748037D01*
X40294036Y-46684367D01*
X40332420Y-46657829D01*
X40332007Y-46657202D01*
X40365918Y-46634898D01*
X40406806Y-46608005D01*
X40409798Y-46606099D01*
X40473656Y-46566712D01*
X40473656Y-46566711D01*
X40474729Y-46566050D01*
X40489824Y-46553753D01*
X40490692Y-46552832D01*
X40490696Y-46552830D01*
X40542184Y-46498254D01*
X40544629Y-46495737D01*
X41079048Y-45961319D01*
X41140372Y-45927834D01*
X41166730Y-45925000D01*
X42899794Y-45925000D01*
X42917764Y-45926309D01*
X42921820Y-45926902D01*
X42941523Y-45929789D01*
X42990868Y-45925472D01*
X43001676Y-45925000D01*
X43003600Y-45925000D01*
X43007209Y-45925000D01*
X43038050Y-45921394D01*
X43041531Y-45921039D01*
X43116297Y-45914499D01*
X43116297Y-45914498D01*
X43117552Y-45914389D01*
X43136562Y-45910174D01*
X43137750Y-45909741D01*
X43137755Y-45909741D01*
X43208320Y-45884057D01*
X43211595Y-45882919D01*
X43282834Y-45859314D01*
X43282836Y-45859312D01*
X43284036Y-45858915D01*
X43301563Y-45850429D01*
X43302612Y-45849738D01*
X43302617Y-45849737D01*
X43365306Y-45808505D01*
X43368298Y-45806599D01*
X43432156Y-45767212D01*
X43432156Y-45767211D01*
X43433229Y-45766550D01*
X43448324Y-45754253D01*
X43449192Y-45753332D01*
X43449196Y-45753330D01*
X43500684Y-45698754D01*
X43503130Y-45696236D01*
X44554642Y-44644724D01*
X44568260Y-44632954D01*
X44587530Y-44618610D01*
X44619366Y-44580667D01*
X44626680Y-44572688D01*
X44627264Y-44572103D01*
X44630591Y-44568777D01*
X44649833Y-44544439D01*
X44652090Y-44541670D01*
X44696210Y-44489090D01*
X44700302Y-44484214D01*
X44700303Y-44484211D01*
X44701115Y-44483244D01*
X44711573Y-44466827D01*
X44712106Y-44465682D01*
X44712111Y-44465677D01*
X44743833Y-44397646D01*
X44745362Y-44394488D01*
X44779040Y-44327433D01*
X44779040Y-44327432D01*
X44779612Y-44326294D01*
X44786000Y-44307914D01*
X44786255Y-44306675D01*
X44786257Y-44306673D01*
X44801433Y-44233168D01*
X44802194Y-44229734D01*
X44819500Y-44156721D01*
X44819500Y-44156716D01*
X44819790Y-44155493D01*
X44821769Y-44136123D01*
X44821732Y-44134859D01*
X44821733Y-44134856D01*
X44819552Y-44059888D01*
X44819500Y-44056283D01*
X44819500Y-42422156D01*
X44839185Y-42355117D01*
X44855815Y-42334479D01*
X45259804Y-41930489D01*
X45265223Y-41925388D01*
X45307522Y-41887916D01*
X45339616Y-41841418D01*
X45344041Y-41835405D01*
X45378895Y-41790918D01*
X45382553Y-41782788D01*
X45393573Y-41763248D01*
X45398639Y-41755911D01*
X45418675Y-41703074D01*
X45421540Y-41696161D01*
X45422435Y-41694174D01*
X45444724Y-41644651D01*
X45446328Y-41635895D01*
X45452357Y-41614267D01*
X45455517Y-41605936D01*
X45462327Y-41549841D01*
X45463453Y-41542441D01*
X45464304Y-41537799D01*
X45473636Y-41486880D01*
X45470226Y-41430501D01*
X45470000Y-41423015D01*
X45470000Y-39245201D01*
X45470226Y-39237714D01*
X45470226Y-39237713D01*
X45473637Y-39181327D01*
X45463450Y-39125746D01*
X45462325Y-39118346D01*
X45460340Y-39102000D01*
X45455517Y-39062271D01*
X45452356Y-39053938D01*
X45446328Y-39032312D01*
X45446118Y-39031165D01*
X45444724Y-39023556D01*
X45421544Y-38972053D01*
X45418677Y-38965132D01*
X45398640Y-38912299D01*
X45398639Y-38912296D01*
X45393571Y-38904954D01*
X45382552Y-38885416D01*
X45378895Y-38877289D01*
X45353047Y-38844297D01*
X45344049Y-38832811D01*
X45339619Y-38826791D01*
X45307522Y-38780291D01*
X45300748Y-38774290D01*
X45265242Y-38742834D01*
X45259788Y-38737700D01*
X44323098Y-37801010D01*
X44317979Y-37795573D01*
X44280509Y-37753278D01*
X44280508Y-37753277D01*
X44280507Y-37753276D01*
X44254171Y-37735098D01*
X44234012Y-37721183D01*
X44227990Y-37716752D01*
X44183511Y-37681904D01*
X44175382Y-37678246D01*
X44155838Y-37667223D01*
X44148505Y-37662162D01*
X44148504Y-37662161D01*
X44095681Y-37642128D01*
X44088763Y-37639262D01*
X44037244Y-37616076D01*
X44028480Y-37614470D01*
X44006861Y-37608443D01*
X44001359Y-37606356D01*
X43998527Y-37605282D01*
X43942440Y-37598472D01*
X43935037Y-37597345D01*
X43879474Y-37587163D01*
X43879473Y-37587163D01*
X43825912Y-37590402D01*
X43823085Y-37590574D01*
X43815598Y-37590800D01*
X42346676Y-37590800D01*
X42283555Y-37573532D01*
X42207292Y-37528430D01*
X42053106Y-37483635D01*
X42019515Y-37480991D01*
X42019500Y-37480990D01*
X42017081Y-37480800D01*
X42014635Y-37480800D01*
X41521143Y-37480800D01*
X41521117Y-37480800D01*
X41518720Y-37480801D01*
X41516329Y-37480989D01*
X41516306Y-37480990D01*
X41482694Y-37483635D01*
X41328507Y-37528430D01*
X41252245Y-37573532D01*
X41189124Y-37590800D01*
X41086967Y-37590800D01*
X41023846Y-37573532D01*
X40964492Y-37538430D01*
X40810306Y-37493635D01*
X40774769Y-37490838D01*
X40709481Y-37465953D01*
X40668011Y-37409721D01*
X40660500Y-37367220D01*
X40660500Y-36471578D01*
X41649500Y-36471578D01*
X41649501Y-36474872D01*
X41649853Y-36478152D01*
X41649854Y-36478159D01*
X41655909Y-36534484D01*
X41676615Y-36590000D01*
X41706204Y-36669331D01*
X41792454Y-36784546D01*
X41907669Y-36870796D01*
X42042517Y-36921091D01*
X42102127Y-36927500D01*
X44397872Y-36927499D01*
X44457483Y-36921091D01*
X44592331Y-36870796D01*
X44707546Y-36784546D01*
X44793796Y-36669331D01*
X44844091Y-36534483D01*
X44850500Y-36474873D01*
X44850499Y-34579128D01*
X44844091Y-34519517D01*
X44793796Y-34384669D01*
X44707546Y-34269454D01*
X44592331Y-34183204D01*
X44457483Y-34132909D01*
X44397873Y-34126500D01*
X44394550Y-34126500D01*
X42105439Y-34126500D01*
X42105420Y-34126500D01*
X42102128Y-34126501D01*
X42098848Y-34126853D01*
X42098840Y-34126854D01*
X42042515Y-34132909D01*
X41907669Y-34183204D01*
X41792454Y-34269454D01*
X41706204Y-34384668D01*
X41655909Y-34519516D01*
X41650209Y-34572537D01*
X41649500Y-34579127D01*
X41649500Y-34582448D01*
X41649500Y-34582449D01*
X41649500Y-36471560D01*
X41649500Y-36471578D01*
X40660500Y-36471578D01*
X40660500Y-34392901D01*
X40680185Y-34325862D01*
X40732989Y-34280107D01*
X40743180Y-34277311D01*
X40742890Y-34276534D01*
X40761872Y-34269454D01*
X40892331Y-34220796D01*
X41007546Y-34134546D01*
X41093796Y-34019331D01*
X41144091Y-33884483D01*
X41150500Y-33824873D01*
X41150499Y-33513499D01*
X41170183Y-33446461D01*
X41222987Y-33400706D01*
X41274499Y-33389500D01*
X41846294Y-33389500D01*
X41864264Y-33390809D01*
X41868320Y-33391402D01*
X41888023Y-33394289D01*
X41937368Y-33389972D01*
X41948176Y-33389500D01*
X41950100Y-33389500D01*
X41953709Y-33389500D01*
X41984550Y-33385894D01*
X41988031Y-33385539D01*
X42062797Y-33378999D01*
X42062797Y-33378998D01*
X42064052Y-33378889D01*
X42083062Y-33374674D01*
X42084250Y-33374241D01*
X42084255Y-33374241D01*
X42154820Y-33348557D01*
X42158095Y-33347419D01*
X42229334Y-33323814D01*
X42229336Y-33323812D01*
X42230536Y-33323415D01*
X42248063Y-33314929D01*
X42249112Y-33314238D01*
X42249117Y-33314237D01*
X42311806Y-33273005D01*
X42314798Y-33271099D01*
X42378656Y-33231712D01*
X42378656Y-33231711D01*
X42379729Y-33231050D01*
X42394824Y-33218753D01*
X42395692Y-33217832D01*
X42395696Y-33217830D01*
X42447169Y-33163270D01*
X42449615Y-33160751D01*
X42570770Y-33039595D01*
X42632091Y-33006112D01*
X42632511Y-33006021D01*
X42697803Y-32992144D01*
X42697804Y-32992143D01*
X42697806Y-32992143D01*
X42870730Y-32915151D01*
X43023870Y-32803889D01*
X43150533Y-32663216D01*
X43245179Y-32499284D01*
X43254634Y-32470184D01*
X43303674Y-32319256D01*
X43323460Y-32131000D01*
X43303674Y-31942744D01*
X43245179Y-31762716D01*
X43245179Y-31762715D01*
X43150533Y-31598783D01*
X43023870Y-31458110D01*
X42870730Y-31346848D01*
X42697802Y-31269855D01*
X42535449Y-31235346D01*
X42473967Y-31202154D01*
X42440191Y-31140991D01*
X42437909Y-31101103D01*
X42455960Y-30929361D01*
X42436174Y-30741105D01*
X42392818Y-30607669D01*
X42377679Y-30561076D01*
X42283033Y-30397144D01*
X42156370Y-30256471D01*
X42003230Y-30145209D01*
X41830302Y-30068216D01*
X41645148Y-30028861D01*
X41645146Y-30028861D01*
X41455854Y-30028861D01*
X41455851Y-30028861D01*
X41299780Y-30062034D01*
X41230113Y-30056718D01*
X41174380Y-30014581D01*
X41150275Y-29949001D01*
X41150000Y-29940744D01*
X41150000Y-29932481D01*
X41149645Y-29925867D01*
X41143599Y-29869628D01*
X41093352Y-29734910D01*
X41007188Y-29619811D01*
X40892089Y-29533647D01*
X40757371Y-29483400D01*
X40701132Y-29477354D01*
X40694518Y-29477000D01*
X40150000Y-29477000D01*
X40150000Y-29852500D01*
X40130315Y-29919539D01*
X40077511Y-29965294D01*
X40026000Y-29976500D01*
X39974000Y-29976500D01*
X39906961Y-29956815D01*
X39861206Y-29904011D01*
X39850000Y-29852500D01*
X39850000Y-29477000D01*
X39305482Y-29477000D01*
X39298870Y-29477354D01*
X39284672Y-29478880D01*
X39215913Y-29466471D01*
X39164778Y-29418859D01*
X39147502Y-29351159D01*
X39148486Y-29339385D01*
X39149576Y-29331116D01*
X39164312Y-29219185D01*
X39169364Y-29180811D01*
X39168148Y-29171578D01*
X41649500Y-29171578D01*
X41649501Y-29174872D01*
X41649853Y-29178152D01*
X41649854Y-29178159D01*
X41655909Y-29234484D01*
X41666284Y-29262300D01*
X41706204Y-29369331D01*
X41792454Y-29484546D01*
X41907669Y-29570796D01*
X42042517Y-29621091D01*
X42102127Y-29627500D01*
X44397872Y-29627499D01*
X44457483Y-29621091D01*
X44592331Y-29570796D01*
X44707546Y-29484546D01*
X44793796Y-29369331D01*
X44844091Y-29234483D01*
X44850500Y-29174873D01*
X44850499Y-27279128D01*
X44844091Y-27219517D01*
X44793796Y-27084669D01*
X44707546Y-26969454D01*
X44592331Y-26883204D01*
X44457483Y-26832909D01*
X44457482Y-26832909D01*
X44401166Y-26826854D01*
X44401165Y-26826853D01*
X44397873Y-26826500D01*
X44394550Y-26826500D01*
X42105439Y-26826500D01*
X42105420Y-26826500D01*
X42102128Y-26826501D01*
X42098848Y-26826853D01*
X42098840Y-26826854D01*
X42042515Y-26832909D01*
X41907669Y-26883204D01*
X41792454Y-26969454D01*
X41706204Y-27084668D01*
X41655910Y-27219515D01*
X41655909Y-27219517D01*
X41649500Y-27279127D01*
X41649500Y-27282448D01*
X41649500Y-27282449D01*
X41649500Y-29171560D01*
X41649500Y-29171578D01*
X39168148Y-29171578D01*
X39165373Y-29150496D01*
X39164312Y-29134311D01*
X39164312Y-28966299D01*
X39183997Y-28899260D01*
X39196155Y-28883334D01*
X39311345Y-28755404D01*
X39339869Y-28706000D01*
X39405991Y-28591472D01*
X39430316Y-28516607D01*
X39464486Y-28411444D01*
X39484272Y-28223188D01*
X39464486Y-28034932D01*
X39416680Y-27887800D01*
X39405991Y-27854903D01*
X39311345Y-27690971D01*
X39184682Y-27550298D01*
X39031542Y-27439036D01*
X38858614Y-27362043D01*
X38673460Y-27322688D01*
X38673458Y-27322688D01*
X38484166Y-27322688D01*
X38484164Y-27322688D01*
X38299009Y-27362043D01*
X38126081Y-27439036D01*
X37972941Y-27550298D01*
X37846278Y-27690971D01*
X37751632Y-27854903D01*
X37689110Y-28047327D01*
X37685469Y-28046143D01*
X37667611Y-28089564D01*
X37610318Y-28129556D01*
X37570865Y-28136000D01*
X37524317Y-28136000D01*
X37519437Y-28136191D01*
X37485871Y-28138833D01*
X37331808Y-28183593D01*
X37274611Y-28217419D01*
X37206887Y-28234601D01*
X37148370Y-28217418D01*
X37090392Y-28183130D01*
X36936206Y-28138335D01*
X36902615Y-28135691D01*
X36902600Y-28135690D01*
X36900181Y-28135500D01*
X36897736Y-28135500D01*
X36710387Y-28135500D01*
X36643348Y-28115815D01*
X36622706Y-28099181D01*
X36142407Y-27618882D01*
X36139493Y-27615868D01*
X36095680Y-27568956D01*
X36095679Y-27568955D01*
X36095676Y-27568952D01*
X36091066Y-27566149D01*
X36044016Y-27514495D01*
X36031499Y-27460204D01*
X36031499Y-27405439D01*
X36031499Y-27402128D01*
X36025091Y-27342517D01*
X35974796Y-27207669D01*
X35888546Y-27092454D01*
X35773331Y-27006204D01*
X35638483Y-26955909D01*
X35578873Y-26949500D01*
X35575550Y-26949500D01*
X33486439Y-26949500D01*
X33486420Y-26949500D01*
X33483128Y-26949501D01*
X33479848Y-26949853D01*
X33479840Y-26949854D01*
X33423515Y-26955909D01*
X33288667Y-27006204D01*
X33284808Y-27009094D01*
X33219343Y-27033509D01*
X33151070Y-27018656D01*
X33101666Y-26969249D01*
X33086500Y-26909825D01*
X33086500Y-26436239D01*
X33087561Y-26420053D01*
X33091552Y-26389739D01*
X33071429Y-26236893D01*
X33046278Y-26176173D01*
X33012433Y-26094464D01*
X32918583Y-25972157D01*
X32909090Y-25964873D01*
X32867890Y-25908447D01*
X32863736Y-25838701D01*
X32897949Y-25777781D01*
X32959667Y-25745028D01*
X32984580Y-25742500D01*
X35418742Y-25742500D01*
X35422975Y-25742572D01*
X35487088Y-25744762D01*
X35487088Y-25744761D01*
X35487090Y-25744762D01*
X35527015Y-25735031D01*
X35539460Y-25732666D01*
X35580184Y-25727070D01*
X35596647Y-25719918D01*
X35616683Y-25713180D01*
X35634116Y-25708933D01*
X35669959Y-25688778D01*
X35681279Y-25683157D01*
X35718984Y-25666780D01*
X35732899Y-25655458D01*
X35750375Y-25643563D01*
X35766023Y-25634766D01*
X35795077Y-25605710D01*
X35804494Y-25597211D01*
X35836372Y-25571278D01*
X35846725Y-25556610D01*
X35860337Y-25540450D01*
X38486299Y-22914489D01*
X38547619Y-22881006D01*
X38617311Y-22885990D01*
X38673244Y-22927862D01*
X38697661Y-22993326D01*
X38682809Y-23061599D01*
X38678676Y-23068611D01*
X38661792Y-23095217D01*
X38658050Y-23102023D01*
X38532781Y-23368234D01*
X38529921Y-23375458D01*
X38439009Y-23655254D01*
X38437073Y-23662793D01*
X38381946Y-23951779D01*
X38380972Y-23959499D01*
X38362500Y-24253105D01*
X38362500Y-24260894D01*
X38380972Y-24554500D01*
X38381946Y-24562220D01*
X38437073Y-24851206D01*
X38439009Y-24858745D01*
X38529921Y-25138541D01*
X38532781Y-25145765D01*
X38658050Y-25411976D01*
X38661792Y-25418782D01*
X38819430Y-25667181D01*
X38824006Y-25673479D01*
X38902312Y-25768134D01*
X39831210Y-24839235D01*
X39931894Y-24980624D01*
X40083932Y-25125592D01*
X40186222Y-25191329D01*
X39253564Y-26123986D01*
X39475320Y-26285102D01*
X39481891Y-26289272D01*
X39739694Y-26431000D01*
X39746733Y-26434313D01*
X40020270Y-26542613D01*
X40027665Y-26545016D01*
X40312625Y-26618182D01*
X40320256Y-26619637D01*
X40612140Y-26656511D01*
X40619899Y-26657000D01*
X40914101Y-26657000D01*
X40921859Y-26656511D01*
X41213743Y-26619637D01*
X41221374Y-26618182D01*
X41506334Y-26545016D01*
X41513729Y-26542613D01*
X41787266Y-26434313D01*
X41794305Y-26431000D01*
X42052108Y-26289272D01*
X42058678Y-26285102D01*
X42280433Y-26123986D01*
X42280434Y-26123986D01*
X41350306Y-25193859D01*
X41364410Y-25186589D01*
X41529540Y-25056729D01*
X41667110Y-24897965D01*
X41701665Y-24838112D01*
X42631686Y-25768133D01*
X42709997Y-25673474D01*
X42714568Y-25667182D01*
X42872207Y-25418782D01*
X42875949Y-25411976D01*
X43001218Y-25145765D01*
X43004078Y-25138541D01*
X43094990Y-24858745D01*
X43096926Y-24851206D01*
X43152053Y-24562220D01*
X43153027Y-24554500D01*
X43171500Y-24260894D01*
X43171500Y-24253105D01*
X43153027Y-23959499D01*
X43152053Y-23951779D01*
X43096926Y-23662793D01*
X43094990Y-23655254D01*
X43004078Y-23375458D01*
X43001218Y-23368234D01*
X42875949Y-23102023D01*
X42872207Y-23095217D01*
X42714569Y-22846818D01*
X42709993Y-22840520D01*
X42631686Y-22745864D01*
X41702787Y-23674762D01*
X41602106Y-23533376D01*
X41450068Y-23388408D01*
X41347776Y-23322669D01*
X42280434Y-22390012D01*
X42058679Y-22228897D01*
X42052108Y-22224727D01*
X41794305Y-22082999D01*
X41787266Y-22079686D01*
X41513729Y-21971386D01*
X41506334Y-21968983D01*
X41221374Y-21895817D01*
X41213743Y-21894362D01*
X40921859Y-21857488D01*
X40914101Y-21857000D01*
X40619899Y-21857000D01*
X40612140Y-21857488D01*
X40320256Y-21894362D01*
X40312625Y-21895817D01*
X40027665Y-21968983D01*
X40020270Y-21971386D01*
X39746733Y-22079686D01*
X39739694Y-22082999D01*
X39566135Y-22178413D01*
X39497905Y-22193460D01*
X39432371Y-22169230D01*
X39390340Y-22113416D01*
X39385157Y-22043738D01*
X39418464Y-21982323D01*
X40410020Y-20990768D01*
X40471344Y-20957283D01*
X40497702Y-20954449D01*
X42091542Y-20954449D01*
X42158581Y-20974134D01*
G37*
G04 #@! TD.AperFunction*
G04 #@! TA.AperFunction,Conductor*
G36*
X29672359Y-43961955D02*
G01*
X29614835Y-44074852D01*
X29595014Y-44200000D01*
X29614835Y-44325148D01*
X29672359Y-44438045D01*
X29684314Y-44450000D01*
X28825000Y-44450000D01*
X28825000Y-44919518D01*
X28825354Y-44926132D01*
X28831400Y-44982371D01*
X28887271Y-45132166D01*
X28892255Y-45201858D01*
X28858770Y-45263181D01*
X28797447Y-45296666D01*
X28771089Y-45299500D01*
X27718544Y-45299500D01*
X27651505Y-45279815D01*
X27605750Y-45227011D01*
X27595806Y-45157853D01*
X27624831Y-45094297D01*
X27630863Y-45087819D01*
X28732363Y-43986319D01*
X28793686Y-43952834D01*
X28820044Y-43950000D01*
X29684314Y-43950000D01*
X29672359Y-43961955D01*
G37*
G04 #@! TD.AperFunction*
G04 #@! TA.AperFunction,Conductor*
G36*
X32987655Y-40156257D02*
G01*
X33024150Y-40181518D01*
X33337180Y-40494548D01*
X33370665Y-40555871D01*
X33373499Y-40582229D01*
X33373499Y-40758528D01*
X33373500Y-40863300D01*
X33353816Y-40930339D01*
X33301012Y-40976094D01*
X33249500Y-40987300D01*
X32494027Y-40987300D01*
X32459432Y-40982376D01*
X32314272Y-40940202D01*
X32279828Y-40937491D01*
X32279814Y-40937490D01*
X32277394Y-40937300D01*
X31121006Y-40937300D01*
X31118586Y-40937490D01*
X31118571Y-40937491D01*
X31084127Y-40940202D01*
X30926302Y-40986055D01*
X30771352Y-41077693D01*
X30770640Y-41076489D01*
X30725666Y-41101044D01*
X30655975Y-41096055D01*
X30608260Y-41064048D01*
X30583996Y-41037800D01*
X30318515Y-41037800D01*
X30255394Y-41020532D01*
X30197097Y-40986055D01*
X30039272Y-40940202D01*
X30004828Y-40937491D01*
X30004814Y-40937490D01*
X30002394Y-40937300D01*
X29298200Y-40937300D01*
X29231161Y-40917615D01*
X29185406Y-40864811D01*
X29174200Y-40813300D01*
X29174200Y-40762300D01*
X29193885Y-40695261D01*
X29246689Y-40649506D01*
X29298200Y-40638300D01*
X29999949Y-40638300D01*
X30002394Y-40638300D01*
X30039269Y-40635398D01*
X30197098Y-40589544D01*
X30255393Y-40555068D01*
X30318515Y-40537800D01*
X30583996Y-40537800D01*
X30608259Y-40511552D01*
X30668220Y-40475685D01*
X30738054Y-40477930D01*
X30771130Y-40498280D01*
X30771352Y-40497907D01*
X30784834Y-40505880D01*
X30784835Y-40505881D01*
X30882859Y-40563852D01*
X30926302Y-40589544D01*
X31084127Y-40635397D01*
X31084131Y-40635398D01*
X31121006Y-40638300D01*
X31123451Y-40638300D01*
X32274949Y-40638300D01*
X32277394Y-40638300D01*
X32314269Y-40635398D01*
X32472098Y-40589544D01*
X32613565Y-40505881D01*
X32729781Y-40389665D01*
X32813444Y-40248198D01*
X32817393Y-40234605D01*
X32854996Y-40175720D01*
X32918468Y-40146513D01*
X32987655Y-40156257D01*
G37*
G04 #@! TD.AperFunction*
G04 #@! TA.AperFunction,Conductor*
G36*
X35079703Y-40754690D02*
G01*
X35086179Y-40760720D01*
X36044167Y-41718709D01*
X36994392Y-42668934D01*
X37005087Y-42681129D01*
X37023698Y-42705384D01*
X37054398Y-42728941D01*
X37054403Y-42728945D01*
X37100485Y-42764304D01*
X37146005Y-42799233D01*
X37288435Y-42858229D01*
X37402908Y-42873300D01*
X37402914Y-42873300D01*
X37441281Y-42878351D01*
X37471588Y-42874361D01*
X37487774Y-42873300D01*
X39387484Y-42873300D01*
X39454523Y-42892985D01*
X39500278Y-42945789D01*
X39510222Y-43014947D01*
X39481197Y-43078503D01*
X39460369Y-43097618D01*
X39399129Y-43142110D01*
X39272466Y-43282783D01*
X39177820Y-43446715D01*
X39119326Y-43626742D01*
X39099540Y-43815000D01*
X39119326Y-44003257D01*
X39177820Y-44183284D01*
X39272466Y-44347216D01*
X39399129Y-44487889D01*
X39552269Y-44599151D01*
X39725197Y-44676144D01*
X39923102Y-44718210D01*
X39922449Y-44721278D01*
X39969809Y-44735185D01*
X40015564Y-44787989D01*
X40025508Y-44857147D01*
X39996483Y-44920703D01*
X39990451Y-44927181D01*
X39730451Y-45187181D01*
X39669128Y-45220666D01*
X39642770Y-45223500D01*
X39097229Y-45223500D01*
X39030190Y-45203815D01*
X39009548Y-45187181D01*
X38920083Y-45097716D01*
X38802728Y-44980360D01*
X38790946Y-44966727D01*
X38776609Y-44947469D01*
X38738666Y-44915631D01*
X38730691Y-44908323D01*
X38729329Y-44906961D01*
X38726777Y-44904409D01*
X38702444Y-44885169D01*
X38699647Y-44882890D01*
X38641251Y-44833890D01*
X38624821Y-44823422D01*
X38555691Y-44791186D01*
X38552447Y-44789615D01*
X38484306Y-44755394D01*
X38465903Y-44748997D01*
X38391211Y-44733574D01*
X38387692Y-44732794D01*
X38313490Y-44715208D01*
X38294121Y-44713229D01*
X38217869Y-44715448D01*
X38214263Y-44715500D01*
X36480337Y-44715500D01*
X36413298Y-44695815D01*
X36407450Y-44691817D01*
X36393728Y-44681847D01*
X36220802Y-44604855D01*
X36035648Y-44565500D01*
X36035646Y-44565500D01*
X35846354Y-44565500D01*
X35846352Y-44565500D01*
X35661197Y-44604855D01*
X35488269Y-44681848D01*
X35335129Y-44793110D01*
X35208466Y-44933783D01*
X35107304Y-45109003D01*
X35104375Y-45107312D01*
X35076993Y-45147358D01*
X35012634Y-45174556D01*
X34943788Y-45162641D01*
X34892312Y-45115397D01*
X34874500Y-45051364D01*
X34874500Y-40848403D01*
X34894185Y-40781364D01*
X34946989Y-40735609D01*
X35016147Y-40725665D01*
X35079703Y-40754690D01*
G37*
G04 #@! TD.AperFunction*
G04 #@! TA.AperFunction,Conductor*
G36*
X41835001Y-42774723D02*
G01*
X41837007Y-42776224D01*
X41878879Y-42832153D01*
X41886700Y-42875493D01*
X41886700Y-42926500D01*
X41890500Y-42926500D01*
X41957539Y-42946185D01*
X42003294Y-42998989D01*
X42014500Y-43050500D01*
X42014500Y-43526500D01*
X42543290Y-43526500D01*
X42541645Y-43505584D01*
X42496532Y-43350305D01*
X42414218Y-43211120D01*
X42387199Y-43184101D01*
X42353714Y-43122778D01*
X42358698Y-43053086D01*
X42358699Y-43053085D01*
X42380751Y-42993964D01*
X42422623Y-42938031D01*
X42488088Y-42913615D01*
X42496918Y-42913299D01*
X42816945Y-42913299D01*
X42860915Y-42921357D01*
X42893768Y-42933816D01*
X42893771Y-42933817D01*
X43013049Y-42948300D01*
X43194500Y-42948300D01*
X43261539Y-42967985D01*
X43307294Y-43020789D01*
X43318500Y-43072300D01*
X43318500Y-43706769D01*
X43298815Y-43773808D01*
X43282181Y-43794450D01*
X42688951Y-44387681D01*
X42627628Y-44421166D01*
X42601270Y-44424000D01*
X42583048Y-44424000D01*
X42516009Y-44404315D01*
X42470254Y-44351511D01*
X42460310Y-44282353D01*
X42476316Y-44236879D01*
X42496532Y-44202694D01*
X42541644Y-44047417D01*
X42543290Y-44026500D01*
X41709000Y-44026500D01*
X41641961Y-44006815D01*
X41596206Y-43954011D01*
X41585000Y-43902500D01*
X41585000Y-43544255D01*
X41585000Y-43541810D01*
X41582143Y-43505507D01*
X41536994Y-43350105D01*
X41531767Y-43341266D01*
X41514500Y-43278147D01*
X41514500Y-43050500D01*
X41534185Y-42983461D01*
X41586989Y-42937706D01*
X41636199Y-42927000D01*
X41636700Y-42926500D01*
X41636700Y-42873996D01*
X41656385Y-42806957D01*
X41709189Y-42761202D01*
X41778347Y-42751258D01*
X41835001Y-42774723D01*
G37*
G04 #@! TD.AperFunction*
G04 #@! TA.AperFunction,Conductor*
G36*
X39907544Y-39886485D02*
G01*
X39928186Y-39903119D01*
X39947502Y-39922435D01*
X39963791Y-39932068D01*
X39988956Y-39959020D01*
X40021016Y-39965995D01*
X40024660Y-39968066D01*
X40071979Y-39996050D01*
X40119661Y-40047119D01*
X40132164Y-40115861D01*
X40124200Y-40135165D01*
X40124200Y-41538300D01*
X40104515Y-41605339D01*
X40051711Y-41651094D01*
X40000200Y-41662300D01*
X39998200Y-41662300D01*
X39931161Y-41642615D01*
X39885406Y-41589811D01*
X39874200Y-41538300D01*
X39874200Y-41412800D01*
X39161700Y-41412800D01*
X39161700Y-41457318D01*
X39162054Y-41463930D01*
X39168571Y-41524543D01*
X39168572Y-41551053D01*
X39164218Y-41591554D01*
X39137480Y-41656105D01*
X39080088Y-41695954D01*
X39040928Y-41702300D01*
X37735166Y-41702300D01*
X37668127Y-41682615D01*
X37647485Y-41665981D01*
X36910685Y-40929181D01*
X36877200Y-40867858D01*
X36882184Y-40798166D01*
X36924056Y-40742233D01*
X36989520Y-40717816D01*
X36998366Y-40717500D01*
X37106236Y-40717500D01*
X37173275Y-40737185D01*
X37198386Y-40758528D01*
X37240129Y-40804889D01*
X37393269Y-40916151D01*
X37566197Y-40993144D01*
X37751352Y-41032500D01*
X37751354Y-41032500D01*
X37940648Y-41032500D01*
X38064083Y-41006262D01*
X38125803Y-40993144D01*
X38298730Y-40916151D01*
X38303342Y-40912800D01*
X39161700Y-40912800D01*
X39161700Y-40957318D01*
X39162053Y-40963919D01*
X39168571Y-41024547D01*
X39168571Y-41051053D01*
X39162053Y-41111680D01*
X39161700Y-41118281D01*
X39161700Y-41162800D01*
X39874200Y-41162800D01*
X39874200Y-40912800D01*
X39161700Y-40912800D01*
X38303342Y-40912800D01*
X38318615Y-40901704D01*
X38451870Y-40804889D01*
X38457924Y-40798166D01*
X38578533Y-40664216D01*
X38579351Y-40662800D01*
X39161700Y-40662800D01*
X39874200Y-40662800D01*
X39874200Y-40162800D01*
X39617182Y-40162800D01*
X39610567Y-40163154D01*
X39554328Y-40169200D01*
X39419610Y-40219447D01*
X39304511Y-40305611D01*
X39218347Y-40420710D01*
X39168100Y-40555428D01*
X39162054Y-40611667D01*
X39161700Y-40618281D01*
X39161700Y-40662800D01*
X38579351Y-40662800D01*
X38673179Y-40500284D01*
X38731674Y-40320256D01*
X38751460Y-40132000D01*
X38737981Y-40003758D01*
X38750550Y-39935032D01*
X38798282Y-39884008D01*
X38861302Y-39866800D01*
X39840505Y-39866800D01*
X39907544Y-39886485D01*
G37*
G04 #@! TD.AperFunction*
G04 #@! TA.AperFunction,Conductor*
G36*
X41527300Y-41356181D02*
G01*
X41577340Y-41361561D01*
X41641891Y-41388299D01*
X41681740Y-41445691D01*
X41687374Y-41471594D01*
X41693067Y-41524543D01*
X41693067Y-41551055D01*
X41687374Y-41604005D01*
X41660636Y-41668556D01*
X41603244Y-41708404D01*
X41577340Y-41714039D01*
X41524955Y-41719671D01*
X41498447Y-41719671D01*
X41437819Y-41713153D01*
X41431218Y-41712800D01*
X41386700Y-41712800D01*
X41386700Y-41714172D01*
X41367015Y-41781211D01*
X41314211Y-41826966D01*
X41245053Y-41836910D01*
X41188395Y-41813443D01*
X41186395Y-41811946D01*
X41144521Y-41756015D01*
X41136727Y-41712827D01*
X41136700Y-41712800D01*
X41092182Y-41712800D01*
X41085582Y-41713153D01*
X41027300Y-41719419D01*
X41000793Y-41719419D01*
X40968988Y-41716000D01*
X40945495Y-41713474D01*
X40880945Y-41686738D01*
X40841096Y-41629346D01*
X40835461Y-41603442D01*
X40829828Y-41551057D01*
X40829828Y-41524543D01*
X40835461Y-41472157D01*
X40862200Y-41407606D01*
X40919593Y-41367759D01*
X40945491Y-41362125D01*
X40994183Y-41356891D01*
X40994184Y-41356890D01*
X40998450Y-41356432D01*
X41024959Y-41356433D01*
X41029216Y-41356890D01*
X41029217Y-41356891D01*
X41088827Y-41363300D01*
X41434572Y-41363299D01*
X41494183Y-41356891D01*
X41494185Y-41356890D01*
X41500791Y-41356180D01*
X41527300Y-41356181D01*
G37*
G04 #@! TD.AperFunction*
G04 #@! TA.AperFunction,Conductor*
G36*
X25191149Y-40486669D02*
G01*
X25235497Y-40515170D01*
X25344608Y-40624281D01*
X25411552Y-40665573D01*
X25458277Y-40717521D01*
X25469498Y-40786483D01*
X25441655Y-40850565D01*
X25411553Y-40876649D01*
X25324369Y-40930425D01*
X25228084Y-41026710D01*
X25166761Y-41060194D01*
X25097069Y-41055210D01*
X25052722Y-41026709D01*
X24953044Y-40927031D01*
X24877191Y-40880244D01*
X24830466Y-40828296D01*
X24819245Y-40759334D01*
X24847088Y-40695252D01*
X24877191Y-40669167D01*
X24952732Y-40622572D01*
X25060134Y-40515170D01*
X25121457Y-40481685D01*
X25191149Y-40486669D01*
G37*
G04 #@! TD.AperFunction*
G04 #@! TA.AperFunction,Conductor*
G36*
X26843332Y-40563852D02*
G01*
X26887682Y-40592354D01*
X26919606Y-40624279D01*
X26919608Y-40624280D01*
X26919609Y-40624281D01*
X26973576Y-40657568D01*
X27020300Y-40709516D01*
X27031523Y-40778479D01*
X27003679Y-40842561D01*
X26973577Y-40868645D01*
X26874053Y-40930033D01*
X26864425Y-40939661D01*
X26803101Y-40973145D01*
X26733410Y-40968159D01*
X26689065Y-40939659D01*
X26679831Y-40930425D01*
X26603047Y-40883064D01*
X26556322Y-40831116D01*
X26545101Y-40762154D01*
X26572944Y-40698072D01*
X26603044Y-40671988D01*
X26680391Y-40624281D01*
X26712317Y-40592354D01*
X26773640Y-40558868D01*
X26843332Y-40563852D01*
G37*
G04 #@! TD.AperFunction*
G04 #@! TA.AperFunction,Conductor*
G36*
X23543684Y-40584837D02*
G01*
X23588036Y-40613341D01*
X23597269Y-40622574D01*
X23672808Y-40669168D01*
X23719533Y-40721116D01*
X23730754Y-40790078D01*
X23702911Y-40854160D01*
X23672809Y-40880244D01*
X23596953Y-40927033D01*
X23587325Y-40936661D01*
X23526001Y-40970145D01*
X23456310Y-40965159D01*
X23411965Y-40936659D01*
X23402732Y-40927426D01*
X23327190Y-40880831D01*
X23280465Y-40828883D01*
X23269244Y-40759921D01*
X23297087Y-40695839D01*
X23327183Y-40669759D01*
X23403044Y-40622968D01*
X23412672Y-40613339D01*
X23473992Y-40579854D01*
X23543684Y-40584837D01*
G37*
G04 #@! TD.AperFunction*
G04 #@! TA.AperFunction,Conductor*
G36*
X18021589Y-36485685D02*
G01*
X18042231Y-36502319D01*
X18062881Y-36522969D01*
X18096366Y-36584292D01*
X18099200Y-36610650D01*
X18099200Y-37665999D01*
X18144365Y-37665999D01*
X18150647Y-37665678D01*
X18246805Y-37655856D01*
X18407683Y-37602546D01*
X18460402Y-37570029D01*
X18527794Y-37551588D01*
X18594458Y-37572509D01*
X18639228Y-37626151D01*
X18649500Y-37675567D01*
X18649500Y-38494560D01*
X18649500Y-38494578D01*
X18649501Y-38497872D01*
X18649853Y-38501152D01*
X18649854Y-38501159D01*
X18655909Y-38557484D01*
X18674377Y-38606999D01*
X18706204Y-38692331D01*
X18742151Y-38740350D01*
X18800421Y-38818189D01*
X18824838Y-38883654D01*
X18809986Y-38951927D01*
X18760581Y-39001332D01*
X18701154Y-39016500D01*
X17588306Y-39016500D01*
X17585886Y-39016690D01*
X17585871Y-39016691D01*
X17551427Y-39019402D01*
X17393605Y-39065254D01*
X17393601Y-39065256D01*
X17393602Y-39065256D01*
X17360668Y-39084732D01*
X17297549Y-39102000D01*
X17049035Y-39102000D01*
X16981996Y-39082315D01*
X16961434Y-39065745D01*
X16818285Y-38977450D01*
X16658685Y-38924563D01*
X16597500Y-38918313D01*
X16532809Y-38891917D01*
X16492657Y-38834736D01*
X16489794Y-38764925D01*
X16525128Y-38704648D01*
X16546974Y-38688228D01*
X16579598Y-38668935D01*
X16693135Y-38555398D01*
X16774869Y-38417193D01*
X16819665Y-38263004D01*
X16822500Y-38226981D01*
X16822499Y-37828620D01*
X16819665Y-37792596D01*
X16797267Y-37715501D01*
X16774870Y-37638409D01*
X16774869Y-37638407D01*
X16740870Y-37580917D01*
X16723688Y-37513197D01*
X16740870Y-37454680D01*
X16774869Y-37397193D01*
X16778219Y-37385659D01*
X16815822Y-37326777D01*
X16879293Y-37297569D01*
X16948480Y-37307312D01*
X17001416Y-37352914D01*
X17002833Y-37355158D01*
X17026625Y-37393731D01*
X17146467Y-37513573D01*
X17290713Y-37602546D01*
X17451593Y-37655856D01*
X17547735Y-37665678D01*
X17554052Y-37665999D01*
X17599199Y-37665999D01*
X17599200Y-37665998D01*
X17599200Y-36590000D01*
X17618885Y-36522961D01*
X17671689Y-36477206D01*
X17723200Y-36466000D01*
X17954550Y-36466000D01*
X18021589Y-36485685D01*
G37*
G04 #@! TD.AperFunction*
G04 #@! TA.AperFunction,Conductor*
G36*
X19493231Y-38970184D02*
G01*
X19538986Y-39022988D01*
X19548930Y-39092146D01*
X19519905Y-39155702D01*
X19513874Y-39162180D01*
X19410917Y-39265137D01*
X19410731Y-39265453D01*
X19408785Y-39267269D01*
X19399843Y-39276212D01*
X19399536Y-39275905D01*
X19359661Y-39313135D01*
X19290919Y-39325638D01*
X19226330Y-39298991D01*
X19197269Y-39265453D01*
X19197080Y-39265134D01*
X19094126Y-39162180D01*
X19060641Y-39100857D01*
X19065625Y-39031165D01*
X19107497Y-38975232D01*
X19172961Y-38950815D01*
X19181780Y-38950499D01*
X19426194Y-38950499D01*
X19493231Y-38970184D01*
G37*
G04 #@! TD.AperFunction*
G04 #@! TA.AperFunction,Conductor*
G36*
X30080764Y-38350710D02*
G01*
X30142934Y-38354331D01*
X30142934Y-38354330D01*
X30142935Y-38354331D01*
X30153976Y-38352384D01*
X30175510Y-38350500D01*
X30222500Y-38350500D01*
X30289539Y-38370185D01*
X30335294Y-38422989D01*
X30346500Y-38474499D01*
X30346501Y-38606999D01*
X30326817Y-38674039D01*
X30274013Y-38719794D01*
X30222501Y-38731000D01*
X29327069Y-38731000D01*
X29329833Y-38766127D01*
X29362540Y-38878705D01*
X29362341Y-38948575D01*
X29324399Y-39007245D01*
X29260760Y-39036088D01*
X29243464Y-39037300D01*
X28846006Y-39037300D01*
X28843586Y-39037490D01*
X28843571Y-39037491D01*
X28809128Y-39040202D01*
X28794075Y-39044576D01*
X28759480Y-39049500D01*
X28606373Y-39049500D01*
X28539334Y-39029815D01*
X28493579Y-38977011D01*
X28483635Y-38907853D01*
X28512660Y-38844297D01*
X28518003Y-38839616D01*
X28517747Y-38839375D01*
X28527694Y-38828830D01*
X28527696Y-38828830D01*
X28579184Y-38774254D01*
X28581629Y-38771737D01*
X28966548Y-38386819D01*
X29027872Y-38353334D01*
X29054230Y-38350500D01*
X30011279Y-38350500D01*
X30073554Y-38350500D01*
X30080764Y-38350710D01*
G37*
G04 #@! TD.AperFunction*
G04 #@! TA.AperFunction,Conductor*
G36*
X28181063Y-31970185D02*
G01*
X28226818Y-32022989D01*
X28234534Y-32051116D01*
X28244411Y-32077598D01*
X28287204Y-32192331D01*
X28373454Y-32307546D01*
X28488669Y-32393796D01*
X28623517Y-32444091D01*
X28683127Y-32450500D01*
X30778872Y-32450499D01*
X30838483Y-32444091D01*
X30973331Y-32393796D01*
X30977188Y-32390908D01*
X31042653Y-32366490D01*
X31110926Y-32381341D01*
X31160332Y-32430746D01*
X31175500Y-32490174D01*
X31175500Y-33582367D01*
X31155815Y-33649406D01*
X31103011Y-33695161D01*
X31033853Y-33705105D01*
X30978615Y-33682685D01*
X30932730Y-33649348D01*
X30759802Y-33572355D01*
X30574648Y-33533000D01*
X30574646Y-33533000D01*
X30385354Y-33533000D01*
X30385352Y-33533000D01*
X30200197Y-33572355D01*
X30027269Y-33649348D01*
X29874129Y-33760610D01*
X29747466Y-33901283D01*
X29652820Y-34065215D01*
X29594326Y-34245242D01*
X29574540Y-34433500D01*
X29594326Y-34621757D01*
X29652820Y-34801784D01*
X29712887Y-34905821D01*
X29729500Y-34967821D01*
X29729500Y-35242294D01*
X29728191Y-35260264D01*
X29724711Y-35284023D01*
X29729028Y-35333368D01*
X29729500Y-35344175D01*
X29729500Y-35349709D01*
X29729916Y-35353272D01*
X29729917Y-35353282D01*
X29733098Y-35380496D01*
X29733464Y-35384082D01*
X29740109Y-35460041D01*
X29744329Y-35479071D01*
X29744758Y-35480251D01*
X29744759Y-35480255D01*
X29770413Y-35550742D01*
X29771582Y-35554107D01*
X29795580Y-35626524D01*
X29804075Y-35644072D01*
X29845979Y-35707784D01*
X29847889Y-35710782D01*
X29879057Y-35761311D01*
X29887952Y-35775732D01*
X29900253Y-35790831D01*
X29913002Y-35802859D01*
X29948256Y-35863182D01*
X29945301Y-35932990D01*
X29905074Y-35990117D01*
X29862503Y-36012129D01*
X29707607Y-36057130D01*
X29569401Y-36138865D01*
X29455865Y-36252401D01*
X29374130Y-36390607D01*
X29329335Y-36544793D01*
X29326691Y-36578384D01*
X29326690Y-36578400D01*
X29326500Y-36580819D01*
X29326500Y-36675041D01*
X29326501Y-36725499D01*
X29306817Y-36792539D01*
X29254013Y-36838294D01*
X29202501Y-36849500D01*
X28755706Y-36849500D01*
X28737736Y-36848191D01*
X28723853Y-36846157D01*
X28713977Y-36844711D01*
X28713976Y-36844711D01*
X28664631Y-36849028D01*
X28653824Y-36849500D01*
X28648291Y-36849500D01*
X28644730Y-36849916D01*
X28644715Y-36849917D01*
X28617501Y-36853098D01*
X28613916Y-36853464D01*
X28537961Y-36860109D01*
X28518921Y-36864330D01*
X28447232Y-36890421D01*
X28443831Y-36891603D01*
X28371474Y-36915580D01*
X28353927Y-36924075D01*
X28290221Y-36965975D01*
X28287181Y-36967912D01*
X28222280Y-37007944D01*
X28207167Y-37020254D01*
X28154815Y-37075742D01*
X28152304Y-37078326D01*
X27781918Y-37448713D01*
X27720595Y-37482198D01*
X27659642Y-37480108D01*
X27495206Y-37432335D01*
X27461615Y-37429691D01*
X27461600Y-37429690D01*
X27459181Y-37429500D01*
X27456735Y-37429500D01*
X27063243Y-37429500D01*
X27063217Y-37429500D01*
X27060820Y-37429501D01*
X27058429Y-37429689D01*
X27058406Y-37429690D01*
X27027474Y-37432124D01*
X27024796Y-37432335D01*
X26956993Y-37452033D01*
X26907522Y-37466406D01*
X26837653Y-37466206D01*
X26778983Y-37428263D01*
X26750140Y-37364625D01*
X26760282Y-37295495D01*
X26773657Y-37273023D01*
X26843796Y-37179331D01*
X26894091Y-37044483D01*
X26900500Y-36984873D01*
X26900499Y-36039128D01*
X26894091Y-35979517D01*
X26843796Y-35844669D01*
X26843583Y-35844385D01*
X26781394Y-35761311D01*
X26756976Y-35695847D01*
X26771827Y-35627574D01*
X26781394Y-35612689D01*
X26843796Y-35529331D01*
X26894091Y-35394483D01*
X26900500Y-35334873D01*
X26900499Y-34389128D01*
X26894091Y-34329517D01*
X26843796Y-34194669D01*
X26757546Y-34079454D01*
X26642331Y-33993204D01*
X26507483Y-33942909D01*
X26493336Y-33941388D01*
X26451166Y-33936854D01*
X26451165Y-33936853D01*
X26447873Y-33936500D01*
X26444551Y-33936500D01*
X24399362Y-33936500D01*
X24332323Y-33916815D01*
X24295763Y-33880641D01*
X24272235Y-33844869D01*
X24256013Y-33820205D01*
X24254104Y-33817210D01*
X24249404Y-33809591D01*
X24230968Y-33742199D01*
X24251894Y-33675536D01*
X24305538Y-33630769D01*
X24354947Y-33620500D01*
X25660028Y-33620500D01*
X25664261Y-33620572D01*
X25728374Y-33622762D01*
X25728374Y-33622761D01*
X25728376Y-33622762D01*
X25768301Y-33613031D01*
X25780746Y-33610666D01*
X25821470Y-33605070D01*
X25837933Y-33597918D01*
X25857969Y-33591180D01*
X25875402Y-33586933D01*
X25911245Y-33566778D01*
X25922565Y-33561157D01*
X25960270Y-33544780D01*
X25974185Y-33533458D01*
X25991661Y-33521563D01*
X26007309Y-33512766D01*
X26036363Y-33483710D01*
X26045780Y-33475211D01*
X26077658Y-33449278D01*
X26088011Y-33434610D01*
X26101623Y-33418450D01*
X27533255Y-31986819D01*
X27594579Y-31953334D01*
X27620937Y-31950500D01*
X28114024Y-31950500D01*
X28181063Y-31970185D01*
G37*
G04 #@! TD.AperFunction*
G04 #@! TA.AperFunction,Conductor*
G36*
X35574352Y-32470184D02*
G01*
X35620107Y-32522988D01*
X35630051Y-32592146D01*
X35601026Y-32655702D01*
X35570435Y-32681230D01*
X35548136Y-32694417D01*
X35431919Y-32810634D01*
X35348255Y-32952102D01*
X35302402Y-33109927D01*
X35299691Y-33144371D01*
X35299690Y-33144386D01*
X35299500Y-33146806D01*
X35299500Y-34453194D01*
X35299690Y-34455614D01*
X35299691Y-34455628D01*
X35302402Y-34490072D01*
X35348254Y-34647894D01*
X35348255Y-34647896D01*
X35348256Y-34647898D01*
X35382733Y-34706195D01*
X35400000Y-34769314D01*
X35400000Y-35425000D01*
X35950000Y-35425000D01*
X35950000Y-35162000D01*
X35969685Y-35094961D01*
X36022489Y-35049206D01*
X36074000Y-35038000D01*
X36313249Y-35038000D01*
X36315694Y-35038000D01*
X36352569Y-35035098D01*
X36510398Y-34989244D01*
X36651865Y-34905581D01*
X36768081Y-34789365D01*
X36851744Y-34647898D01*
X36882778Y-34541079D01*
X36901143Y-34477869D01*
X36904780Y-34478925D01*
X36921711Y-34434492D01*
X36977938Y-34393016D01*
X37020452Y-34385500D01*
X37146500Y-34385500D01*
X37162686Y-34386561D01*
X37192999Y-34390552D01*
X37192999Y-34390551D01*
X37193000Y-34390552D01*
X37345846Y-34370429D01*
X37488276Y-34311433D01*
X37579877Y-34241145D01*
X37579877Y-34241143D01*
X37591055Y-34232567D01*
X37591055Y-34232566D01*
X37610583Y-34217583D01*
X37629198Y-34193322D01*
X37639884Y-34181136D01*
X37899820Y-33921201D01*
X37961142Y-33887717D01*
X38030834Y-33892701D01*
X38086767Y-33934573D01*
X38111184Y-34000037D01*
X38111500Y-34008883D01*
X38111500Y-36975770D01*
X38091815Y-37042809D01*
X38075181Y-37063451D01*
X37647229Y-37491402D01*
X37585906Y-37524887D01*
X37585329Y-37525011D01*
X37520197Y-37538855D01*
X37347269Y-37615848D01*
X37194129Y-37727110D01*
X37067466Y-37867783D01*
X36972820Y-38031715D01*
X36914326Y-38211742D01*
X36897179Y-38374888D01*
X36894540Y-38400000D01*
X36911234Y-38558841D01*
X36898666Y-38627568D01*
X36850934Y-38678592D01*
X36787914Y-38695800D01*
X35775184Y-38695800D01*
X35708145Y-38676115D01*
X35687503Y-38659481D01*
X33695784Y-36667762D01*
X33662299Y-36606439D01*
X33667283Y-36536747D01*
X33709155Y-36480814D01*
X33757683Y-36458791D01*
X33934803Y-36421144D01*
X34060919Y-36364993D01*
X34107727Y-36344153D01*
X34126414Y-36330576D01*
X34162432Y-36304407D01*
X34228237Y-36280928D01*
X34296291Y-36296753D01*
X34344986Y-36346858D01*
X34354393Y-36370131D01*
X34398717Y-36522697D01*
X34482317Y-36664057D01*
X34598442Y-36780182D01*
X34739799Y-36863780D01*
X34897511Y-36909599D01*
X34899999Y-36909795D01*
X34900000Y-36909794D01*
X34900000Y-35925000D01*
X35400000Y-35925000D01*
X35400000Y-36909795D01*
X35402488Y-36909599D01*
X35560200Y-36863780D01*
X35701557Y-36780182D01*
X35817682Y-36664057D01*
X35901282Y-36522697D01*
X35947099Y-36364993D01*
X35949808Y-36330576D01*
X35950000Y-36325696D01*
X35950000Y-35925000D01*
X35400000Y-35925000D01*
X34900000Y-35925000D01*
X34900000Y-35322812D01*
X34908270Y-35287922D01*
X34906695Y-35287549D01*
X34909661Y-35275028D01*
X34916999Y-35253917D01*
X34919399Y-35242294D01*
X34932431Y-35179171D01*
X34933186Y-35175767D01*
X34950500Y-35102721D01*
X34950500Y-35102717D01*
X34950790Y-35101494D01*
X34952769Y-35082123D01*
X34952732Y-35080859D01*
X34952733Y-35080856D01*
X34950552Y-35005888D01*
X34950500Y-35002283D01*
X34950500Y-34669827D01*
X34955424Y-34635232D01*
X34997597Y-34490072D01*
X34997596Y-34490072D01*
X34997598Y-34490069D01*
X35000500Y-34453194D01*
X35000500Y-33146806D01*
X34997598Y-33109931D01*
X34996145Y-33104931D01*
X34951744Y-32952102D01*
X34868080Y-32810634D01*
X34751865Y-32694419D01*
X34729565Y-32681231D01*
X34681881Y-32630162D01*
X34669378Y-32561420D01*
X34696023Y-32496831D01*
X34753359Y-32456901D01*
X34792683Y-32450499D01*
X35507313Y-32450499D01*
X35574352Y-32470184D01*
G37*
G04 #@! TD.AperFunction*
G04 #@! TA.AperFunction,Conductor*
G36*
X23329352Y-35783884D02*
G01*
X23329448Y-35783435D01*
X23342026Y-35786108D01*
X23342176Y-35786134D01*
X23342197Y-35786144D01*
X23342198Y-35786144D01*
X23342200Y-35786145D01*
X23527352Y-35825500D01*
X23527354Y-35825500D01*
X23716647Y-35825500D01*
X23763721Y-35815494D01*
X23833388Y-35820810D01*
X23889121Y-35862947D01*
X23913227Y-35928526D01*
X23906287Y-35975998D01*
X23900356Y-36031165D01*
X23899500Y-36039127D01*
X23899500Y-36042448D01*
X23899500Y-36042449D01*
X23899500Y-36981560D01*
X23899500Y-36981578D01*
X23899501Y-36984872D01*
X23899853Y-36988152D01*
X23899854Y-36988159D01*
X23905909Y-37044484D01*
X23929476Y-37107669D01*
X23956204Y-37179331D01*
X24042454Y-37294546D01*
X24157669Y-37380796D01*
X24292517Y-37431091D01*
X24352127Y-37437500D01*
X24523050Y-37437499D01*
X24590089Y-37457183D01*
X24635844Y-37509987D01*
X24645788Y-37579145D01*
X24616763Y-37642701D01*
X24610731Y-37649180D01*
X24146731Y-38113181D01*
X24085408Y-38146666D01*
X24059050Y-38149500D01*
X23474500Y-38149500D01*
X23407461Y-38129815D01*
X23361706Y-38077011D01*
X23350500Y-38025500D01*
X23350499Y-37305439D01*
X23350499Y-37302128D01*
X23344091Y-37242517D01*
X23293796Y-37107669D01*
X23207546Y-36992454D01*
X23092331Y-36906204D01*
X22957483Y-36855909D01*
X22897873Y-36849500D01*
X22894551Y-36849500D01*
X20308950Y-36849500D01*
X20241911Y-36829815D01*
X20221269Y-36813181D01*
X19570268Y-36162180D01*
X19536783Y-36100857D01*
X19541767Y-36031165D01*
X19583639Y-35975232D01*
X19649103Y-35950815D01*
X19657949Y-35950499D01*
X22894561Y-35950499D01*
X22897872Y-35950499D01*
X22957483Y-35944091D01*
X23092331Y-35893796D01*
X23207546Y-35807546D01*
X23207546Y-35807545D01*
X23217428Y-35800148D01*
X23282892Y-35775730D01*
X23329352Y-35783884D01*
G37*
G04 #@! TD.AperFunction*
G04 #@! TA.AperFunction,Conductor*
G36*
X16958134Y-34094101D02*
G01*
X17011068Y-34139704D01*
X17013677Y-34143921D01*
X17097231Y-34285204D01*
X17114414Y-34352928D01*
X17092254Y-34419191D01*
X17078181Y-34436006D01*
X17026230Y-34487956D01*
X16993464Y-34541079D01*
X16941515Y-34587803D01*
X16872553Y-34599024D01*
X16808471Y-34571180D01*
X16781194Y-34539102D01*
X16750946Y-34487956D01*
X16720172Y-34435920D01*
X16702990Y-34368197D01*
X16720173Y-34309679D01*
X16731996Y-34289687D01*
X16774869Y-34217193D01*
X16787869Y-34172446D01*
X16825475Y-34113562D01*
X16888947Y-34084355D01*
X16958134Y-34094101D01*
G37*
G04 #@! TD.AperFunction*
G04 #@! TA.AperFunction,Conductor*
G36*
X16948360Y-33105937D02*
G01*
X17001296Y-33151539D01*
X17016250Y-33184283D01*
X17017967Y-33190194D01*
X17029910Y-33210388D01*
X17047093Y-33278112D01*
X17029911Y-33336629D01*
X17017505Y-33357606D01*
X17001777Y-33411742D01*
X16964170Y-33470627D01*
X16900697Y-33499833D01*
X16831511Y-33490087D01*
X16778577Y-33444482D01*
X16775969Y-33440267D01*
X16740581Y-33380429D01*
X16723398Y-33312705D01*
X16740581Y-33254186D01*
X16774406Y-33196991D01*
X16778097Y-33184287D01*
X16815702Y-33125400D01*
X16879174Y-33096192D01*
X16948360Y-33105937D01*
G37*
G04 #@! TD.AperFunction*
G04 #@! TA.AperFunction,Conductor*
G36*
X37813626Y-28725685D02*
G01*
X37838737Y-28747028D01*
X37920574Y-28837917D01*
X37950804Y-28900908D01*
X37942179Y-28970244D01*
X37918082Y-29001114D01*
X37919354Y-29002091D01*
X37878630Y-29055162D01*
X37879452Y-29054078D01*
X37829212Y-29119566D01*
X37815566Y-29137347D01*
X37756571Y-29279775D01*
X37756571Y-29279778D01*
X37751181Y-29320722D01*
X37741350Y-29395393D01*
X37736448Y-29432624D01*
X37740439Y-29462937D01*
X37741500Y-29479123D01*
X37741500Y-30560499D01*
X37740439Y-30576684D01*
X37736447Y-30606999D01*
X37740439Y-30637313D01*
X37741500Y-30653499D01*
X37741500Y-31626000D01*
X37721815Y-31693039D01*
X37669011Y-31738794D01*
X37617500Y-31750000D01*
X37595500Y-31750000D01*
X37528461Y-31730315D01*
X37482706Y-31677511D01*
X37471500Y-31626000D01*
X37471499Y-31253243D01*
X37471499Y-31250820D01*
X37471308Y-31248403D01*
X37471213Y-31245962D01*
X37471323Y-31247834D01*
X37471000Y-31239607D01*
X37471000Y-30486409D01*
X37471323Y-30478178D01*
X37471213Y-30480045D01*
X37471307Y-30477624D01*
X37471500Y-30475181D01*
X37471499Y-29976820D01*
X37471308Y-29974403D01*
X37471213Y-29971962D01*
X37471323Y-29973834D01*
X37471000Y-29965607D01*
X37471000Y-29216409D01*
X37471323Y-29208178D01*
X37471213Y-29210045D01*
X37471307Y-29207624D01*
X37471500Y-29205181D01*
X37471499Y-28829999D01*
X37491183Y-28762961D01*
X37543987Y-28717206D01*
X37595499Y-28706000D01*
X37746587Y-28706000D01*
X37813626Y-28725685D01*
G37*
G04 #@! TD.AperFunction*
G04 #@! TD*
D57*
X27590750Y-36417250D03*
X17222200Y-25377800D03*
X40005000Y-43815000D03*
X15494000Y-46355000D03*
X33020000Y-24003000D03*
X46101000Y-32258000D03*
X46101000Y-26670000D03*
X23749000Y-37719000D03*
X20955000Y-36449000D03*
X20955000Y-46355000D03*
X34798000Y-43688000D03*
X39370000Y-44831000D03*
X41275000Y-46101000D03*
X46101000Y-38481000D03*
X46101000Y-42418000D03*
X46101000Y-46101000D03*
X16002000Y-21082000D03*
X34290000Y-21082000D03*
X29718000Y-21082000D03*
X27686000Y-24003000D03*
X41550500Y-30929361D03*
X32893000Y-40767000D03*
X29083000Y-38481000D03*
X22225000Y-33050500D03*
X30734000Y-40767000D03*
X24683071Y-40696081D03*
X18034000Y-38100000D03*
X30480000Y-34433500D03*
X33655000Y-35560000D03*
X37846000Y-40132000D03*
X42672000Y-39878000D03*
X25273000Y-21082000D03*
X17517709Y-40754353D03*
X21800000Y-43200000D03*
X35941000Y-45466000D03*
X42418000Y-32131000D03*
X37800000Y-38400000D03*
X34800000Y-37400000D03*
X25654000Y-25982961D03*
X38578812Y-28223188D03*
X36957000Y-27559000D03*
X18496356Y-26289000D03*
X15800000Y-31600000D03*
X16357798Y-27134299D03*
X27698000Y-45200000D03*
X44049500Y-40200000D03*
X43000000Y-43800000D03*
X43434000Y-39116000D03*
X41275000Y-41529000D03*
X15875000Y-43000000D03*
X23622000Y-34925000D03*
X25273000Y-43170500D03*
X39014266Y-20014266D03*
X17653000Y-31200000D03*
X40767000Y-24257000D03*
D58*
X19000000Y-20550000D03*
D57*
X17000000Y-44800000D03*
X19540000Y-44800000D03*
D59*
X23605482Y-26987800D03*
X22538815Y-26987800D03*
X21472149Y-26987800D03*
X20405482Y-26987800D03*
X23605482Y-28054467D03*
X22538815Y-28054467D03*
X21472149Y-28054467D03*
X20405482Y-28054467D03*
X23605482Y-29121133D03*
X22538815Y-29121133D03*
X21472149Y-29121133D03*
X20405482Y-29121133D03*
X23605482Y-30187800D03*
X22538815Y-30187800D03*
X21472149Y-30187800D03*
X20405482Y-30187800D03*
D57*
X30000000Y-44200000D03*
X32000000Y-44200000D03*
X45200000Y-22200000D03*
X43403949Y-20403949D03*
X41607898Y-18607898D03*
X39811846Y-16811846D03*
M02*
