G04 #@! TF.GenerationSoftware,KiCad,Pcbnew,7.0.2-6a45011f42~172~ubuntu22.04.1*
G04 #@! TF.CreationDate,2023-08-24T20:39:21+02:00*
G04 #@! TF.ProjectId,CH582,43483538-322e-46b6-9963-61645f706362,rev?*
G04 #@! TF.SameCoordinates,Original*
G04 #@! TF.FileFunction,Copper,L2,Bot*
G04 #@! TF.FilePolarity,Positive*
%FSLAX46Y46*%
G04 Gerber Fmt 4.6, Leading zero omitted, Abs format (unit mm)*
G04 Created by KiCad (PCBNEW 7.0.2-6a45011f42~172~ubuntu22.04.1) date 2023-08-24 20:39:21*
%MOMM*%
%LPD*%
G01*
G04 APERTURE LIST*
G04 Aperture macros list*
%AMHorizOval*
0 Thick line with rounded ends*
0 $1 width*
0 $2 $3 position (X,Y) of the first rounded end (center of the circle)*
0 $4 $5 position (X,Y) of the second rounded end (center of the circle)*
0 Add line between two ends*
20,1,$1,$2,$3,$4,$5,0*
0 Add two circle primitives to create the rounded ends*
1,1,$1,$2,$3*
1,1,$1,$4,$5*%
%AMRotRect*
0 Rectangle, with rotation*
0 The origin of the aperture is its center*
0 $1 length*
0 $2 width*
0 $3 Rotation angle, in degrees counterclockwise*
0 Add horizontal line*
21,1,$1,$2,0,0,$3*%
G04 Aperture macros list end*
G04 #@! TA.AperFunction,Profile*
%ADD10C,0.200000*%
G04 #@! TD*
G04 #@! TA.AperFunction,ComponentPad*
%ADD11R,0.900000X0.500000*%
G04 #@! TD*
G04 #@! TA.AperFunction,SMDPad,CuDef*
%ADD12C,1.000000*%
G04 #@! TD*
G04 #@! TA.AperFunction,ConnectorPad*
%ADD13C,3.800000*%
G04 #@! TD*
G04 #@! TA.AperFunction,ComponentPad*
%ADD14C,2.600000*%
G04 #@! TD*
G04 #@! TA.AperFunction,ComponentPad*
%ADD15R,1.700000X1.700000*%
G04 #@! TD*
G04 #@! TA.AperFunction,ComponentPad*
%ADD16O,1.700000X1.700000*%
G04 #@! TD*
G04 #@! TA.AperFunction,ComponentPad*
%ADD17C,0.500000*%
G04 #@! TD*
G04 #@! TA.AperFunction,SMDPad,CuDef*
%ADD18R,3.700000X3.700000*%
G04 #@! TD*
G04 #@! TA.AperFunction,ComponentPad*
%ADD19R,1.350000X1.350000*%
G04 #@! TD*
G04 #@! TA.AperFunction,ComponentPad*
%ADD20O,1.350000X1.350000*%
G04 #@! TD*
G04 #@! TA.AperFunction,ComponentPad*
%ADD21RotRect,1.700000X1.700000X225.000000*%
G04 #@! TD*
G04 #@! TA.AperFunction,ComponentPad*
%ADD22HorizOval,1.700000X0.000000X0.000000X0.000000X0.000000X0*%
G04 #@! TD*
G04 #@! TA.AperFunction,ViaPad*
%ADD23C,0.800000*%
G04 #@! TD*
G04 #@! TA.AperFunction,Conductor*
%ADD24C,0.500000*%
G04 #@! TD*
G04 #@! TA.AperFunction,Conductor*
%ADD25C,0.170000*%
G04 #@! TD*
G04 #@! TA.AperFunction,Conductor*
%ADD26C,0.320000*%
G04 #@! TD*
%ADD27C,0.350000*%
%ADD28C,0.300000*%
%ADD29C,0.200000*%
G04 APERTURE END LIST*
D10*
X47000000Y-21750000D02*
X47000000Y-47000000D01*
X15000000Y-47000000D01*
X15000000Y-15000000D01*
X40250000Y-15000000D01*
X47000000Y-21750000D01*
D11*
X19000000Y-20550000D03*
D12*
X39751000Y-43180000D03*
D13*
X40767000Y-24257000D03*
D14*
X40767000Y-24257000D03*
D12*
X17780000Y-28956000D03*
X37084000Y-42672000D03*
X35433000Y-22987000D03*
D15*
X17000000Y-44800000D03*
D16*
X19540000Y-44800000D03*
D17*
X23605482Y-26987800D03*
X22538815Y-26987800D03*
X21472149Y-26987800D03*
X20405482Y-26987800D03*
X23605482Y-28054467D03*
X22538815Y-28054467D03*
X21472149Y-28054467D03*
X20405482Y-28054467D03*
D18*
X22005482Y-28587800D03*
D17*
X23605482Y-29121133D03*
X22538815Y-29121133D03*
X21472149Y-29121133D03*
X20405482Y-29121133D03*
X23605482Y-30187800D03*
X22538815Y-30187800D03*
X21472149Y-30187800D03*
X20405482Y-30187800D03*
D19*
X30000000Y-44200000D03*
D20*
X32000000Y-44200000D03*
D21*
X45200000Y-22200000D03*
D22*
X43403949Y-20403949D03*
X41607898Y-18607898D03*
X39811846Y-16811846D03*
D23*
X35433000Y-22987000D03*
X37084000Y-42672000D03*
X37846000Y-40132000D03*
X33274000Y-26797000D03*
X46101000Y-35179000D03*
X44831000Y-25273000D03*
X37465000Y-44323000D03*
X28702000Y-34544000D03*
X15773400Y-24053800D03*
X41173400Y-35509200D03*
X28016200Y-32969200D03*
X18669000Y-24079200D03*
X27590750Y-36417250D03*
X17222200Y-25377800D03*
X39751000Y-43180000D03*
X15494000Y-46355000D03*
X34290000Y-23749000D03*
X46101000Y-32258000D03*
X46101000Y-26670000D03*
X23749000Y-37719000D03*
X20955000Y-36449000D03*
X20955000Y-46355000D03*
X35433000Y-43307000D03*
X39370000Y-44831000D03*
X41275000Y-46101000D03*
X46101000Y-38481000D03*
X46101000Y-42418000D03*
X46101000Y-46101000D03*
X15748000Y-21082000D03*
X34290000Y-21082000D03*
X29718000Y-21082000D03*
X29718000Y-23749000D03*
X41550500Y-30929361D03*
X32893000Y-40767000D03*
X29083000Y-38481000D03*
X22225000Y-33050500D03*
X30734000Y-40767000D03*
X24683071Y-40696081D03*
X18034000Y-38100000D03*
X30480000Y-34433500D03*
X33655000Y-35560000D03*
X42672000Y-39878000D03*
X25273000Y-21082000D03*
X17517709Y-40754353D03*
X21800000Y-43200000D03*
X40005000Y-45974000D03*
X42418000Y-32131000D03*
X37800000Y-38400000D03*
X34800000Y-37400000D03*
X25654000Y-25982961D03*
X38578812Y-28223188D03*
X36957000Y-27559000D03*
X18496356Y-26289000D03*
X15800000Y-31600000D03*
X16357798Y-27134299D03*
X27698000Y-45200000D03*
X44049500Y-40200000D03*
X43000000Y-43800000D03*
X43434000Y-39116000D03*
X41275000Y-41529000D03*
X15875000Y-43000000D03*
X23622000Y-34925000D03*
X25273000Y-43170500D03*
X39014266Y-20014266D03*
X17653000Y-31200000D03*
D24*
X25273000Y-44273000D02*
X25273000Y-43170500D01*
X40005000Y-45974000D02*
X39624000Y-46355000D01*
X39624000Y-46355000D02*
X27355000Y-46355000D01*
X27355000Y-46355000D02*
X25273000Y-44273000D01*
D25*
X38578812Y-28223188D02*
X38578812Y-28164812D01*
X38578812Y-28164812D02*
X36414000Y-26000000D01*
X36414000Y-26000000D02*
X35433000Y-26000000D01*
D26*
X37846000Y-40132000D02*
X42418000Y-40132000D01*
X42418000Y-40132000D02*
X42672000Y-39878000D01*
D24*
X34355000Y-45655000D02*
X34798000Y-45212000D01*
X34267918Y-45655000D02*
X34355000Y-45655000D01*
X30669000Y-45655000D02*
X34267918Y-45655000D01*
X27590750Y-36417250D02*
X29083000Y-37909500D01*
X22225000Y-33050500D02*
X24224000Y-33050500D01*
X24224000Y-33050500D02*
X27590750Y-36417250D01*
X29083000Y-37909500D02*
X29083000Y-38481000D01*
D25*
X25654000Y-25982961D02*
X25671039Y-26000000D01*
X25671039Y-26000000D02*
X35433000Y-26000000D01*
D24*
X39014266Y-20014266D02*
X39014266Y-20040734D01*
X37465000Y-25508396D02*
X41840604Y-29884000D01*
X39014266Y-20040734D02*
X37465000Y-21590000D01*
X37465000Y-21590000D02*
X37465000Y-25508396D01*
X41840604Y-29884000D02*
X41881082Y-29884000D01*
X41881082Y-29884000D02*
X42418000Y-30420918D01*
X42418000Y-30420918D02*
X42418000Y-32131000D01*
D25*
X41550500Y-30929361D02*
X41355139Y-30734000D01*
X41355139Y-30734000D02*
X28351682Y-30734000D01*
X28351682Y-30734000D02*
X23817682Y-26200000D01*
X23817682Y-26200000D02*
X18585356Y-26200000D01*
X18585356Y-26200000D02*
X18496356Y-26289000D01*
D24*
X23622000Y-34925000D02*
X23622000Y-35052000D01*
X23622000Y-35052000D02*
X25894550Y-37324550D01*
X25894550Y-42548950D02*
X25273000Y-43170500D01*
X25894550Y-37324550D02*
X25894550Y-42548950D01*
D25*
X35433000Y-26000000D02*
X35433000Y-22987000D01*
X43434000Y-39116000D02*
X41021000Y-36703000D01*
X24680000Y-32131000D02*
X18584000Y-32131000D01*
X41021000Y-36703000D02*
X29252000Y-36703000D01*
X29252000Y-36703000D02*
X24680000Y-32131000D01*
X18584000Y-32131000D02*
X17653000Y-31200000D01*
D26*
X17222200Y-25377800D02*
X17222200Y-28398200D01*
X17222200Y-28398200D02*
X17780000Y-28956000D01*
X16357798Y-27134299D02*
X16299701Y-27134299D01*
X16299701Y-27134299D02*
X15800000Y-27634000D01*
X15800000Y-27634000D02*
X15800000Y-31600000D01*
D24*
X34124000Y-41910000D02*
X34124000Y-40302345D01*
X34124000Y-43092000D02*
X34124000Y-41910000D01*
X34124000Y-41910000D02*
X36322000Y-41910000D01*
X36322000Y-41910000D02*
X37084000Y-42672000D01*
X32000000Y-44200000D02*
X33016000Y-44200000D01*
X33016000Y-44200000D02*
X34124000Y-43092000D01*
X37797828Y-38402172D02*
X37800000Y-38400000D01*
X34124000Y-40302345D02*
X36024173Y-38402172D01*
X36024173Y-38402172D02*
X37797828Y-38402172D01*
X17517709Y-40754353D02*
X19354353Y-40754353D01*
X19354353Y-40754353D02*
X21800000Y-43200000D01*
X30000000Y-44200000D02*
X30000000Y-44986000D01*
X30000000Y-44986000D02*
X30669000Y-45655000D01*
X32528500Y-34433500D02*
X30480000Y-34433500D01*
X33655000Y-35560000D02*
X32528500Y-34433500D01*
G04 #@! TA.AperFunction,Conductor*
G36*
X16900799Y-31704596D02*
G01*
X16917634Y-31727309D01*
X16920467Y-31732217D01*
X17047129Y-31872889D01*
X17200269Y-31984151D01*
X17373197Y-32061144D01*
X17558352Y-32100500D01*
X17558354Y-32100500D01*
X17674116Y-32100500D01*
X17741155Y-32120185D01*
X17761797Y-32136819D01*
X18137108Y-32512130D01*
X18147796Y-32524316D01*
X18166417Y-32548583D01*
X18187812Y-32565000D01*
X18197122Y-32572144D01*
X18205766Y-32579725D01*
X18197130Y-32572151D01*
X18288724Y-32642433D01*
X18431154Y-32701430D01*
X18553685Y-32717561D01*
X18583999Y-32721552D01*
X18583999Y-32721551D01*
X18584000Y-32721552D01*
X18614315Y-32717561D01*
X18630501Y-32716500D01*
X24386116Y-32716500D01*
X24453155Y-32736185D01*
X24473797Y-32752819D01*
X28805108Y-37084130D01*
X28815796Y-37096316D01*
X28834417Y-37120583D01*
X28956724Y-37214433D01*
X29099154Y-37273429D01*
X29213627Y-37288500D01*
X29213633Y-37288500D01*
X29252000Y-37293551D01*
X29282307Y-37289561D01*
X29298493Y-37288500D01*
X37518247Y-37288500D01*
X37585286Y-37308185D01*
X37631041Y-37360989D01*
X37640985Y-37430147D01*
X37611960Y-37493703D01*
X37553182Y-37531477D01*
X37544028Y-37533790D01*
X37520197Y-37538855D01*
X37347269Y-37615849D01*
X37330559Y-37627990D01*
X37264752Y-37651470D01*
X37257674Y-37651672D01*
X36087879Y-37651672D01*
X36069909Y-37650363D01*
X36056026Y-37648329D01*
X36046150Y-37646883D01*
X36046149Y-37646883D01*
X35996807Y-37651200D01*
X35986000Y-37651672D01*
X35980464Y-37651672D01*
X35976903Y-37652088D01*
X35976888Y-37652089D01*
X35949657Y-37655272D01*
X35946073Y-37655638D01*
X35870123Y-37662283D01*
X35851095Y-37666501D01*
X35779443Y-37692579D01*
X35776042Y-37693761D01*
X35703653Y-37717750D01*
X35686100Y-37726248D01*
X35622409Y-37768137D01*
X35619371Y-37770073D01*
X35554450Y-37810119D01*
X35539336Y-37822430D01*
X35487004Y-37877898D01*
X35484492Y-37880484D01*
X33638358Y-39726617D01*
X33624727Y-39738398D01*
X33605468Y-39752736D01*
X33573635Y-39790673D01*
X33566338Y-39798637D01*
X33564972Y-39800002D01*
X33564950Y-39800026D01*
X33562409Y-39802568D01*
X33560173Y-39805395D01*
X33560171Y-39805398D01*
X33543176Y-39826891D01*
X33540902Y-39829682D01*
X33491894Y-39888089D01*
X33481418Y-39904532D01*
X33449192Y-39973639D01*
X33447622Y-39976881D01*
X33413393Y-40045037D01*
X33406996Y-40063443D01*
X33391573Y-40138133D01*
X33390793Y-40141650D01*
X33373208Y-40215851D01*
X33371229Y-40235226D01*
X33373447Y-40311475D01*
X33373499Y-40315080D01*
X33373499Y-41873632D01*
X33373500Y-41873642D01*
X33373500Y-41884554D01*
X33373290Y-41891765D01*
X33369668Y-41953933D01*
X33371616Y-41964978D01*
X33373499Y-41986507D01*
X33373499Y-42729769D01*
X33353814Y-42796808D01*
X33337180Y-42817450D01*
X32892079Y-43262551D01*
X32830756Y-43296036D01*
X32761064Y-43291052D01*
X32720858Y-43266505D01*
X32711431Y-43257911D01*
X32526208Y-43143226D01*
X32323073Y-43064531D01*
X32323070Y-43064530D01*
X32323069Y-43064530D01*
X32108926Y-43024500D01*
X31891074Y-43024500D01*
X31676931Y-43064530D01*
X31676926Y-43064531D01*
X31473794Y-43143225D01*
X31288565Y-43257914D01*
X31277215Y-43268261D01*
X31214409Y-43298876D01*
X31145023Y-43290676D01*
X31094413Y-43250932D01*
X31032188Y-43167811D01*
X30917089Y-43081647D01*
X30782371Y-43031400D01*
X30726132Y-43025354D01*
X30719518Y-43025000D01*
X30250000Y-43025000D01*
X30250000Y-43884314D01*
X30238045Y-43872359D01*
X30125148Y-43814835D01*
X30031481Y-43800000D01*
X29968519Y-43800000D01*
X29874852Y-43814835D01*
X29761955Y-43872359D01*
X29750000Y-43884314D01*
X29750000Y-43025000D01*
X29280482Y-43025000D01*
X29273867Y-43025354D01*
X29217628Y-43031400D01*
X29082910Y-43081647D01*
X28967811Y-43167811D01*
X28881647Y-43282910D01*
X28831400Y-43417628D01*
X28825354Y-43473867D01*
X28825000Y-43480481D01*
X28825000Y-43950000D01*
X29684314Y-43950000D01*
X29672359Y-43961955D01*
X29614835Y-44074852D01*
X29595014Y-44200000D01*
X29614835Y-44325148D01*
X29672359Y-44438045D01*
X29684314Y-44450000D01*
X28825000Y-44450000D01*
X28825000Y-44919518D01*
X28825354Y-44926132D01*
X28831400Y-44982371D01*
X28881647Y-45117089D01*
X28967811Y-45232188D01*
X29082910Y-45318352D01*
X29206150Y-45364318D01*
X29262083Y-45406190D01*
X29286500Y-45471654D01*
X29271648Y-45539927D01*
X29222243Y-45589332D01*
X29162816Y-45604500D01*
X27717229Y-45604500D01*
X27650190Y-45584815D01*
X27629548Y-45568181D01*
X26059819Y-43998451D01*
X26026334Y-43937128D01*
X26023500Y-43910770D01*
X26023500Y-43704821D01*
X26040113Y-43642821D01*
X26040814Y-43641608D01*
X26100179Y-43538784D01*
X26155522Y-43368453D01*
X26185769Y-43319096D01*
X26380191Y-43124674D01*
X26393810Y-43112904D01*
X26413080Y-43098560D01*
X26444922Y-43060611D01*
X26452236Y-43052631D01*
X26452817Y-43052049D01*
X26456140Y-43048727D01*
X26475382Y-43024388D01*
X26477604Y-43021661D01*
X26525852Y-42964164D01*
X26525852Y-42964162D01*
X26526667Y-42963192D01*
X26537116Y-42946790D01*
X26537655Y-42945632D01*
X26537660Y-42945627D01*
X26569382Y-42877597D01*
X26570898Y-42874466D01*
X26604590Y-42807383D01*
X26604590Y-42807379D01*
X26605160Y-42806246D01*
X26611549Y-42787867D01*
X26616457Y-42764096D01*
X26626981Y-42713121D01*
X26627736Y-42709717D01*
X26645050Y-42636671D01*
X26645050Y-42636667D01*
X26645340Y-42635444D01*
X26647319Y-42616073D01*
X26647282Y-42614809D01*
X26647283Y-42614806D01*
X26645102Y-42539838D01*
X26645050Y-42536233D01*
X26645050Y-37388255D01*
X26646359Y-37370285D01*
X26646511Y-37369241D01*
X26649839Y-37346527D01*
X26645522Y-37297179D01*
X26645050Y-37286373D01*
X26645050Y-37284451D01*
X26645050Y-37280841D01*
X26641453Y-37250070D01*
X26641086Y-37246479D01*
X26634439Y-37170499D01*
X26630222Y-37151480D01*
X26604142Y-37079824D01*
X26602958Y-37076418D01*
X26578967Y-37004018D01*
X26570479Y-36986486D01*
X26569787Y-36985434D01*
X26569787Y-36985433D01*
X26528549Y-36922734D01*
X26526637Y-36919731D01*
X26486600Y-36854820D01*
X26474300Y-36839722D01*
X26418840Y-36787398D01*
X26416253Y-36784885D01*
X24555114Y-34923746D01*
X24521629Y-34862423D01*
X24519474Y-34849025D01*
X24507674Y-34736742D01*
X24449179Y-34556715D01*
X24354533Y-34392783D01*
X24227870Y-34252110D01*
X24074730Y-34140848D01*
X23901802Y-34063855D01*
X23716648Y-34024500D01*
X23716646Y-34024500D01*
X23527354Y-34024500D01*
X23527352Y-34024500D01*
X23342197Y-34063855D01*
X23169269Y-34140848D01*
X23016129Y-34252110D01*
X22889466Y-34392783D01*
X22794820Y-34556715D01*
X22736326Y-34736742D01*
X22716540Y-34924999D01*
X22736326Y-35113257D01*
X22794820Y-35293284D01*
X22889466Y-35457216D01*
X23016129Y-35597889D01*
X23169268Y-35709150D01*
X23169269Y-35709150D01*
X23169270Y-35709151D01*
X23235723Y-35738738D01*
X23272967Y-35764335D01*
X25107731Y-37599100D01*
X25141215Y-37660421D01*
X25144049Y-37686779D01*
X25144049Y-42176877D01*
X25124364Y-42243916D01*
X25071560Y-42289671D01*
X25045832Y-42298167D01*
X24993196Y-42309355D01*
X24820269Y-42386348D01*
X24667129Y-42497610D01*
X24540466Y-42638283D01*
X24445820Y-42802215D01*
X24387326Y-42982242D01*
X24367540Y-43170500D01*
X24387326Y-43358757D01*
X24445820Y-43538784D01*
X24468767Y-43578528D01*
X24505186Y-43641608D01*
X24505887Y-43642821D01*
X24522500Y-43704821D01*
X24522500Y-44209294D01*
X24521191Y-44227264D01*
X24517711Y-44251023D01*
X24522028Y-44300368D01*
X24522500Y-44311175D01*
X24522500Y-44316709D01*
X24522916Y-44320272D01*
X24522917Y-44320282D01*
X24526098Y-44347496D01*
X24526464Y-44351082D01*
X24533109Y-44427041D01*
X24537329Y-44446071D01*
X24537758Y-44447251D01*
X24537759Y-44447255D01*
X24563413Y-44517742D01*
X24564582Y-44521107D01*
X24588580Y-44593524D01*
X24597075Y-44611072D01*
X24638979Y-44674784D01*
X24640889Y-44677782D01*
X24680288Y-44741656D01*
X24680952Y-44742732D01*
X24693253Y-44757830D01*
X24694168Y-44758693D01*
X24694170Y-44758696D01*
X24729523Y-44792050D01*
X24748709Y-44810151D01*
X24751296Y-44812664D01*
X26726452Y-46787819D01*
X26759937Y-46849142D01*
X26754953Y-46918834D01*
X26713081Y-46974767D01*
X26647617Y-46999184D01*
X26638771Y-46999500D01*
X15124500Y-46999500D01*
X15057461Y-46979815D01*
X15011706Y-46927011D01*
X15000500Y-46875500D01*
X15000500Y-44549999D01*
X15649999Y-44549999D01*
X15650000Y-44550000D01*
X16566314Y-44550000D01*
X16540507Y-44590156D01*
X16500000Y-44728111D01*
X16500000Y-44871889D01*
X16540507Y-45009844D01*
X16566314Y-45050000D01*
X15650000Y-45050000D01*
X15650000Y-45694518D01*
X15650354Y-45701132D01*
X15656400Y-45757371D01*
X15706647Y-45892089D01*
X15792811Y-46007188D01*
X15907910Y-46093352D01*
X16042628Y-46143599D01*
X16098867Y-46149645D01*
X16105482Y-46150000D01*
X16749999Y-46150000D01*
X16749999Y-45235501D01*
X16857685Y-45284680D01*
X16964237Y-45300000D01*
X17035763Y-45300000D01*
X17142315Y-45284680D01*
X17250000Y-45235501D01*
X17250000Y-46150000D01*
X17894518Y-46150000D01*
X17901132Y-46149645D01*
X17957371Y-46143599D01*
X18092089Y-46093352D01*
X18207188Y-46007188D01*
X18293352Y-45892089D01*
X18342422Y-45760528D01*
X18384294Y-45704595D01*
X18449758Y-45680178D01*
X18518031Y-45695030D01*
X18546285Y-45716181D01*
X18668599Y-45838495D01*
X18862170Y-45974035D01*
X19076337Y-46073903D01*
X19304592Y-46135062D01*
X19304592Y-46135063D01*
X19539999Y-46155659D01*
X19539999Y-46155658D01*
X19540000Y-46155659D01*
X19775408Y-46135063D01*
X20003663Y-46073903D01*
X20217830Y-45974035D01*
X20411401Y-45838495D01*
X20578495Y-45671401D01*
X20714035Y-45477830D01*
X20813903Y-45263663D01*
X20875063Y-45035408D01*
X20895659Y-44800000D01*
X20894963Y-44792050D01*
X20875063Y-44564592D01*
X20862960Y-44519423D01*
X20813903Y-44336337D01*
X20714035Y-44122171D01*
X20578495Y-43928599D01*
X20411401Y-43761505D01*
X20217830Y-43625965D01*
X20003663Y-43526097D01*
X19929570Y-43506244D01*
X19775407Y-43464936D01*
X19539999Y-43444340D01*
X19304592Y-43464936D01*
X19076336Y-43526097D01*
X18862170Y-43625965D01*
X18668601Y-43761503D01*
X18546285Y-43883819D01*
X18484962Y-43917303D01*
X18415270Y-43912319D01*
X18359337Y-43870447D01*
X18342422Y-43839471D01*
X18293352Y-43707911D01*
X18207188Y-43592811D01*
X18092089Y-43506647D01*
X17957371Y-43456400D01*
X17901132Y-43450354D01*
X17894518Y-43450000D01*
X17250000Y-43450000D01*
X17250000Y-44364498D01*
X17142315Y-44315320D01*
X17035763Y-44300000D01*
X16964237Y-44300000D01*
X16857685Y-44315320D01*
X16749999Y-44364498D01*
X16750000Y-43450000D01*
X16105482Y-43450000D01*
X16098867Y-43450354D01*
X16042628Y-43456400D01*
X15907910Y-43506647D01*
X15792811Y-43592811D01*
X15706647Y-43707910D01*
X15656400Y-43842628D01*
X15650354Y-43898867D01*
X15650000Y-43905481D01*
X15649999Y-44549999D01*
X15000500Y-44549999D01*
X15000500Y-40754353D01*
X16612249Y-40754353D01*
X16616641Y-40796137D01*
X16632035Y-40942610D01*
X16690529Y-41122637D01*
X16785175Y-41286569D01*
X16911838Y-41427242D01*
X17064978Y-41538504D01*
X17237906Y-41615497D01*
X17423061Y-41654853D01*
X17423063Y-41654853D01*
X17612357Y-41654853D01*
X17735793Y-41628615D01*
X17797512Y-41615497D01*
X17970439Y-41538504D01*
X17984158Y-41528536D01*
X18049965Y-41505055D01*
X18057046Y-41504853D01*
X18992123Y-41504853D01*
X19059162Y-41524538D01*
X19079804Y-41541172D01*
X20887228Y-43348595D01*
X20917478Y-43397958D01*
X20972820Y-43568284D01*
X21067466Y-43732216D01*
X21194129Y-43872889D01*
X21347269Y-43984151D01*
X21520197Y-44061144D01*
X21705352Y-44100500D01*
X21705354Y-44100500D01*
X21894648Y-44100500D01*
X22018083Y-44074262D01*
X22079803Y-44061144D01*
X22252730Y-43984151D01*
X22329191Y-43928599D01*
X22405870Y-43872889D01*
X22532533Y-43732216D01*
X22627179Y-43568284D01*
X22657857Y-43473867D01*
X22685674Y-43388256D01*
X22705460Y-43200000D01*
X22685674Y-43011744D01*
X22641059Y-42874435D01*
X22627179Y-42831715D01*
X22532533Y-42667783D01*
X22405870Y-42527110D01*
X22252730Y-42415848D01*
X22079802Y-42338855D01*
X22014670Y-42325011D01*
X21953188Y-42291819D01*
X21952770Y-42291402D01*
X19930081Y-40268713D01*
X19918299Y-40255080D01*
X19903962Y-40235822D01*
X19866019Y-40203984D01*
X19858044Y-40196676D01*
X19856682Y-40195314D01*
X19854130Y-40192762D01*
X19829797Y-40173522D01*
X19827000Y-40171243D01*
X19768604Y-40122243D01*
X19752174Y-40111775D01*
X19683044Y-40079539D01*
X19679800Y-40077968D01*
X19611659Y-40043747D01*
X19593256Y-40037350D01*
X19518564Y-40021927D01*
X19515045Y-40021147D01*
X19440843Y-40003561D01*
X19421474Y-40001582D01*
X19345222Y-40003801D01*
X19341616Y-40003853D01*
X18057046Y-40003853D01*
X17990007Y-39984168D01*
X17984159Y-39980170D01*
X17970437Y-39970200D01*
X17797511Y-39893208D01*
X17612357Y-39853853D01*
X17612355Y-39853853D01*
X17423063Y-39853853D01*
X17423061Y-39853853D01*
X17237906Y-39893208D01*
X17064978Y-39970201D01*
X16911838Y-40081463D01*
X16785175Y-40222136D01*
X16690529Y-40386068D01*
X16632035Y-40566095D01*
X16621685Y-40664574D01*
X16612249Y-40754353D01*
X15000500Y-40754353D01*
X15000500Y-32375572D01*
X15020185Y-32308533D01*
X15072989Y-32262778D01*
X15142147Y-32252834D01*
X15197385Y-32275254D01*
X15347269Y-32384151D01*
X15520197Y-32461144D01*
X15705352Y-32500500D01*
X15705354Y-32500500D01*
X15894648Y-32500500D01*
X16018083Y-32474262D01*
X16079803Y-32461144D01*
X16252730Y-32384151D01*
X16264538Y-32375572D01*
X16405870Y-32272889D01*
X16532533Y-32132216D01*
X16627179Y-31968284D01*
X16635478Y-31942742D01*
X16685674Y-31788256D01*
X16686925Y-31776344D01*
X16713509Y-31711732D01*
X16770807Y-31671747D01*
X16840626Y-31669087D01*
X16900799Y-31704596D01*
G37*
G04 #@! TD.AperFunction*
G04 #@! TA.AperFunction,Conductor*
G36*
X40273996Y-15132685D02*
G01*
X40295454Y-15150142D01*
X40534628Y-15393829D01*
X40567538Y-15455462D01*
X40561903Y-15525104D01*
X40519510Y-15580644D01*
X40453821Y-15604448D01*
X40393727Y-15593069D01*
X40275509Y-15537943D01*
X40214348Y-15521555D01*
X40047253Y-15476782D01*
X39811846Y-15456186D01*
X39576438Y-15476782D01*
X39348182Y-15537943D01*
X39134016Y-15637811D01*
X38940444Y-15773351D01*
X38773351Y-15940444D01*
X38637811Y-16134016D01*
X38537943Y-16348182D01*
X38476782Y-16576438D01*
X38456186Y-16811845D01*
X38476782Y-17047253D01*
X38516307Y-17194761D01*
X38537943Y-17275509D01*
X38637811Y-17489676D01*
X38773351Y-17683247D01*
X38940445Y-17850341D01*
X39134016Y-17985881D01*
X39348183Y-18085749D01*
X39576438Y-18146909D01*
X39811846Y-18167505D01*
X40047254Y-18146909D01*
X40147949Y-18119928D01*
X40217796Y-18121591D01*
X40275658Y-18160753D01*
X40303163Y-18224981D01*
X40299815Y-18271796D01*
X40272834Y-18372490D01*
X40252238Y-18607897D01*
X40272834Y-18843305D01*
X40299814Y-18943996D01*
X40333995Y-19071561D01*
X40433863Y-19285728D01*
X40569403Y-19479299D01*
X40736497Y-19646393D01*
X40930068Y-19781933D01*
X41144235Y-19881801D01*
X41362507Y-19940286D01*
X41372490Y-19942961D01*
X41607897Y-19963557D01*
X41607897Y-19963556D01*
X41607898Y-19963557D01*
X41843306Y-19942961D01*
X41943997Y-19915981D01*
X42013846Y-19917644D01*
X42071709Y-19956806D01*
X42099213Y-20021034D01*
X42095865Y-20067849D01*
X42068885Y-20168540D01*
X42048289Y-20403949D01*
X42068885Y-20639356D01*
X42081693Y-20687155D01*
X42130046Y-20867612D01*
X42229914Y-21081779D01*
X42365454Y-21275350D01*
X42532548Y-21442444D01*
X42726119Y-21577984D01*
X42940286Y-21677852D01*
X43168540Y-21739011D01*
X43168541Y-21739012D01*
X43403948Y-21759608D01*
X43403948Y-21759607D01*
X43403949Y-21759608D01*
X43415095Y-21758632D01*
X43447568Y-21755792D01*
X43516068Y-21769558D01*
X43566251Y-21818173D01*
X43582185Y-21886202D01*
X43571170Y-21930832D01*
X43513237Y-22057684D01*
X43492776Y-22200000D01*
X43513237Y-22342315D01*
X43572965Y-22473098D01*
X43608467Y-22517154D01*
X43612892Y-22522080D01*
X44068629Y-22977817D01*
X44716922Y-22329523D01*
X44740507Y-22409844D01*
X44818239Y-22530798D01*
X44926900Y-22624952D01*
X45057685Y-22684680D01*
X45067466Y-22686086D01*
X44422182Y-23331369D01*
X44877919Y-23787107D01*
X44882845Y-23791532D01*
X44926901Y-23827034D01*
X45057684Y-23886762D01*
X45200000Y-23907223D01*
X45342315Y-23886762D01*
X45473098Y-23827034D01*
X45517154Y-23791532D01*
X45522080Y-23787107D01*
X45977817Y-23331370D01*
X45977817Y-23331369D01*
X45332533Y-22686086D01*
X45342315Y-22684680D01*
X45473100Y-22624952D01*
X45581761Y-22530798D01*
X45659493Y-22409844D01*
X45683076Y-22329524D01*
X46331369Y-22977817D01*
X46331370Y-22977817D01*
X46778319Y-22530868D01*
X46839642Y-22497383D01*
X46909334Y-22502367D01*
X46965267Y-22544239D01*
X46989684Y-22609703D01*
X46990000Y-22618549D01*
X46990000Y-46866491D01*
X46970315Y-46933530D01*
X46917511Y-46979285D01*
X46866492Y-46990490D01*
X44596000Y-46999500D01*
X40499026Y-46999500D01*
X40431987Y-46979815D01*
X40386232Y-46927011D01*
X40376288Y-46857853D01*
X40405313Y-46794297D01*
X40448592Y-46762220D01*
X40452688Y-46760395D01*
X40457730Y-46758151D01*
X40610871Y-46646888D01*
X40737533Y-46506216D01*
X40832179Y-46342284D01*
X40890674Y-46162256D01*
X40910460Y-45974000D01*
X40890674Y-45785744D01*
X40856373Y-45680178D01*
X40832179Y-45605715D01*
X40737533Y-45441783D01*
X40610870Y-45301110D01*
X40457730Y-45189848D01*
X40284802Y-45112855D01*
X40099648Y-45073500D01*
X40099646Y-45073500D01*
X39910354Y-45073500D01*
X39910352Y-45073500D01*
X39725197Y-45112855D01*
X39552269Y-45189848D01*
X39399129Y-45301110D01*
X39272466Y-45441784D01*
X39214318Y-45542500D01*
X39163751Y-45590716D01*
X39106931Y-45604500D01*
X32222057Y-45604500D01*
X32155018Y-45584815D01*
X32109263Y-45532011D01*
X32099319Y-45462853D01*
X32128344Y-45399297D01*
X32187122Y-45361523D01*
X32199262Y-45358613D01*
X32323069Y-45335470D01*
X32458496Y-45283004D01*
X32526208Y-45256773D01*
X32526210Y-45256772D01*
X32711432Y-45142088D01*
X32872427Y-44995322D01*
X32880919Y-44987581D01*
X32883264Y-44990153D01*
X32923568Y-44960225D01*
X32984425Y-44953883D01*
X32994023Y-44955289D01*
X33043368Y-44950972D01*
X33054176Y-44950500D01*
X33056100Y-44950500D01*
X33059709Y-44950500D01*
X33090550Y-44946894D01*
X33094031Y-44946539D01*
X33168797Y-44939999D01*
X33168797Y-44939998D01*
X33170052Y-44939889D01*
X33189062Y-44935674D01*
X33190250Y-44935241D01*
X33190255Y-44935241D01*
X33260820Y-44909557D01*
X33264095Y-44908419D01*
X33335334Y-44884814D01*
X33335336Y-44884812D01*
X33336536Y-44884415D01*
X33354063Y-44875929D01*
X33355112Y-44875238D01*
X33355117Y-44875237D01*
X33417806Y-44834005D01*
X33420798Y-44832099D01*
X33484656Y-44792712D01*
X33484656Y-44792711D01*
X33485729Y-44792050D01*
X33500824Y-44779753D01*
X33501692Y-44778832D01*
X33501696Y-44778830D01*
X33553185Y-44724253D01*
X33555631Y-44721735D01*
X34609641Y-43667725D01*
X34623258Y-43655957D01*
X34642530Y-43641610D01*
X34674372Y-43603661D01*
X34681686Y-43595681D01*
X34682264Y-43595102D01*
X34685591Y-43591776D01*
X34704853Y-43567413D01*
X34707076Y-43564686D01*
X34728811Y-43538784D01*
X34755302Y-43507214D01*
X34755303Y-43507211D01*
X34756115Y-43506244D01*
X34766573Y-43489828D01*
X34767107Y-43488680D01*
X34767111Y-43488677D01*
X34798845Y-43420621D01*
X34800371Y-43417470D01*
X34834040Y-43350433D01*
X34834040Y-43350431D01*
X34834609Y-43349299D01*
X34841002Y-43330906D01*
X34856431Y-43256184D01*
X34857212Y-43252660D01*
X34869694Y-43200000D01*
X34874500Y-43179721D01*
X34874500Y-43179720D01*
X34874791Y-43178493D01*
X34876770Y-43159120D01*
X34876733Y-43157858D01*
X34876734Y-43157855D01*
X34874552Y-43082868D01*
X34874500Y-43079262D01*
X34874500Y-42784500D01*
X34894185Y-42717461D01*
X34946989Y-42671706D01*
X34998500Y-42660500D01*
X35959770Y-42660500D01*
X36026809Y-42680185D01*
X36047451Y-42696819D01*
X36053405Y-42702773D01*
X36086890Y-42764096D01*
X36089127Y-42778298D01*
X36097976Y-42868135D01*
X36155185Y-43056726D01*
X36177545Y-43098558D01*
X36248090Y-43230538D01*
X36373117Y-43382883D01*
X36525462Y-43507910D01*
X36699273Y-43600814D01*
X36887868Y-43658024D01*
X37084000Y-43677341D01*
X37280132Y-43658024D01*
X37468727Y-43600814D01*
X37642538Y-43507910D01*
X37794883Y-43382883D01*
X37919910Y-43230538D01*
X37946923Y-43180000D01*
X38745659Y-43180000D01*
X38764976Y-43376133D01*
X38822185Y-43564726D01*
X38903092Y-43716091D01*
X38915090Y-43738538D01*
X39040117Y-43890883D01*
X39192462Y-44015910D01*
X39366273Y-44108814D01*
X39554868Y-44166024D01*
X39751000Y-44185341D01*
X39947132Y-44166024D01*
X40135727Y-44108814D01*
X40309538Y-44015910D01*
X40461883Y-43890883D01*
X40586910Y-43738538D01*
X40679814Y-43564727D01*
X40737024Y-43376132D01*
X40756341Y-43180000D01*
X40737024Y-42983868D01*
X40679814Y-42795273D01*
X40586910Y-42621462D01*
X40461883Y-42469117D01*
X40309538Y-42344090D01*
X40259558Y-42317375D01*
X40135726Y-42251185D01*
X39947133Y-42193976D01*
X39751000Y-42174659D01*
X39554866Y-42193976D01*
X39366273Y-42251185D01*
X39192463Y-42344089D01*
X39040117Y-42469117D01*
X38915089Y-42621463D01*
X38822185Y-42795273D01*
X38764976Y-42983866D01*
X38745659Y-43180000D01*
X37946923Y-43180000D01*
X38012814Y-43056727D01*
X38070024Y-42868132D01*
X38089341Y-42672000D01*
X38070024Y-42475868D01*
X38012814Y-42287273D01*
X37919910Y-42113462D01*
X37794883Y-41961117D01*
X37642538Y-41836090D01*
X37616699Y-41822279D01*
X37468726Y-41743185D01*
X37280135Y-41685976D01*
X37190298Y-41677127D01*
X37125512Y-41650965D01*
X37114773Y-41641405D01*
X36897728Y-41424360D01*
X36885946Y-41410727D01*
X36871609Y-41391469D01*
X36833666Y-41359631D01*
X36825691Y-41352323D01*
X36824329Y-41350961D01*
X36821777Y-41348409D01*
X36797444Y-41329169D01*
X36794647Y-41326890D01*
X36736251Y-41277890D01*
X36719821Y-41267422D01*
X36650691Y-41235186D01*
X36647447Y-41233615D01*
X36579306Y-41199394D01*
X36560903Y-41192997D01*
X36486211Y-41177574D01*
X36482692Y-41176794D01*
X36408490Y-41159208D01*
X36389121Y-41157229D01*
X36312869Y-41159448D01*
X36309263Y-41159500D01*
X34998500Y-41159500D01*
X34931461Y-41139815D01*
X34885706Y-41087011D01*
X34874500Y-41035500D01*
X34874500Y-40664574D01*
X34894185Y-40597535D01*
X34910819Y-40576893D01*
X36298721Y-39188991D01*
X36360044Y-39155506D01*
X36386402Y-39152672D01*
X37263653Y-39152672D01*
X37330692Y-39172357D01*
X37336529Y-39176347D01*
X37344848Y-39182391D01*
X37387514Y-39237719D01*
X37393495Y-39307332D01*
X37360890Y-39369128D01*
X37344849Y-39383028D01*
X37240129Y-39459110D01*
X37113466Y-39599783D01*
X37018820Y-39763715D01*
X36960326Y-39943742D01*
X36940540Y-40131999D01*
X36960326Y-40320257D01*
X37018820Y-40500284D01*
X37113466Y-40664216D01*
X37240129Y-40804889D01*
X37393269Y-40916151D01*
X37566197Y-40993144D01*
X37751352Y-41032500D01*
X37751354Y-41032500D01*
X37940648Y-41032500D01*
X38064083Y-41006262D01*
X38125803Y-40993144D01*
X38298730Y-40916151D01*
X38298729Y-40916151D01*
X38436327Y-40816182D01*
X38502133Y-40792702D01*
X38509212Y-40792500D01*
X42394298Y-40792500D01*
X42401785Y-40792726D01*
X42458173Y-40796137D01*
X42513750Y-40785951D01*
X42521126Y-40784828D01*
X42555939Y-40780601D01*
X42565800Y-40779404D01*
X42580745Y-40778500D01*
X42766648Y-40778500D01*
X42890084Y-40752262D01*
X42951803Y-40739144D01*
X43124730Y-40662151D01*
X43256938Y-40566097D01*
X43277870Y-40550889D01*
X43404533Y-40410216D01*
X43499179Y-40246284D01*
X43555071Y-40074268D01*
X43594509Y-40016592D01*
X43647219Y-39991296D01*
X43713803Y-39977144D01*
X43713804Y-39977143D01*
X43713806Y-39977143D01*
X43886730Y-39900151D01*
X44039870Y-39788889D01*
X44072423Y-39752736D01*
X44166533Y-39648216D01*
X44261179Y-39484284D01*
X44319674Y-39304256D01*
X44339460Y-39116000D01*
X44319674Y-38927744D01*
X44261179Y-38747716D01*
X44261179Y-38747715D01*
X44166533Y-38583783D01*
X44039870Y-38443110D01*
X43886730Y-38331848D01*
X43713802Y-38254855D01*
X43528648Y-38215500D01*
X43528646Y-38215500D01*
X43412884Y-38215500D01*
X43345845Y-38195815D01*
X43325203Y-38179181D01*
X41467891Y-36321869D01*
X41457196Y-36309674D01*
X41438584Y-36285418D01*
X41370126Y-36232888D01*
X41316275Y-36191566D01*
X41173847Y-36132571D01*
X41059373Y-36117500D01*
X41021000Y-36112447D01*
X40990686Y-36116439D01*
X40974500Y-36117500D01*
X34587710Y-36117500D01*
X34520671Y-36097815D01*
X34474916Y-36045011D01*
X34464972Y-35975853D01*
X34480322Y-35931502D01*
X34482178Y-35928285D01*
X34482179Y-35928284D01*
X34540674Y-35748256D01*
X34560460Y-35560000D01*
X34540674Y-35371744D01*
X34482179Y-35191716D01*
X34482179Y-35191715D01*
X34387533Y-35027783D01*
X34260870Y-34887110D01*
X34107730Y-34775848D01*
X33934803Y-34698855D01*
X33869669Y-34685011D01*
X33808187Y-34651819D01*
X33807769Y-34651402D01*
X33104228Y-33947860D01*
X33092446Y-33934227D01*
X33078109Y-33914969D01*
X33040166Y-33883131D01*
X33032191Y-33875823D01*
X33030829Y-33874461D01*
X33028277Y-33871909D01*
X33003944Y-33852669D01*
X33001147Y-33850390D01*
X32942751Y-33801390D01*
X32926321Y-33790922D01*
X32857191Y-33758686D01*
X32853947Y-33757115D01*
X32785806Y-33722894D01*
X32767403Y-33716497D01*
X32692711Y-33701074D01*
X32689192Y-33700294D01*
X32614990Y-33682708D01*
X32595621Y-33680729D01*
X32519369Y-33682948D01*
X32515763Y-33683000D01*
X31019337Y-33683000D01*
X30952298Y-33663315D01*
X30946450Y-33659317D01*
X30932728Y-33649347D01*
X30759802Y-33572355D01*
X30574648Y-33533000D01*
X30574646Y-33533000D01*
X30385354Y-33533000D01*
X30385352Y-33533000D01*
X30200197Y-33572355D01*
X30027269Y-33649348D01*
X29874129Y-33760610D01*
X29747466Y-33901283D01*
X29652820Y-34065215D01*
X29594326Y-34245242D01*
X29574540Y-34433500D01*
X29594326Y-34621757D01*
X29652820Y-34801784D01*
X29747466Y-34965716D01*
X29874129Y-35106389D01*
X30027269Y-35217651D01*
X30200197Y-35294644D01*
X30385352Y-35334000D01*
X30385354Y-35334000D01*
X30574648Y-35334000D01*
X30698083Y-35307762D01*
X30759803Y-35294644D01*
X30932730Y-35217651D01*
X30946449Y-35207683D01*
X31012256Y-35184202D01*
X31019337Y-35184000D01*
X32166270Y-35184000D01*
X32233309Y-35203685D01*
X32253951Y-35220319D01*
X32742228Y-35708595D01*
X32772478Y-35757958D01*
X32827821Y-35928285D01*
X32829678Y-35931502D01*
X32846149Y-35999402D01*
X32823296Y-36065429D01*
X32768374Y-36108618D01*
X32722290Y-36117500D01*
X29545884Y-36117500D01*
X29478845Y-36097815D01*
X29458203Y-36081181D01*
X25126891Y-31749869D01*
X25116196Y-31737674D01*
X25097584Y-31713418D01*
X25038302Y-31667929D01*
X24975275Y-31619566D01*
X24832847Y-31560571D01*
X24718373Y-31545500D01*
X24680000Y-31540447D01*
X24649686Y-31544439D01*
X24633500Y-31545500D01*
X18877884Y-31545500D01*
X18810845Y-31525815D01*
X18790203Y-31509181D01*
X18592917Y-31311895D01*
X18559432Y-31250572D01*
X18557277Y-31211252D01*
X18558460Y-31200000D01*
X18538674Y-31011744D01*
X18480179Y-30831716D01*
X18480179Y-30831715D01*
X18385533Y-30667783D01*
X18258870Y-30527110D01*
X18105730Y-30415848D01*
X17932802Y-30338855D01*
X17747648Y-30299500D01*
X17747646Y-30299500D01*
X17558354Y-30299500D01*
X17558352Y-30299500D01*
X17373197Y-30338855D01*
X17200269Y-30415848D01*
X17047129Y-30527110D01*
X16920466Y-30667783D01*
X16825820Y-30831715D01*
X16767325Y-31011746D01*
X16766073Y-31023658D01*
X16739486Y-31088271D01*
X16682187Y-31128254D01*
X16612368Y-31130911D01*
X16552196Y-31095399D01*
X16535364Y-31072688D01*
X16532531Y-31067781D01*
X16492350Y-31023155D01*
X16462120Y-30960163D01*
X16460500Y-30940183D01*
X16460500Y-28856290D01*
X16480185Y-28789251D01*
X16532989Y-28743496D01*
X16602147Y-28733552D01*
X16665703Y-28762577D01*
X16682113Y-28779820D01*
X16687654Y-28786893D01*
X16692083Y-28792912D01*
X16724178Y-28839409D01*
X16733788Y-28847922D01*
X16770915Y-28907109D01*
X16774965Y-28952890D01*
X16774658Y-28955998D01*
X16793976Y-29152133D01*
X16851185Y-29340726D01*
X16932092Y-29492091D01*
X16944090Y-29514538D01*
X17069117Y-29666883D01*
X17221462Y-29791910D01*
X17395273Y-29884814D01*
X17583868Y-29942024D01*
X17780000Y-29961341D01*
X17976132Y-29942024D01*
X18164727Y-29884814D01*
X18338538Y-29791910D01*
X18490883Y-29666883D01*
X18615910Y-29514538D01*
X18708814Y-29340727D01*
X18766024Y-29152132D01*
X18785341Y-28956000D01*
X18766024Y-28759868D01*
X18708814Y-28571273D01*
X18615910Y-28397462D01*
X18490883Y-28245117D01*
X18338538Y-28120090D01*
X18301495Y-28100290D01*
X18164726Y-28027185D01*
X17970704Y-27968328D01*
X17912265Y-27930030D01*
X17883809Y-27866218D01*
X17882700Y-27849668D01*
X17882700Y-27192446D01*
X17902385Y-27125407D01*
X17955189Y-27079652D01*
X18024347Y-27069708D01*
X18057136Y-27079167D01*
X18216553Y-27150144D01*
X18401708Y-27189500D01*
X18401710Y-27189500D01*
X18591004Y-27189500D01*
X18714439Y-27163262D01*
X18776159Y-27150144D01*
X18949086Y-27073151D01*
X19003222Y-27033819D01*
X19102226Y-26961889D01*
X19149398Y-26909500D01*
X19224106Y-26826527D01*
X19283593Y-26789879D01*
X19316256Y-26785500D01*
X19970982Y-26785500D01*
X20038021Y-26805185D01*
X20083776Y-26857989D01*
X20094982Y-26909500D01*
X20094982Y-26949786D01*
X20093098Y-26971319D01*
X20090191Y-26987799D01*
X20093098Y-27004280D01*
X20094982Y-27025813D01*
X20094982Y-28016453D01*
X20093098Y-28037986D01*
X20090191Y-28054466D01*
X20093098Y-28070947D01*
X20094982Y-28092480D01*
X20094982Y-29083119D01*
X20093098Y-29104652D01*
X20090191Y-29121132D01*
X20093098Y-29137613D01*
X20094982Y-29159146D01*
X20094982Y-30149786D01*
X20093098Y-30171319D01*
X20090191Y-30187799D01*
X20093098Y-30204280D01*
X20094982Y-30225813D01*
X20094982Y-30443758D01*
X20098492Y-30461406D01*
X20111864Y-30481418D01*
X20131876Y-30494790D01*
X20149524Y-30498300D01*
X20149525Y-30498300D01*
X23861439Y-30498300D01*
X23861440Y-30498300D01*
X23879088Y-30494790D01*
X23899100Y-30481418D01*
X23912472Y-30461406D01*
X23915982Y-30443758D01*
X23915982Y-30225813D01*
X23917866Y-30204280D01*
X23920772Y-30187799D01*
X23917866Y-30171319D01*
X23915982Y-30149786D01*
X23915982Y-29159146D01*
X23917866Y-29137613D01*
X23920772Y-29121132D01*
X23917866Y-29104652D01*
X23915982Y-29083119D01*
X23915982Y-28092480D01*
X23917866Y-28070947D01*
X23920067Y-28058468D01*
X23920772Y-28054467D01*
X23917865Y-28037984D01*
X23915982Y-28016453D01*
X23915982Y-27425684D01*
X23935667Y-27358645D01*
X23988471Y-27312890D01*
X24057629Y-27302946D01*
X24121185Y-27331971D01*
X24127663Y-27338003D01*
X27904790Y-31115130D01*
X27915478Y-31127316D01*
X27934099Y-31151583D01*
X28056406Y-31245433D01*
X28198836Y-31304429D01*
X28313309Y-31319500D01*
X28313315Y-31319500D01*
X28351682Y-31324551D01*
X28381989Y-31320561D01*
X28398175Y-31319500D01*
X40664347Y-31319500D01*
X40731386Y-31339185D01*
X40771734Y-31381500D01*
X40817966Y-31461576D01*
X40944629Y-31602250D01*
X41097769Y-31713512D01*
X41270697Y-31790506D01*
X41433049Y-31825014D01*
X41494531Y-31858206D01*
X41528308Y-31919369D01*
X41530590Y-31959265D01*
X41512540Y-32130999D01*
X41532326Y-32319257D01*
X41590820Y-32499284D01*
X41685466Y-32663216D01*
X41812129Y-32803889D01*
X41965269Y-32915151D01*
X42138197Y-32992144D01*
X42323352Y-33031500D01*
X42323354Y-33031500D01*
X42512648Y-33031500D01*
X42636083Y-33005262D01*
X42697803Y-32992144D01*
X42870730Y-32915151D01*
X43023871Y-32803888D01*
X43150533Y-32663216D01*
X43245179Y-32499284D01*
X43303674Y-32319256D01*
X43323460Y-32131000D01*
X43303674Y-31942744D01*
X43253478Y-31788257D01*
X43245179Y-31762715D01*
X43185113Y-31658677D01*
X43168500Y-31596677D01*
X43168500Y-30484623D01*
X43169809Y-30466653D01*
X43169961Y-30465609D01*
X43173289Y-30442895D01*
X43168972Y-30393547D01*
X43168500Y-30382741D01*
X43168500Y-30380819D01*
X43168500Y-30377209D01*
X43164903Y-30346438D01*
X43164536Y-30342847D01*
X43157889Y-30266867D01*
X43153672Y-30247848D01*
X43131816Y-30187799D01*
X43127591Y-30176191D01*
X43126408Y-30172786D01*
X43122381Y-30160633D01*
X43102814Y-30101584D01*
X43102812Y-30101581D01*
X43102415Y-30100382D01*
X43093929Y-30082854D01*
X43093237Y-30081802D01*
X43093237Y-30081801D01*
X43052001Y-30019106D01*
X43050086Y-30016099D01*
X43016311Y-29961341D01*
X43010712Y-29952263D01*
X43010711Y-29952262D01*
X43010048Y-29951187D01*
X42997748Y-29936088D01*
X42942274Y-29883751D01*
X42939687Y-29881238D01*
X42456810Y-29398360D01*
X42445028Y-29384727D01*
X42430691Y-29365469D01*
X42392748Y-29333631D01*
X42384773Y-29326323D01*
X42383411Y-29324961D01*
X42380859Y-29322409D01*
X42356526Y-29303169D01*
X42353729Y-29300890D01*
X42295337Y-29251893D01*
X42278896Y-29241419D01*
X42262161Y-29233615D01*
X42226886Y-29208915D01*
X40242129Y-27224158D01*
X39682687Y-26664715D01*
X39649203Y-26603394D01*
X39654187Y-26533702D01*
X39696059Y-26477769D01*
X39761523Y-26453352D01*
X39816016Y-26461744D01*
X40020270Y-26542613D01*
X40027665Y-26545016D01*
X40312625Y-26618182D01*
X40320256Y-26619637D01*
X40612140Y-26656511D01*
X40619899Y-26657000D01*
X40914101Y-26657000D01*
X40921859Y-26656511D01*
X41213743Y-26619637D01*
X41221374Y-26618182D01*
X41506334Y-26545016D01*
X41513729Y-26542613D01*
X41787266Y-26434313D01*
X41794305Y-26431000D01*
X42052108Y-26289272D01*
X42058678Y-26285102D01*
X42280433Y-26123986D01*
X42280434Y-26123986D01*
X41350306Y-25193859D01*
X41364410Y-25186589D01*
X41529540Y-25056729D01*
X41667110Y-24897965D01*
X41701665Y-24838112D01*
X42631686Y-25768133D01*
X42709997Y-25673474D01*
X42714568Y-25667182D01*
X42872207Y-25418782D01*
X42875949Y-25411976D01*
X43001218Y-25145765D01*
X43004078Y-25138541D01*
X43094990Y-24858745D01*
X43096926Y-24851206D01*
X43152053Y-24562220D01*
X43153027Y-24554500D01*
X43171500Y-24260894D01*
X43171500Y-24253105D01*
X43153027Y-23959499D01*
X43152053Y-23951779D01*
X43096926Y-23662793D01*
X43094990Y-23655254D01*
X43004078Y-23375458D01*
X43001218Y-23368234D01*
X42875949Y-23102023D01*
X42872207Y-23095217D01*
X42714569Y-22846818D01*
X42709993Y-22840520D01*
X42631686Y-22745864D01*
X41702787Y-23674762D01*
X41602106Y-23533376D01*
X41450068Y-23388408D01*
X41347776Y-23322669D01*
X42280434Y-22390012D01*
X42058679Y-22228897D01*
X42052108Y-22224727D01*
X41794305Y-22082999D01*
X41787266Y-22079686D01*
X41513729Y-21971386D01*
X41506334Y-21968983D01*
X41221374Y-21895817D01*
X41213743Y-21894362D01*
X40921859Y-21857488D01*
X40914101Y-21857000D01*
X40619899Y-21857000D01*
X40612140Y-21857488D01*
X40320256Y-21894362D01*
X40312625Y-21895817D01*
X40027665Y-21968983D01*
X40020270Y-21971386D01*
X39746733Y-22079686D01*
X39739694Y-22082999D01*
X39481899Y-22224723D01*
X39475309Y-22228905D01*
X39253565Y-22390011D01*
X39253564Y-22390012D01*
X40183693Y-23320140D01*
X40169590Y-23327411D01*
X40004460Y-23457271D01*
X39866890Y-23616035D01*
X39832334Y-23675887D01*
X38902312Y-22745864D01*
X38823995Y-22840534D01*
X38819434Y-22846812D01*
X38661792Y-23095217D01*
X38658050Y-23102023D01*
X38532781Y-23368234D01*
X38529923Y-23375453D01*
X38457431Y-23598559D01*
X38417993Y-23656234D01*
X38353634Y-23683432D01*
X38284788Y-23671517D01*
X38233312Y-23624273D01*
X38215500Y-23560240D01*
X38215500Y-21952229D01*
X38235185Y-21885190D01*
X38251819Y-21864548D01*
X38690579Y-21425788D01*
X39200650Y-20915716D01*
X39261971Y-20882233D01*
X39262203Y-20882182D01*
X39294069Y-20875410D01*
X39466996Y-20798417D01*
X39620137Y-20687154D01*
X39746799Y-20546482D01*
X39841445Y-20382550D01*
X39899940Y-20202522D01*
X39919726Y-20014266D01*
X39899940Y-19826010D01*
X39841579Y-19646393D01*
X39841445Y-19645981D01*
X39746799Y-19482049D01*
X39620136Y-19341376D01*
X39466996Y-19230114D01*
X39294068Y-19153121D01*
X39108914Y-19113766D01*
X39108912Y-19113766D01*
X38919620Y-19113766D01*
X38919618Y-19113766D01*
X38734463Y-19153121D01*
X38561535Y-19230114D01*
X38408398Y-19341375D01*
X38316150Y-19443826D01*
X38256663Y-19480474D01*
X38186806Y-19479143D01*
X38128758Y-19440256D01*
X38100948Y-19376159D01*
X38100000Y-19360853D01*
X38100000Y-15237000D01*
X38119685Y-15169961D01*
X38172489Y-15124206D01*
X38224000Y-15113000D01*
X40206957Y-15113000D01*
X40273996Y-15132685D01*
G37*
G04 #@! TD.AperFunction*
G04 #@! TA.AperFunction,Conductor*
G36*
X31277217Y-45131741D02*
G01*
X31287412Y-45141034D01*
X31288568Y-45142088D01*
X31365705Y-45189849D01*
X31473791Y-45256773D01*
X31632745Y-45318352D01*
X31676931Y-45335470D01*
X31800729Y-45358611D01*
X31863009Y-45390279D01*
X31898282Y-45450591D01*
X31895348Y-45520400D01*
X31855139Y-45577540D01*
X31790421Y-45603871D01*
X31777943Y-45604500D01*
X30837184Y-45604500D01*
X30770145Y-45584815D01*
X30724390Y-45532011D01*
X30714446Y-45462853D01*
X30743471Y-45399297D01*
X30793850Y-45364318D01*
X30917089Y-45318352D01*
X31032188Y-45232188D01*
X31094413Y-45149068D01*
X31150347Y-45107197D01*
X31220039Y-45102213D01*
X31277217Y-45131741D01*
G37*
G04 #@! TD.AperFunction*
G04 #@! TA.AperFunction,Conductor*
G36*
X37314308Y-20466685D02*
G01*
X37360063Y-20519489D01*
X37370007Y-20588647D01*
X37340982Y-20652203D01*
X37334950Y-20658681D01*
X36979358Y-21014272D01*
X36965727Y-21026053D01*
X36946468Y-21040391D01*
X36914635Y-21078328D01*
X36907338Y-21086292D01*
X36905972Y-21087657D01*
X36905950Y-21087681D01*
X36903409Y-21090223D01*
X36901173Y-21093050D01*
X36901171Y-21093053D01*
X36884176Y-21114546D01*
X36881902Y-21117337D01*
X36832894Y-21175744D01*
X36822418Y-21192187D01*
X36790192Y-21261294D01*
X36788622Y-21264536D01*
X36754393Y-21332692D01*
X36747996Y-21351098D01*
X36732573Y-21425788D01*
X36731793Y-21429305D01*
X36714208Y-21503506D01*
X36712229Y-21522879D01*
X36714448Y-21599129D01*
X36714500Y-21602735D01*
X36714500Y-25307615D01*
X36694815Y-25374654D01*
X36642011Y-25420409D01*
X36574315Y-25430554D01*
X36414000Y-25409447D01*
X36383686Y-25413439D01*
X36367500Y-25414500D01*
X36142500Y-25414500D01*
X36075461Y-25394815D01*
X36029706Y-25342011D01*
X36018500Y-25290500D01*
X36018500Y-23859429D01*
X36038185Y-23792390D01*
X36063833Y-23763577D01*
X36143883Y-23697883D01*
X36268910Y-23545538D01*
X36361814Y-23371727D01*
X36419024Y-23183132D01*
X36438341Y-22987000D01*
X36419024Y-22790868D01*
X36361814Y-22602273D01*
X36268910Y-22428462D01*
X36143883Y-22276117D01*
X35991538Y-22151090D01*
X35857951Y-22079686D01*
X35817726Y-22058185D01*
X35629133Y-22000976D01*
X35519273Y-21990156D01*
X35433000Y-21981659D01*
X35432999Y-21981659D01*
X35236866Y-22000976D01*
X35048273Y-22058185D01*
X34874463Y-22151089D01*
X34722117Y-22276117D01*
X34597089Y-22428463D01*
X34504185Y-22602273D01*
X34446976Y-22790866D01*
X34427659Y-22987000D01*
X34446976Y-23183133D01*
X34504185Y-23371726D01*
X34597089Y-23545537D01*
X34661707Y-23624273D01*
X34722117Y-23697883D01*
X34802165Y-23763576D01*
X34841499Y-23821321D01*
X34847500Y-23859429D01*
X34847500Y-25290500D01*
X34827815Y-25357539D01*
X34775011Y-25403294D01*
X34723500Y-25414500D01*
X26409106Y-25414500D01*
X26342067Y-25394815D01*
X26316956Y-25373472D01*
X26259870Y-25310071D01*
X26106730Y-25198809D01*
X25933802Y-25121816D01*
X25748648Y-25082461D01*
X25748646Y-25082461D01*
X25559354Y-25082461D01*
X25559352Y-25082461D01*
X25374197Y-25121816D01*
X25201269Y-25198809D01*
X25048129Y-25310071D01*
X24921466Y-25450744D01*
X24826820Y-25614676D01*
X24768326Y-25794703D01*
X24748539Y-25982965D01*
X24749506Y-25992162D01*
X24736934Y-26060892D01*
X24689200Y-26111914D01*
X24621459Y-26129029D01*
X24555219Y-26106804D01*
X24538504Y-26092800D01*
X24264573Y-25818869D01*
X24253878Y-25806674D01*
X24235264Y-25782415D01*
X24187915Y-25746083D01*
X24112957Y-25688566D01*
X23970528Y-25629571D01*
X23817681Y-25609447D01*
X23787368Y-25613439D01*
X23771182Y-25614500D01*
X19140298Y-25614500D01*
X19073259Y-25594815D01*
X19067412Y-25590818D01*
X19033331Y-25566057D01*
X18949086Y-25504849D01*
X18949085Y-25504848D01*
X18949083Y-25504847D01*
X18776158Y-25427855D01*
X18591004Y-25388500D01*
X18591002Y-25388500D01*
X18401710Y-25388500D01*
X18348980Y-25399707D01*
X18269454Y-25416611D01*
X18199787Y-25411294D01*
X18144054Y-25369156D01*
X18120353Y-25308281D01*
X18120283Y-25307615D01*
X18107874Y-25189544D01*
X18049379Y-25009516D01*
X18049379Y-25009515D01*
X17954733Y-24845583D01*
X17828070Y-24704910D01*
X17674930Y-24593648D01*
X17502002Y-24516655D01*
X17316848Y-24477300D01*
X17316846Y-24477300D01*
X17127554Y-24477300D01*
X17127552Y-24477300D01*
X16942397Y-24516655D01*
X16769469Y-24593648D01*
X16616329Y-24704910D01*
X16489666Y-24845583D01*
X16395020Y-25009515D01*
X16336526Y-25189542D01*
X16317338Y-25372112D01*
X16316740Y-25377800D01*
X16320066Y-25409447D01*
X16336526Y-25566057D01*
X16395020Y-25746083D01*
X16489666Y-25910016D01*
X16529849Y-25954643D01*
X16560079Y-26017634D01*
X16561699Y-26037615D01*
X16561699Y-26109799D01*
X16542014Y-26176838D01*
X16489210Y-26222593D01*
X16437699Y-26233799D01*
X16263150Y-26233799D01*
X16077995Y-26273154D01*
X15905067Y-26350147D01*
X15751927Y-26461409D01*
X15625264Y-26602082D01*
X15530618Y-26766014D01*
X15472124Y-26946041D01*
X15467113Y-26993719D01*
X15440527Y-27058334D01*
X15431473Y-27068437D01*
X15349708Y-27150202D01*
X15344256Y-27155335D01*
X15301975Y-27192793D01*
X15269885Y-27239282D01*
X15265449Y-27245311D01*
X15222112Y-27300629D01*
X15165273Y-27341263D01*
X15095489Y-27344717D01*
X15034916Y-27309894D01*
X15002785Y-27247851D01*
X15000500Y-27224158D01*
X15000500Y-20571000D01*
X15020185Y-20503961D01*
X15072989Y-20458206D01*
X15124500Y-20447000D01*
X37247269Y-20447000D01*
X37314308Y-20466685D01*
G37*
G04 #@! TD.AperFunction*
G04 #@! TA.AperFunction,Conductor*
G36*
X35402685Y-26586560D02*
G01*
X35433000Y-26590552D01*
X35463314Y-26586560D01*
X35479500Y-26585500D01*
X36120116Y-26585500D01*
X36187155Y-26605185D01*
X36207797Y-26621819D01*
X37644446Y-28058468D01*
X37677931Y-28119791D01*
X37680086Y-28159109D01*
X37673352Y-28223186D01*
X37693138Y-28411445D01*
X37751632Y-28591472D01*
X37846278Y-28755404D01*
X37972941Y-28896077D01*
X38126081Y-29007339D01*
X38299009Y-29084332D01*
X38484164Y-29123688D01*
X38484166Y-29123688D01*
X38673460Y-29123688D01*
X38813290Y-29093966D01*
X38858615Y-29084332D01*
X39031542Y-29007339D01*
X39031541Y-29007339D01*
X39184682Y-28896077D01*
X39220507Y-28856290D01*
X39311345Y-28755404D01*
X39354736Y-28680247D01*
X39405302Y-28632033D01*
X39473909Y-28618809D01*
X39538774Y-28644777D01*
X39549804Y-28654567D01*
X40832056Y-29936819D01*
X40865541Y-29998142D01*
X40860557Y-30067834D01*
X40818685Y-30123767D01*
X40753221Y-30148184D01*
X40744375Y-30148500D01*
X28645566Y-30148500D01*
X28578527Y-30128815D01*
X28557885Y-30112181D01*
X25540846Y-27095142D01*
X25507361Y-27033819D01*
X25512345Y-26964127D01*
X25554217Y-26908194D01*
X25619681Y-26883777D01*
X25628527Y-26883461D01*
X25748648Y-26883461D01*
X25872083Y-26857223D01*
X25933803Y-26844105D01*
X26106730Y-26767112D01*
X26259871Y-26655849D01*
X26286274Y-26626527D01*
X26345761Y-26589879D01*
X26378423Y-26585500D01*
X35386500Y-26585500D01*
X35402685Y-26586560D01*
G37*
G04 #@! TD.AperFunction*
D27*
X35433000Y-22987000D03*
X37084000Y-42672000D03*
X37846000Y-40132000D03*
X33274000Y-26797000D03*
X46101000Y-35179000D03*
X44831000Y-25273000D03*
X37465000Y-44323000D03*
X28702000Y-34544000D03*
X15773400Y-24053800D03*
X41173400Y-35509200D03*
X28016200Y-32969200D03*
X18669000Y-24079200D03*
X27590750Y-36417250D03*
X17222200Y-25377800D03*
X39751000Y-43180000D03*
X15494000Y-46355000D03*
X34290000Y-23749000D03*
X46101000Y-32258000D03*
X46101000Y-26670000D03*
X23749000Y-37719000D03*
X20955000Y-36449000D03*
X20955000Y-46355000D03*
X35433000Y-43307000D03*
X39370000Y-44831000D03*
X41275000Y-46101000D03*
X46101000Y-38481000D03*
X46101000Y-42418000D03*
X46101000Y-46101000D03*
X15748000Y-21082000D03*
X34290000Y-21082000D03*
X29718000Y-21082000D03*
X29718000Y-23749000D03*
X41550500Y-30929361D03*
X32893000Y-40767000D03*
X29083000Y-38481000D03*
X22225000Y-33050500D03*
X30734000Y-40767000D03*
X24683071Y-40696081D03*
X18034000Y-38100000D03*
X30480000Y-34433500D03*
X33655000Y-35560000D03*
X42672000Y-39878000D03*
X25273000Y-21082000D03*
X17517709Y-40754353D03*
X21800000Y-43200000D03*
X40005000Y-45974000D03*
X42418000Y-32131000D03*
X37800000Y-38400000D03*
X34800000Y-37400000D03*
X25654000Y-25982961D03*
X38578812Y-28223188D03*
X36957000Y-27559000D03*
X18496356Y-26289000D03*
X15800000Y-31600000D03*
X16357798Y-27134299D03*
X27698000Y-45200000D03*
X44049500Y-40200000D03*
X43000000Y-43800000D03*
X43434000Y-39116000D03*
X41275000Y-41529000D03*
X15875000Y-43000000D03*
X23622000Y-34925000D03*
X25273000Y-43170500D03*
X39014266Y-20014266D03*
X17653000Y-31200000D03*
D28*
X19000000Y-20550000D03*
D27*
X40767000Y-24257000D03*
X17000000Y-44800000D03*
X19540000Y-44800000D03*
D29*
X23605482Y-26987800D03*
X22538815Y-26987800D03*
X21472149Y-26987800D03*
X20405482Y-26987800D03*
X23605482Y-28054467D03*
X22538815Y-28054467D03*
X21472149Y-28054467D03*
X20405482Y-28054467D03*
X23605482Y-29121133D03*
X22538815Y-29121133D03*
X21472149Y-29121133D03*
X20405482Y-29121133D03*
X23605482Y-30187800D03*
X22538815Y-30187800D03*
X21472149Y-30187800D03*
X20405482Y-30187800D03*
D27*
X30000000Y-44200000D03*
X32000000Y-44200000D03*
X45200000Y-22200000D03*
X43403949Y-20403949D03*
X41607898Y-18607898D03*
X39811846Y-16811846D03*
M02*
